<svg version="1.1" xmlns="http://www.w3.org/2000/svg" viewBox="0 0 1170 495" width="1170" height="495"><!-- svg-source:excalidraw --><metadata></metadata><defs><style class="style-fonts">
      </style></defs><rect x="0" y="0" width="1170" height="495" fill="#f8fafc"></rect><g transform="translate(288.63636363636385 5) rotate(0 315.79545454545456 18)"><text x="315.79545454545456" y="25.560546875" font-family="Helvetica, Segoe UI Emoji" font-size="28px" fill="#1e293b" text-anchor="middle" style="white-space: pre;" direction="ltr" dominant-baseline="alphabetic">🗓️ GTD Weekly Review - Checklist Semanal</text></g><g stroke-linecap="round" transform="translate(5 110) rotate(0 180 190)"><path d="M12 0 C118.13 0, 224.25 0, 348 0 C356 0, 360 4, 360 12 C360 117.94, 360 223.87, 360 368 C360 376, 356 380, 348 380 C265.12 380, 182.24 380, 12 380 C4 380, 0 376, 0 368 C0 292.91, 0 217.82, 0 12 C0 4, 4 0, 12 0" stroke="none" stroke-width="0" fill="#ede9fe"></path><path d="M12 0 C91.29 0, 170.57 0, 348 0 M12 0 C110.96 0, 209.91 0, 348 0 M348 0 C356 0, 360 4, 360 12 M348 0 C356 0, 360 4, 360 12 M360 12 C360 102.23, 360 192.46, 360 368 M360 12 C360 138.48, 360 264.97, 360 368 M360 368 C360 376, 356 380, 348 380 M360 368 C360 376, 356 380, 348 380 M348 380 C277.05 380, 206.1 380, 12 380 M348 380 C215.52 380, 83.04 380, 12 380 M12 380 C4 380, 0 376, 0 368 M12 380 C4 380, 0 376, 0 368 M0 368 C0 279.66, 0 191.31, 0 12 M0 368 C0 266.12, 0 164.24, 0 12 M0 12 C0 4, 4 0, 12 0 M0 12 C0 4, 4 0, 12 0" stroke="#7c3aed" stroke-width="2" fill="none"></path></g><g transform="translate(23.863636363636374 130) rotate(0 100 12)"><text x="0" y="17.400390625" font-family="Helvetica, Segoe UI Emoji" font-size="20px" fill="#5b21b6" text-anchor="start" style="white-space: pre;" direction="ltr" dominant-baseline="alphabetic">🧹 1. Ficar Claro</text></g><g stroke-linecap="round" transform="translate(25 180) rotate(0 12 12)"><path d="M4 0 C9.69 0, 15.39 0, 20 0 C22.67 0, 24 1.33, 24 4 C24 9.57, 24 15.15, 24 20 C24 22.67, 22.67 24, 20 24 C14.92 24, 9.84 24, 4 24 C1.33 24, 0 22.67, 0 20 C0 15.24, 0 10.48, 0 4 C0 1.33, 1.33 0, 4 0" stroke="none" stroke-width="0" fill="#ffffff"></path><path d="M4 0 C7.78 0, 11.55 0, 20 0 M4 0 C7.82 0, 11.63 0, 20 0 M20 0 C22.67 0, 24 1.33, 24 4 M20 0 C22.67 0, 24 1.33, 24 4 M24 4 C24 8.62, 24 13.23, 24 20 M24 4 C24 9.35, 24 14.7, 24 20 M24 20 C24 22.67, 22.67 24, 20 24 M24 20 C24 22.67, 22.67 24, 20 24 M20 24 C16.12 24, 12.24 24, 4 24 M20 24 C16.39 24, 12.77 24, 4 24 M4 24 C1.33 24, 0 22.67, 0 20 M4 24 C1.33 24, 0 22.67, 0 20 M0 20 C0 16.45, 0 12.9, 0 4 M0 20 C0 16.18, 0 12.35, 0 4 M0 4 C0 1.33, 1.33 0, 4 0 M0 4 C0 1.33, 1.33 0, 4 0" stroke="#5b21b6" stroke-width="2" fill="none"></path></g><g transform="translate(62.27272727272725 182) rotate(0 130 10)"><text x="0" y="14.3203125" font-family="Helvetica, Segoe UI Emoji" font-size="16px" fill="#1e293b" text-anchor="start" style="white-space: pre;" direction="ltr" dominant-baseline="alphabetic">Reunir papéis e anotações soltas</text></g><g stroke-linecap="round" transform="translate(25 230) rotate(0 12 12)"><path d="M4 0 C10.33 0, 16.67 0, 20 0 C22.67 0, 24 1.33, 24 4 C24 10.38, 24 16.77, 24 20 C24 22.67, 22.67 24, 20 24 C13.79 24, 7.57 24, 4 24 C1.33 24, 0 22.67, 0 20 C0 13.86, 0 7.72, 0 4 C0 1.33, 1.33 0, 4 0" stroke="none" stroke-width="0" fill="#ffffff"></path><path d="M4 0 C7.78 0, 11.55 0, 20 0 M4 0 C10.12 0, 16.24 0, 20 0 M20 0 C22.67 0, 24 1.33, 24 4 M20 0 C22.67 0, 24 1.33, 24 4 M24 4 C24 9.18, 24 14.35, 24 20 M24 4 C24 9.01, 24 14.03, 24 20 M24 20 C24 22.67, 22.67 24, 20 24 M24 20 C24 22.67, 22.67 24, 20 24 M20 24 C15.62 24, 11.24 24, 4 24 M20 24 C15.88 24, 11.76 24, 4 24 M4 24 C1.33 24, 0 22.67, 0 20 M4 24 C1.33 24, 0 22.67, 0 20 M0 20 C0 13.67, 0 7.35, 0 4 M0 20 C0 13.73, 0 7.46, 0 4 M0 4 C0 1.33, 1.33 0, 4 0 M0 4 C0 1.33, 1.33 0, 4 0" stroke="#5b21b6" stroke-width="2" fill="none"></path></g><g transform="translate(60 232) rotate(0 130 10)"><text x="0" y="14.3203125" font-family="Helvetica, Segoe UI Emoji" font-size="16px" fill="#1e293b" text-anchor="start" style="white-space: pre;" direction="ltr" dominant-baseline="alphabetic">Processar anotações (cadernos)</text></g><g stroke-linecap="round" transform="translate(25 277.72727272727275) rotate(0 12 12)"><path d="M4 0 C7.77 0, 11.54 0, 20 0 C22.67 0, 24 1.33, 24 4 C24 8, 24 11.99, 24 20 C24 22.67, 22.67 24, 20 24 C15.85 24, 11.71 24, 4 24 C1.33 24, 0 22.67, 0 20 C0 15.67, 0 11.35, 0 4 C0 1.33, 1.33 0, 4 0" stroke="none" stroke-width="0" fill="#ffffff"></path><path d="M4 0 C7.78 0, 11.55 0, 20 0 M4 0 C9.22 0, 14.45 0, 20 0 M20 0 C22.67 0, 24 1.33, 24 4 M20 0 C22.67 0, 24 1.33, 24 4 M24 4 C24 9.74, 24 15.47, 24 20 M24 4 C24 8.68, 24 13.36, 24 20 M24 20 C24 22.67, 22.67 24, 20 24 M24 20 C24 22.67, 22.67 24, 20 24 M20 24 C15.12 24, 10.23 24, 4 24 M20 24 C15.37 24, 10.75 24, 4 24 M4 24 C1.33 24, 0 22.67, 0 20 M4 24 C1.33 24, 0 22.67, 0 20 M0 20 C0 14.1, 0 8.19, 0 4 M0 20 C0 14.49, 0 8.97, 0 4 M0 4 C0 1.33, 1.33 0, 4 0 M0 4 C0 1.33, 1.33 0, 4 0" stroke="#5b21b6" stroke-width="2" fill="none"></path></g><g transform="translate(61.136363636363626 282) rotate(0 130 10)"><text x="0" y="14.3203125" font-family="Helvetica, Segoe UI Emoji" font-size="16px" fill="#1e293b" text-anchor="start" style="white-space: pre;" direction="ltr" dominant-baseline="alphabetic">Zerar a Caixa de Entrada (Email/Slack)</text></g><g stroke-linecap="round" transform="translate(25 330) rotate(0 12 12)"><path d="M4 0 C8.41 0, 12.82 0, 20 0 C22.67 0, 24 1.33, 24 4 C24 8.81, 24 13.61, 24 20 C24 22.67, 22.67 24, 20 24 C14.72 24, 9.44 24, 4 24 C1.33 24, 0 22.67, 0 20 C0 14.29, 0 8.58, 0 4 C0 1.33, 1.33 0, 4 0" stroke="none" stroke-width="0" fill="#ffffff"></path><path d="M4 0 C7.78 0, 11.55 0, 20 0 M4 0 C8.33 0, 12.65 0, 20 0 M20 0 C22.67 0, 24 1.33, 24 4 M20 0 C22.67 0, 24 1.33, 24 4 M24 4 C24 10.3, 24 16.59, 24 20 M24 4 C24 8.34, 24 12.69, 24 20 M24 20 C24 22.67, 22.67 24, 20 24 M24 20 C24 22.67, 22.67 24, 20 24 M20 24 C14.62 24, 9.23 24, 4 24 M20 24 C14.87 24, 9.73 24, 4 24 M4 24 C1.33 24, 0 22.67, 0 20 M4 24 C1.33 24, 0 22.67, 0 20 M0 20 C0 14.52, 0 9.04, 0 4 M0 20 C0 15.24, 0 10.48, 0 4 M0 4 C0 1.33, 1.33 0, 4 0 M0 4 C0 1.33, 1.33 0, 4 0" stroke="#5b21b6" stroke-width="2" fill="none"></path></g><g transform="translate(60 332) rotate(0 130 10)"><text x="0" y="14.3203125" font-family="Helvetica, Segoe UI Emoji" font-size="16px" fill="#1e293b" text-anchor="start" style="white-space: pre;" direction="ltr" dominant-baseline="alphabetic">Esvaziar a mente (Brain dump)</text></g><g stroke-linecap="round" transform="translate(395 110) rotate(0 190 190)"><path d="M12 0 C124.39 0, 236.77 0, 368 0 C376 0, 380 4, 380 12 C380 137, 380 262.01, 380 368 C380 376, 376 380, 368 380 C296.48 380, 224.97 380, 12 380 C4 380, 0 376, 0 368 C0 281.37, 0 194.74, 0 12 C0 4, 4 0, 12 0" stroke="none" stroke-width="0" fill="#fef3c7"></path><path d="M12 0 C96.02 0, 180.05 0, 368 0 M12 0 C88.35 0, 164.69 0, 368 0 M368 0 C376 0, 380 4, 380 12 M368 0 C376 0, 380 4, 380 12 M380 12 C380 93.34, 380 174.68, 380 368 M380 12 C380 101.18, 380 190.37, 380 368 M380 368 C380 376, 376 380, 368 380 M380 368 C380 376, 376 380, 368 380 M368 380 C237.03 380, 106.07 380, 12 380 M368 380 C242.51 380, 117.03 380, 12 380 M12 380 C4 380, 0 376, 0 368 M12 380 C4 380, 0 376, 0 368 M0 368 C0 255.41, 0 142.83, 0 12 M0 368 C0 278.88, 0 189.75, 0 12 M0 12 C0 4, 4 0, 12 0 M0 12 C0 4, 4 0, 12 0" stroke="#d97706" stroke-width="2" fill="none"></path></g><g transform="translate(415 130) rotate(0 125 12)"><text x="0" y="17.400390625" font-family="Helvetica, Segoe UI Emoji" font-size="20px" fill="#92400e" text-anchor="start" style="white-space: pre;" direction="ltr" dominant-baseline="alphabetic">🔄 2. Ficar Atualizado</text></g><g stroke-linecap="round" transform="translate(415 180) rotate(0 12 12)"><path d="M4 0 C9.69 0, 15.38 0, 20 0 C22.67 0, 24 1.33, 24 4 C24 7.23, 24 10.46, 24 20 C24 22.67, 22.67 24, 20 24 C15.65 24, 11.3 24, 4 24 C1.33 24, 0 22.67, 0 20 C0 14.72, 0 9.45, 0 4 C0 1.33, 1.33 0, 4 0" stroke="none" stroke-width="0" fill="#ffffff"></path><path d="M4 0 C7.78 0, 11.55 0, 20 0 M4 0 C9.74 0, 15.47 0, 20 0 M20 0 C22.67 0, 24 1.33, 24 4 M20 0 C22.67 0, 24 1.33, 24 4 M24 4 C24 8.22, 24 12.43, 24 20 M24 4 C24 7.67, 24 11.35, 24 20 M24 20 C24 22.67, 22.67 24, 20 24 M24 20 C24 22.67, 22.67 24, 20 24 M20 24 C13.61 24, 7.22 24, 4 24 M20 24 C13.85 24, 7.71 24, 4 24 M4 24 C1.33 24, 0 22.67, 0 20 M4 24 C1.33 24, 0 22.67, 0 20 M0 20 C0 15.36, 0 10.72, 0 4 M0 20 C0 16.75, 0 13.5, 0 4 M0 4 C0 1.33, 1.33 0, 4 0 M0 4 C0 1.33, 1.33 0, 4 0" stroke="#92400e" stroke-width="2" fill="none"></path></g><g transform="translate(450 182) rotate(0 140 10)"><text x="0" y="14.3203125" font-family="Helvetica, Segoe UI Emoji" font-size="16px" fill="#1e293b" text-anchor="start" style="white-space: pre;" direction="ltr" dominant-baseline="alphabetic">Revisar lista de Próximas Ações</text></g><g stroke-linecap="round" transform="translate(415 230) rotate(0 12 12)"><path d="M4 0 C10.33 0, 16.66 0, 20 0 C22.67 0, 24 1.33, 24 4 C24 8.04, 24 12.08, 24 20 C24 22.67, 22.67 24, 20 24 C14.52 24, 9.04 24, 4 24 C1.33 24, 0 22.67, 0 20 C0 16.54, 0 13.08, 0 4 C0 1.33, 1.33 0, 4 0" stroke="none" stroke-width="0" fill="#ffffff"></path><path d="M4 0 C7.78 0, 11.55 0, 20 0 M4 0 C8.84 0, 13.68 0, 20 0 M20 0 C22.67 0, 24 1.33, 24 4 M20 0 C22.67 0, 24 1.33, 24 4 M24 4 C24 8.78, 24 13.55, 24 20 M24 4 C24 7.34, 24 10.68, 24 20 M24 20 C24 22.67, 22.67 24, 20 24 M24 20 C24 22.67, 22.67 24, 20 24 M20 24 C16.31 24, 12.62 24, 4 24 M20 24 C16.55 24, 13.1 24, 4 24 M4 24 C1.33 24, 0 22.67, 0 20 M4 24 C1.33 24, 0 22.67, 0 20 M0 20 C0 15.78, 0 11.57, 0 4 M0 20 C0 14.3, 0 8.61, 0 4 M0 4 C0 1.33, 1.33 0, 4 0 M0 4 C0 1.33, 1.33 0, 4 0" stroke="#92400e" stroke-width="2" fill="none"></path></g><g transform="translate(450 232) rotate(0 140 10)"><text x="0" y="14.3203125" font-family="Helvetica, Segoe UI Emoji" font-size="16px" fill="#1e293b" text-anchor="start" style="white-space: pre;" direction="ltr" dominant-baseline="alphabetic">Revisar Calendário (Passado e Futuro)</text></g><g stroke-linecap="round" transform="translate(415 280) rotate(0 12 12)"><path d="M4 0 C7.77 0, 11.54 0, 20 0 C22.67 0, 24 1.33, 24 4 C24 8.85, 24 13.7, 24 20 C24 22.67, 22.67 24, 20 24 C16.59 24, 13.17 24, 4 24 C1.33 24, 0 22.67, 0 20 C0 15.16, 0 10.31, 0 4 C0 1.33, 1.33 0, 4 0" stroke="none" stroke-width="0" fill="#ffffff"></path><path d="M4 0 C7.78 0, 11.55 0, 20 0 M4 0 C7.94 0, 11.89 0, 20 0 M20 0 C22.67 0, 24 1.33, 24 4 M20 0 C22.67 0, 24 1.33, 24 4 M24 4 C24 9.34, 24 14.67, 24 20 M24 4 C24 10.2, 24 16.4, 24 20 M24 20 C24 22.67, 22.67 24, 20 24 M24 20 C24 22.67, 22.67 24, 20 24 M20 24 C15.81 24, 11.62 24, 4 24 M20 24 C16.04 24, 12.08 24, 4 24 M4 24 C1.33 24, 0 22.67, 0 20 M4 24 C1.33 24, 0 22.67, 0 20 M0 20 C0 16.21, 0 12.41, 0 4 M0 20 C0 15.06, 0 10.12, 0 4 M0 4 C0 1.33, 1.33 0, 4 0 M0 4 C0 1.33, 1.33 0, 4 0" stroke="#92400e" stroke-width="2" fill="none"></path></g><g transform="translate(450 282) rotate(0 140 10)"><text x="0" y="14.3203125" font-family="Helvetica, Segoe UI Emoji" font-size="16px" fill="#1e293b" text-anchor="start" style="white-space: pre;" direction="ltr" dominant-baseline="alphabetic">Revisar lista 'Aguardando' (Cobrar)</text></g><g stroke-linecap="round" transform="translate(415 330) rotate(0 12 12)"><path d="M4 0 C8.41 0, 12.82 0, 20 0 C22.67 0, 24 1.33, 24 4 C24 9.66, 24 15.33, 24 20 C24 22.67, 22.67 24, 20 24 C15.45 24, 10.9 24, 4 24 C1.33 24, 0 22.67, 0 20 C0 13.77, 0 7.54, 0 4 C0 1.33, 1.33 0, 4 0" stroke="none" stroke-width="0" fill="#ffffff"></path><path d="M4 0 C7.78 0, 11.55 0, 20 0 M4 0 C10.25 0, 16.49 0, 20 0 M20 0 C22.67 0, 24 1.33, 24 4 M20 0 C22.67 0, 24 1.33, 24 4 M24 4 C24 9.9, 24 15.79, 24 20 M24 4 C24 9.87, 24 15.73, 24 20 M24 20 C24 22.67, 22.67 24, 20 24 M24 20 C24 22.67, 22.67 24, 20 24 M20 24 C15.31 24, 10.62 24, 4 24 M20 24 C15.54 24, 11.07 24, 4 24 M4 24 C1.33 24, 0 22.67, 0 20 M4 24 C1.33 24, 0 22.67, 0 20 M0 20 C0 16.63, 0 13.26, 0 4 M0 20 C0 15.81, 0 11.63, 0 4 M0 4 C0 1.33, 1.33 0, 4 0 M0 4 C0 1.33, 1.33 0, 4 0" stroke="#92400e" stroke-width="2" fill="none"></path></g><g transform="translate(450 332) rotate(0 155 20)"><text x="0" y="14.3203125" font-family="Helvetica, Segoe UI Emoji" font-size="16px" fill="#1e293b" text-anchor="start" style="white-space: pre;" direction="ltr" dominant-baseline="alphabetic">Revisar Projetos (Atualizar status e</text><text x="0" y="34.3203125" font-family="Helvetica, Segoe UI Emoji" font-size="16px" fill="#1e293b" text-anchor="start" style="white-space: pre;" direction="ltr" dominant-baseline="alphabetic">definir próxima ação ativa)</text></g><g stroke-linecap="round" transform="translate(805 110) rotate(0 180 190)"><path d="M12 0 C118.02 0, 224.04 0, 348 0 C356 0, 360 4, 360 12 C360 84.87, 360 157.74, 360 368 C360 376, 356 380, 348 380 C228.68 380, 109.37 380, 12 380 C4 380, 0 376, 0 368 C0 269.84, 0 171.67, 0 12 C0 4, 4 0, 12 0" stroke="none" stroke-width="0" fill="#d1fae5"></path><path d="M12 0 C91.32 0, 170.63 0, 348 0 M12 0 C124.36 0, 236.71 0, 348 0 M348 0 C356 0, 360 4, 360 12 M348 0 C356 0, 360 4, 360 12 M360 12 C360 84.45, 360 156.89, 360 368 M360 12 C360 135.08, 360 258.16, 360 368 M360 368 C360 376, 356 380, 348 380 M360 368 C360 376, 356 380, 348 380 M348 380 C238.93 380, 129.86 380, 12 380 M348 380 C243.61 380, 139.22 380, 12 380 M12 380 C4 380, 0 376, 0 368 M12 380 C4 380, 0 376, 0 368 M0 368 C0 231.17, 0 94.35, 0 12 M0 368 C0 291.63, 0 215.27, 0 12 M0 12 C0 4, 4 0, 12 0 M0 12 C0 4, 4 0, 12 0" stroke="#059669" stroke-width="2" fill="none"></path></g><g transform="translate(825 130) rotate(0 100 12)"><text x="0" y="17.400390625" font-family="Helvetica, Segoe UI Emoji" font-size="20px" fill="#065f46" text-anchor="start" style="white-space: pre;" direction="ltr" dominant-baseline="alphabetic">💡 3. Ficar Criativo</text></g><g stroke-linecap="round" transform="translate(825 180) rotate(0 12 12)"><path d="M4 0 C9.69 0, 15.38 0, 20 0 C22.67 0, 24 1.33, 24 4 C24 8.09, 24 12.17, 24 20 C24 22.67, 22.67 24, 20 24 C16.38 24, 12.77 24, 4 24 C1.33 24, 0 22.67, 0 20 C0 14.2, 0 8.41, 0 4 C0 1.33, 1.33 0, 4 0" stroke="none" stroke-width="0" fill="#ffffff"></path><path d="M4 0 C7.78 0, 11.55 0, 20 0 M4 0 C8.45 0, 12.91 0, 20 0 M20 0 C22.67 0, 24 1.33, 24 4 M20 0 C22.67 0, 24 1.33, 24 4 M24 4 C24 7.82, 24 11.63, 24 20 M24 4 C24 9.2, 24 14.39, 24 20 M24 20 C24 22.67, 22.67 24, 20 24 M24 20 C24 22.67, 22.67 24, 20 24 M20 24 C14.3 24, 8.61 24, 4 24 M20 24 C14.52 24, 9.05 24, 4 24 M4 24 C1.33 24, 0 22.67, 0 20 M4 24 C1.33 24, 0 22.67, 0 20 M0 20 C0 14.27, 0 8.55, 0 4 M0 20 C0 14.12, 0 8.24, 0 4 M0 4 C0 1.33, 1.33 0, 4 0 M0 4 C0 1.33, 1.33 0, 4 0" stroke="#065f46" stroke-width="2" fill="none"></path></g><g transform="translate(861.1363636363637 180.86363636363637) rotate(0 130 10)"><text x="0" y="14.3203125" font-family="Helvetica, Segoe UI Emoji" font-size="16px" fill="#1e293b" text-anchor="start" style="white-space: pre;" direction="ltr" dominant-baseline="alphabetic">Revisar lista 'Algum dia / Talvez'</text></g><g stroke-linecap="round" transform="translate(825 230) rotate(0 12 12)"><path d="M4 0 C10.33 0, 16.66 0, 20 0 C22.67 0, 24 1.33, 24 4 C24 8.9, 24 13.8, 24 20 C24 22.67, 22.67 24, 20 24 C15.25 24, 10.5 24, 4 24 C1.33 24, 0 22.67, 0 20 C0 16.02, 0 12.04, 0 4 C0 1.33, 1.33 0, 4 0" stroke="none" stroke-width="0" fill="#ffffff"></path><path d="M4 0 C7.78 0, 11.55 0, 20 0 M4 0 C7.56 0, 11.12 0, 20 0 M20 0 C22.67 0, 24 1.33, 24 4 M20 0 C22.67 0, 24 1.33, 24 4 M24 4 C24 8.38, 24 12.75, 24 20 M24 4 C24 8.86, 24 13.72, 24 20 M24 20 C24 22.67, 22.67 24, 20 24 M24 20 C24 22.67, 22.67 24, 20 24 M20 24 C13.8 24, 7.61 24, 4 24 M20 24 C14.02 24, 8.03 24, 4 24 M4 24 C1.33 24, 0 22.67, 0 20 M4 24 C1.33 24, 0 22.67, 0 20 M0 20 C0 14.69, 0 9.39, 0 4 M0 20 C0 14.88, 0 9.75, 0 4 M0 4 C0 1.33, 1.33 0, 4 0 M0 4 C0 1.33, 1.33 0, 4 0" stroke="#065f46" stroke-width="2" fill="none"></path></g><g transform="translate(860 232) rotate(0 140 10)"><text x="0" y="14.3203125" font-family="Helvetica, Segoe UI Emoji" font-size="16px" fill="#1e293b" text-anchor="start" style="white-space: pre;" direction="ltr" dominant-baseline="alphabetic">Capturar novas ideias ousadas</text></g><g stroke-linecap="round" transform="translate(825 280) rotate(0 12 12)"><path d="M4 0 C7.77 0, 11.53 0, 20 0 C22.67 0, 24 1.33, 24 4 C24 9.71, 24 15.42, 24 20 C24 22.67, 22.67 24, 20 24 C14.12 24, 8.24 24, 4 24 C1.33 24, 0 22.67, 0 20 C0 14.64, 0 9.27, 0 4 C0 1.33, 1.33 0, 4 0" stroke="none" stroke-width="0" fill="#ffffff"></path><path d="M4 0 C7.78 0, 11.55 0, 20 0 M4 0 C9.86 0, 15.72 0, 20 0 M20 0 C22.67 0, 24 1.33, 24 4 M20 0 C22.67 0, 24 1.33, 24 4 M24 4 C24 8.94, 24 13.87, 24 20 M24 4 C24 8.53, 24 13.05, 24 20 M24 20 C24 22.67, 22.67 24, 20 24 M24 20 C24 22.67, 22.67 24, 20 24 M20 24 C16.5 24, 13 24, 4 24 M20 24 C16.71 24, 13.42 24, 4 24 M4 24 C1.33 24, 0 22.67, 0 20 M4 24 C1.33 24, 0 22.67, 0 20 M0 20 C0 15.12, 0 10.23, 0 4 M0 20 C0 15.63, 0 11.26, 0 4 M0 4 C0 1.33, 1.33 0, 4 0 M0 4 C0 1.33, 1.33 0, 4 0" stroke="#065f46" stroke-width="2" fill="none"></path></g><g transform="translate(861.1363636363635 280.8636363636364) rotate(0 140 20)"><text x="0" y="14.3203125" font-family="Helvetica, Segoe UI Emoji" font-size="16px" fill="#1e293b" text-anchor="start" style="white-space: pre;" direction="ltr" dominant-baseline="alphabetic">Verificar alinhamento de metas</text><text x="0" y="34.3203125" font-family="Helvetica, Segoe UI Emoji" font-size="16px" fill="#1e293b" text-anchor="start" style="white-space: pre;" direction="ltr" dominant-baseline="alphabetic">e visão de longo prazo</text></g></svg>