<svg version="1.1" xmlns="http://www.w3.org/2000/svg" viewBox="0 0 970 930" width="970" height="930"><!-- svg-source:excalidraw --><metadata></metadata><defs><style class="style-fonts">
      </style></defs><rect x="0" y="0" width="970" height="930" fill="#ffffff"></rect><g transform="translate(185 5) rotate(0 250 15)"><text x="250.00000000000003" y="21.48046875" font-family="Helvetica, Segoe UI Emoji" font-size="24px" fill="#1e1e1e" text-anchor="middle" style="white-space: pre;" direction="ltr" dominant-baseline="alphabetic">GTD (Getting Things Done) - Fluxograma</text></g><g stroke-linecap="round" transform="translate(365 85) rotate(0 100 30)"><path d="M8 0 C51.53 0, 95.05 0, 192 0 C197.33 0, 200 2.67, 200 8 C200 18.08, 200 28.15, 200 52 C200 57.33, 197.33 60, 192 60 C143.48 60, 94.97 60, 8 60 C2.67 60, 0 57.33, 0 52 C0 34.43, 0 16.85, 0 8 C0 2.67, 2.67 0, 8 0" stroke="none" stroke-width="0" fill="#dbeafe"></path><path d="M8 0 C44.98 0, 81.97 0, 192 0 M8 0 C78.4 0, 148.81 0, 192 0 M192 0 C197.33 0, 200 2.67, 200 8 M192 0 C197.33 0, 200 2.67, 200 8 M200 8 C200 20.56, 200 33.13, 200 52 M200 8 C200 20.05, 200 32.1, 200 52 M200 52 C200 57.33, 197.33 60, 192 60 M200 52 C200 57.33, 197.33 60, 192 60 M192 60 C140.61 60, 89.22 60, 8 60 M192 60 C134.57 60, 77.14 60, 8 60 M8 60 C2.67 60, 0 57.33, 0 52 M8 60 C2.67 60, 0 57.33, 0 52 M0 52 C0 40.05, 0 28.09, 0 8 M0 52 C0 35.96, 0 19.92, 0 8 M0 8 C0 2.67, 2.67 0, 8 0 M0 8 C0 2.67, 2.67 0, 8 0" stroke="#2563eb" stroke-width="2" fill="none"></path></g><g transform="translate(385 105) rotate(0 80 12)"><text x="80" y="16.8603515625" font-family="Helvetica, Segoe UI Emoji" font-size="18px" fill="#1e40af" text-anchor="middle" style="white-space: pre;" direction="ltr" dominant-baseline="alphabetic">1. Capturar (Inbox)</text></g><g stroke-linecap="round"><g transform="translate(465 145) rotate(0 0 30)"><path d="M0 0 C0 12.12, 0 24.24, 0 60 M0 0 C0 21.92, 0 43.83, 0 60" stroke="#000000" stroke-width="2" fill="none"></path></g><g transform="translate(465 145) rotate(0 0 30)"><path d="M-8.55 36.51 C-6.82 41.25, -5.1 46, 0 60 M-8.55 36.51 C-5.43 45.09, -2.3 53.67, 0 60" stroke="#000000" stroke-width="2" fill="none"></path></g><g transform="translate(465 145) rotate(0 0 30)"><path d="M8.55 36.51 C6.82 41.25, 5.1 46, 0 60 M8.55 36.51 C5.43 45.09, 2.3 53.67, 0 60" stroke="#000000" stroke-width="2" fill="none"></path></g></g><mask></mask><g stroke-linecap="round" transform="translate(365 205) rotate(0 100 50)"><path d="M101 0 L200 51 L101 100 L0 51" stroke="none" stroke-width="0" fill="#fef08a" fill-rule="evenodd"></path><path d="M101 0 C121.05 10.33, 141.09 20.65, 200 51 M101 0 C136.3 18.18, 171.6 36.37, 200 51 M200 51 C170.39 65.65, 140.79 80.31, 101 100 M200 51 C172.15 64.78, 144.31 78.57, 101 100 M101 100 C76.79 88.26, 52.59 76.51, 0 51 M101 100 C70.23 85.07, 39.47 70.15, 0 51 M0 51 C28.45 36.64, 56.9 22.27, 101 0 M0 51 C29.73 35.99, 59.47 20.97, 101 0" stroke="#d97706" stroke-width="2" fill="none"></path></g><g transform="translate(402 245) rotate(0 65 12)"><text x="65" y="16.8603515625" font-family="Helvetica, Segoe UI Emoji" font-size="18px" fill="#92400e" text-anchor="middle" style="white-space: pre;" direction="ltr" dominant-baseline="alphabetic">É acionável?</text></g><g stroke-linecap="round"><g transform="translate(374 256) rotate(0 -75 0)"><path d="M0 0 C-30.52 0, -61.05 0, -150 0 M0 0 C-50.88 0, -101.76 0, -150 0" stroke="#ef4444" stroke-width="2" fill="none"></path></g><g transform="translate(374 256) rotate(0 -75 0)"><path d="M-126.51 -8.55 C-131.29 -6.81, -136.07 -5.07, -150 0 M-126.51 -8.55 C-134.48 -5.65, -142.44 -2.75, -150 0" stroke="#ef4444" stroke-width="2" fill="none"></path></g><g transform="translate(374 256) rotate(0 -75 0)"><path d="M-126.51 8.55 C-131.29 6.81, -136.07 5.07, -150 0 M-126.51 8.55 C-134.48 5.65, -142.44 2.75, -150 0" stroke="#ef4444" stroke-width="2" fill="none"></path></g></g><mask></mask><g transform="translate(285 225) rotate(0 20 10)"><text x="20" y="14.3203125" font-family="Helvetica, Segoe UI Emoji" font-size="16px" fill="#ef4444" text-anchor="middle" style="white-space: pre;" direction="ltr" dominant-baseline="alphabetic">Não</text></g><g stroke-linecap="round" transform="translate(5 205) rotate(0 100 50)"><path d="M8 0 C75.07 0, 142.14 0, 192 0 C197.33 0, 200 2.67, 200 8 C200 27.36, 200 46.72, 200 92 C200 97.33, 197.33 100, 192 100 C139.27 100, 86.55 100, 8 100 C2.67 100, 0 97.33, 0 92 C0 58.63, 0 25.25, 0 8 C0 2.67, 2.67 0, 8 0" stroke="none" stroke-width="0" fill="#e5e7eb"></path><path d="M8 0 C45.63 0, 83.25 0, 192 0 M8 0 C67.22 0, 126.43 0, 192 0 M192 0 C197.33 0, 200 2.67, 200 8 M192 0 C197.33 0, 200 2.67, 200 8 M200 8 C200 31.92, 200 55.85, 200 92 M200 8 C200 35.93, 200 63.86, 200 92 M200 92 C200 97.33, 197.33 100, 192 100 M200 92 C200 97.33, 197.33 100, 192 100 M192 100 C144.75 100, 97.5 100, 8 100 M192 100 C154.37 100, 116.74 100, 8 100 M8 100 C2.67 100, 0 97.33, 0 92 M8 100 C2.67 100, 0 97.33, 0 92 M0 92 C0 64.91, 0 37.82, 0 8 M0 92 C0 63.42, 0 34.84, 0 8 M0 8 C0 2.67, 2.67 0, 8 0 M0 8 C0 2.67, 2.67 0, 8 0" stroke="#4b5563" stroke-width="2" fill="none"></path></g><g transform="translate(21 222) rotate(0 90 35)"><text x="0" y="15.986979166666666" font-family="Helvetica, Segoe UI Emoji" font-size="16px" fill="#1f2937" text-anchor="start" style="white-space: pre;" direction="ltr" dominant-baseline="alphabetic">🗑️ Lixo</text><text x="0" y="39.3203125" font-family="Helvetica, Segoe UI Emoji" font-size="16px" fill="#1f2937" text-anchor="start" style="white-space: pre;" direction="ltr" dominant-baseline="alphabetic">💡 Algum Dia/Talvez</text><text x="0" y="62.65364583333333" font-family="Helvetica, Segoe UI Emoji" font-size="16px" fill="#1f2937" text-anchor="start" style="white-space: pre;" direction="ltr" dominant-baseline="alphabetic">📁 Referência</text></g><g stroke-linecap="round"><g transform="translate(468 305) rotate(0 0 30)"><path d="M0 0 C0 12.3, 0 24.6, 0 60 M0 0 C0 23.11, 0 46.22, 0 60" stroke="#10b981" stroke-width="2" fill="none"></path></g><g transform="translate(468 305) rotate(0 0 30)"><path d="M-8.55 36.51 C-6.8 41.32, -5.04 46.14, 0 60 M-8.55 36.51 C-5.26 45.56, -1.96 54.6, 0 60" stroke="#10b981" stroke-width="2" fill="none"></path></g><g transform="translate(468 305) rotate(0 0 30)"><path d="M8.55 36.51 C6.8 41.32, 5.04 46.14, 0 60 M8.55 36.51 C5.26 45.56, 1.96 54.6, 0 60" stroke="#10b981" stroke-width="2" fill="none"></path></g></g><mask></mask><g transform="translate(480 325) rotate(0 20 10)"><text x="20" y="14.3203125" font-family="Helvetica, Segoe UI Emoji" font-size="16px" fill="#10b981" text-anchor="middle" style="white-space: pre;" direction="ltr" dominant-baseline="alphabetic">Sim</text></g><g stroke-linecap="round" transform="translate(325 365) rotate(0 150 30)"><path d="M8 0 C76.05 0, 144.11 0, 292 0 C297.33 0, 300 2.67, 300 8 C300 25.26, 300 42.52, 300 52 C300 57.33, 297.33 60, 292 60 C232.63 60, 173.26 60, 8 60 C2.67 60, 0 57.33, 0 52 C0 35.51, 0 19.01, 0 8 C0 2.67, 2.67 0, 8 0" stroke="none" stroke-width="0" fill="#d1fae5"></path><path d="M8 0 C66.48 0, 124.95 0, 292 0 M8 0 C101.12 0, 194.24 0, 292 0 M292 0 C297.33 0, 300 2.67, 300 8 M292 0 C297.33 0, 300 2.67, 300 8 M300 8 C300 24.74, 300 41.49, 300 52 M300 8 C300 18.67, 300 29.33, 300 52 M300 52 C300 57.33, 297.33 60, 292 60 M300 52 C300 57.33, 297.33 60, 292 60 M292 60 C184.66 60, 77.32 60, 8 60 M292 60 C186.33 60, 80.65 60, 8 60 M8 60 C2.67 60, 0 57.33, 0 52 M8 60 C2.67 60, 0 57.33, 0 52 M0 52 C0 35.25, 0 18.5, 0 8 M0 52 C0 37.26, 0 22.51, 0 8 M0 8 C0 2.67, 2.67 0, 8 0 M0 8 C0 2.67, 2.67 0, 8 0" stroke="#059669" stroke-width="2" fill="none"></path></g><g transform="translate(345 385) rotate(0 120 12)"><text x="120" y="16.8603515625" font-family="Helvetica, Segoe UI Emoji" font-size="18px" fill="#065f46" text-anchor="middle" style="white-space: pre;" direction="ltr" dominant-baseline="alphabetic">Qual é a próxima ação?</text></g><g stroke-linecap="round"><g transform="translate(625 396) rotate(0 50 0)"><path d="M0 0 C20.68 0, 41.36 0, 100 0 M0 0 C27.06 0, 54.13 0, 100 0" stroke="#8b5cf6" stroke-width="2" fill="none"></path></g><g transform="translate(625 396) rotate(0 50 0)"><path d="M76.51 8.55 C81.37 6.78, 86.22 5.01, 100 0 M76.51 8.55 C82.87 6.24, 89.22 3.92, 100 0" stroke="#8b5cf6" stroke-width="2" fill="none"></path></g><g transform="translate(625 396) rotate(0 50 0)"><path d="M76.51 -8.55 C81.37 -6.78, 86.22 -5.01, 100 0 M76.51 -8.55 C82.87 -6.24, 89.22 -3.92, 100 0" stroke="#8b5cf6" stroke-width="2" fill="none"></path></g></g><mask></mask><g transform="translate(625 345) rotate(0 40 10)"><text x="40" y="13.7802734375" font-family="Helvetica, Segoe UI Emoji" font-size="14px" fill="#8b5cf6" text-anchor="middle" style="white-space: pre;" direction="ltr" dominant-baseline="alphabetic">Várias etapas</text></g><g stroke-linecap="round" transform="translate(745 365) rotate(0 110 30)"><path d="M8 0 C71.93 0, 135.85 0, 212 0 C217.33 0, 220 2.67, 220 8 C220 18.38, 220 28.77, 220 52 C220 57.33, 217.33 60, 212 60 C146.81 60, 81.63 60, 8 60 C2.67 60, 0 57.33, 0 52 C0 41.26, 0 30.52, 0 8 C0 2.67, 2.67 0, 8 0" stroke="none" stroke-width="0" fill="#ede9fe"></path><path d="M8 0 C50.37 0, 92.75 0, 212 0 M8 0 C51.53 0, 95.06 0, 212 0 M212 0 C217.33 0, 220 2.67, 220 8 M212 0 C217.33 0, 220 2.67, 220 8 M220 8 C220 19.06, 220 30.13, 220 52 M220 8 C220 17.21, 220 26.42, 220 52 M220 52 C220 57.33, 217.33 60, 212 60 M220 52 C220 57.33, 217.33 60, 212 60 M212 60 C148.83 60, 85.67 60, 8 60 M212 60 C137.84 60, 63.69 60, 8 60 M8 60 C2.67 60, 0 57.33, 0 52 M8 60 C2.67 60, 0 57.33, 0 52 M0 52 C0 40.93, 0 29.86, 0 8 M0 52 C0 42.87, 0 33.75, 0 8 M0 8 C0 2.67, 2.67 0, 8 0 M0 8 C0 2.67, 2.67 0, 8 0" stroke="#7c3aed" stroke-width="2" fill="none"></path></g><g transform="translate(785 385) rotate(0 70 12)"><text x="70" y="16.8603515625" font-family="Helvetica, Segoe UI Emoji" font-size="18px" fill="#5b21b6" text-anchor="middle" style="white-space: pre;" direction="ltr" dominant-baseline="alphabetic">📋 Lista de Projetos</text></g><g stroke-linecap="round"><g transform="translate(473 425) rotate(0 0 30)"><path d="M0 0 C0 12.52, 0 25.04, 0 60 M0 0 C0 21.37, 0 42.74, 0 60" stroke="#000000" stroke-width="2" fill="none"></path></g><g transform="translate(473 425) rotate(0 0 30)"><path d="M-8.55 36.51 C-6.77 41.41, -4.98 46.31, 0 60 M-8.55 36.51 C-5.51 44.87, -2.46 53.24, 0 60" stroke="#000000" stroke-width="2" fill="none"></path></g><g transform="translate(473 425) rotate(0 0 30)"><path d="M8.55 36.51 C6.77 41.41, 4.98 46.31, 0 60 M8.55 36.51 C5.51 44.87, 2.46 53.24, 0 60" stroke="#000000" stroke-width="2" fill="none"></path></g></g><mask></mask><g stroke-linecap="round" transform="translate(325 485) rotate(0 150 50)"><path d="M151 0 L300 51 L151 100 L0 51" stroke="none" stroke-width="0" fill="#fef08a" fill-rule="evenodd"></path><path d="M151 0 C182.15 10.66, 213.31 21.33, 300 51 M151 0 C184.9 11.6, 218.8 23.21, 300 51 M300 51 C244.94 69.11, 189.87 87.22, 151 100 M300 51 C259.95 64.17, 219.9 77.34, 151 100 M151 100 C112.33 87.45, 73.67 74.9, 0 51 M151 100 C115.26 88.4, 79.53 76.81, 0 51 M0 51 C58.76 31.15, 117.52 11.31, 151 0 M0 51 C41.26 37.06, 82.53 23.13, 151 0" stroke="#d97706" stroke-width="2" fill="none"></path></g><g transform="translate(369 525) rotate(0 95 12)"><text x="95" y="16.8603515625" font-family="Helvetica, Segoe UI Emoji" font-size="18px" fill="#92400e" text-anchor="middle" style="white-space: pre;" direction="ltr" dominant-baseline="alphabetic">Leva &lt; 2 minutos?</text></g><g stroke-linecap="round"><g transform="translate(315 535) rotate(0 -50 0)"><path d="M0 0 C-21 0, -42 0, -100 0 M0 0 C-37.03 0, -74.05 0, -100 0" stroke="#10b981" stroke-width="2" fill="none"></path></g><g transform="translate(315 535) rotate(0 -50 0)"><path d="M-76.51 -8.55 C-81.44 -6.75, -86.37 -4.96, -100 0 M-76.51 -8.55 C-85.21 -5.38, -93.9 -2.22, -100 0" stroke="#10b981" stroke-width="2" fill="none"></path></g><g transform="translate(315 535) rotate(0 -50 0)"><path d="M-76.51 8.55 C-81.44 6.75, -86.37 4.96, -100 0 M-76.51 8.55 C-85.21 5.38, -93.9 2.22, -100 0" stroke="#10b981" stroke-width="2" fill="none"></path></g></g><mask></mask><g transform="translate(245 505) rotate(0 20 10)"><text x="20" y="14.3203125" font-family="Helvetica, Segoe UI Emoji" font-size="16px" fill="#10b981" text-anchor="middle" style="white-space: pre;" direction="ltr" dominant-baseline="alphabetic">Sim</text></g><g stroke-linecap="round" transform="translate(5 505) rotate(0 100 30)"><path d="M8 0 C52.6 0, 97.2 0, 192 0 C197.33 0, 200 2.67, 200 8 C200 19.55, 200 31.11, 200 52 C200 57.33, 197.33 60, 192 60 C143.63 60, 95.26 60, 8 60 C2.67 60, 0 57.33, 0 52 C0 42.54, 0 33.07, 0 8 C0 2.67, 2.67 0, 8 0" stroke="none" stroke-width="0" fill="#fee2e2"></path><path d="M8 0 C46.81 0, 85.61 0, 192 0 M8 0 C65.59 0, 123.19 0, 192 0 M192 0 C197.33 0, 200 2.67, 200 8 M192 0 C197.33 0, 200 2.67, 200 8 M200 8 C200 17.93, 200 27.85, 200 52 M200 8 C200 16.86, 200 25.72, 200 52 M200 52 C200 57.33, 197.33 60, 192 60 M200 52 C200 57.33, 197.33 60, 192 60 M192 60 C120.22 60, 48.45 60, 8 60 M192 60 C127.88 60, 63.76 60, 8 60 M8 60 C2.67 60, 0 57.33, 0 52 M8 60 C2.67 60, 0 57.33, 0 52 M0 52 C0 42.07, 0 32.13, 0 8 M0 52 C0 41.7, 0 31.41, 0 8 M0 8 C0 2.67, 2.67 0, 8 0 M0 8 C0 2.67, 2.67 0, 8 0" stroke="#dc2626" stroke-width="2" fill="none"></path></g><g transform="translate(25 525) rotate(0 75 12)"><text x="75" y="16.8603515625" font-family="Helvetica, Segoe UI Emoji" font-size="18px" fill="#991b1b" text-anchor="middle" style="white-space: pre;" direction="ltr" dominant-baseline="alphabetic">⚡ Fazer Agora!</text></g><g stroke-linecap="round"><g transform="translate(474 585) rotate(0 0 30)"><path d="M0 0 C0 12.71, 0 25.42, 0 60 M0 0 C0 15.35, 0 30.69, 0 60" stroke="#ef4444" stroke-width="2" fill="none"></path></g><g transform="translate(474 585) rotate(0 0 30)"><path d="M-8.55 36.51 C-6.74 41.48, -4.93 46.46, 0 60 M-8.55 36.51 C-6.36 42.52, -4.18 48.52, 0 60" stroke="#ef4444" stroke-width="2" fill="none"></path></g><g transform="translate(474 585) rotate(0 0 30)"><path d="M8.55 36.51 C6.74 41.48, 4.93 46.46, 0 60 M8.55 36.51 C6.36 42.52, 4.18 48.52, 0 60" stroke="#ef4444" stroke-width="2" fill="none"></path></g></g><mask></mask><g transform="translate(488 605) rotate(0 20 10)"><text x="20" y="14.3203125" font-family="Helvetica, Segoe UI Emoji" font-size="16px" fill="#ef4444" text-anchor="middle" style="white-space: pre;" direction="ltr" dominant-baseline="alphabetic">Não</text></g><g stroke-linecap="round"><g transform="translate(468 645) rotate(0 -100 20)"><path d="M0 0 C-42.54 8.51, -85.09 17.02, -200 40 M0 0 C-79.7 15.94, -159.4 31.88, -200 40" stroke="#000000" stroke-width="2" fill="none"></path></g><g transform="translate(468 645) rotate(0 -100 20)"><path d="M-178.64 27.01 C-183.18 29.77, -187.73 32.54, -200 40 M-178.64 27.01 C-187.15 32.19, -195.66 37.36, -200 40" stroke="#000000" stroke-width="2" fill="none"></path></g><g transform="translate(468 645) rotate(0 -100 20)"><path d="M-175.29 43.78 C-180.54 42.97, -185.8 42.17, -200 40 M-175.29 43.78 C-185.14 42.27, -194.98 40.77, -200 40" stroke="#000000" stroke-width="2" fill="none"></path></g></g><mask></mask><g stroke-linecap="round"><g transform="translate(468 645) rotate(0 100 20)"><path d="M0 0 C42.63 8.53, 85.27 17.05, 200 40 M0 0 C53.98 10.8, 107.95 21.59, 200 40" stroke="#000000" stroke-width="2" fill="none"></path></g><g transform="translate(468 645) rotate(0 100 20)"><path d="M175.29 43.78 C180.56 42.97, 185.82 42.17, 200 40 M175.29 43.78 C181.96 42.76, 188.63 41.74, 200 40" stroke="#000000" stroke-width="2" fill="none"></path></g><g transform="translate(468 645) rotate(0 100 20)"><path d="M178.64 27.01 C183.19 29.78, 187.75 32.55, 200 40 M178.64 27.01 C184.41 30.51, 190.17 34.02, 200 40" stroke="#000000" stroke-width="2" fill="none"></path></g></g><mask></mask><g stroke-linecap="round" transform="translate(175 708) rotate(0 100 40)"><path d="M8 0 C72.95 0, 137.9 0, 192 0 C197.33 0, 200 2.67, 200 8 C200 22.61, 200 37.22, 200 72 C200 77.33, 197.33 80, 192 80 C131.54 80, 71.08 80, 8 80 C2.67 80, 0 77.33, 0 72 C0 57.99, 0 43.98, 0 8 C0 2.67, 2.67 0, 8 0" stroke="none" stroke-width="0" fill="#ffedd5"></path><path d="M8 0 C47.31 0, 86.61 0, 192 0 M8 0 C70.79 0, 133.58 0, 192 0 M192 0 C197.33 0, 200 2.67, 200 8 M192 0 C197.33 0, 200 2.67, 200 8 M200 8 C200 22.85, 200 37.69, 200 72 M200 8 C200 24.11, 200 40.22, 200 72 M200 72 C200 77.33, 197.33 80, 192 80 M200 72 C200 77.33, 197.33 80, 192 80 M192 80 C139.08 80, 86.16 80, 8 80 M192 80 C130.25 80, 68.5 80, 8 80 M8 80 C2.67 80, 0 77.33, 0 72 M8 80 C2.67 80, 0 77.33, 0 72 M0 72 C0 57.14, 0 42.27, 0 8 M0 72 C0 50.08, 0 28.16, 0 8 M0 8 C0 2.67, 2.67 0, 8 0 M0 8 C0 2.67, 2.67 0, 8 0" stroke="#f97316" stroke-width="2" fill="none"></path></g><g transform="translate(188 725) rotate(0 90 25)"><text x="90" y="17.3603515625" font-family="Helvetica, Segoe UI Emoji" font-size="18px" fill="#9a3412" text-anchor="middle" style="white-space: pre;" direction="ltr" dominant-baseline="alphabetic">👤 Delegar</text><text x="90" y="42.3603515625" font-family="Helvetica, Segoe UI Emoji" font-size="18px" fill="#9a3412" text-anchor="middle" style="white-space: pre;" direction="ltr" dominant-baseline="alphabetic">(Lista: Aguardando)</text></g><g stroke-linecap="round" transform="translate(545 705) rotate(0 130 40)"><path d="M8 0 C103.12 0, 198.25 0, 252 0 C257.33 0, 260 2.67, 260 8 C260 30.41, 260 52.82, 260 72 C260 77.33, 257.33 80, 252 80 C182.74 80, 113.49 80, 8 80 C2.67 80, 0 77.33, 0 72 C0 49.38, 0 26.75, 0 8 C0 2.67, 2.67 0, 8 0" stroke="none" stroke-width="0" fill="#ffedd5"></path><path d="M8 0 C60.35 0, 112.69 0, 252 0 M8 0 C77.3 0, 146.6 0, 252 0 M252 0 C257.33 0, 260 2.67, 260 8 M252 0 C257.33 0, 260 2.67, 260 8 M260 8 C260 31.52, 260 55.03, 260 72 M260 8 C260 29.45, 260 50.91, 260 72 M260 72 C260 77.33, 257.33 80, 252 80 M260 72 C260 77.33, 257.33 80, 252 80 M252 80 C190.16 80, 128.32 80, 8 80 M252 80 C171.16 80, 90.32 80, 8 80 M8 80 C2.67 80, 0 77.33, 0 72 M8 80 C2.67 80, 0 77.33, 0 72 M0 72 C0 48.47, 0 24.93, 0 8 M0 72 C0 47.76, 0 23.53, 0 8 M0 8 C0 2.67, 2.67 0, 8 0 M0 8 C0 2.67, 2.67 0, 8 0" stroke="#f97316" stroke-width="2" fill="none"></path></g><g transform="translate(568 725) rotate(0 105 25)"><text x="105" y="17.3603515625" font-family="Helvetica, Segoe UI Emoji" font-size="18px" fill="#9a3412" text-anchor="middle" style="white-space: pre;" direction="ltr" dominant-baseline="alphabetic">📅 Adiar</text><text x="105" y="42.3603515625" font-family="Helvetica, Segoe UI Emoji" font-size="18px" fill="#9a3412" text-anchor="middle" style="white-space: pre;" direction="ltr" dominant-baseline="alphabetic">(Calendário / Próx. Ações)</text></g><g stroke-linecap="round" transform="translate(25 825) rotate(0 200 50)"><path d="M8 0 C95.06 0, 182.12 0, 392 0 C397.33 0, 400 2.67, 400 8 C400 30.85, 400 53.7, 400 92 C400 97.33, 397.33 100, 392 100 C300.2 100, 208.39 100, 8 100 C2.67 100, 0 97.33, 0 92 C0 67.8, 0 43.6, 0 8 C0 2.67, 2.67 0, 8 0" stroke="none" stroke-width="0" fill="#f9fafb"></path><path d="M8 0 C90.73 0, 173.46 0, 392 0 M8 0 C95.08 0, 182.15 0, 392 0 M392 0 C397.33 0, 400 2.67, 400 8 M392 0 C397.33 0, 400 2.67, 400 8 M400 8 C400 33.45, 400 58.89, 400 92 M400 8 C400 26.37, 400 44.73, 400 92 M400 92 C400 97.33, 397.33 100, 392 100 M400 92 C400 97.33, 397.33 100, 392 100 M392 100 C307.79 100, 223.59 100, 8 100 M392 100 C266.43 100, 140.85 100, 8 100 M8 100 C2.67 100, 0 97.33, 0 92 M8 100 C2.67 100, 0 97.33, 0 92 M0 92 C0 66.53, 0 41.06, 0 8 M0 92 C0 73.95, 0 55.91, 0 8 M0 8 C0 2.67, 2.67 0, 8 0 M0 8 C0 2.67, 2.67 0, 8 0" stroke="#6b7280" stroke-width="2" fill="none"></path></g><g transform="translate(45 845) rotate(0 170 25)"><text x="170" y="17.3603515625" font-family="Helvetica, Segoe UI Emoji" font-size="18px" fill="#374151" text-anchor="middle" style="white-space: pre;" direction="ltr" dominant-baseline="alphabetic">🔄 4. Revisar</text><text x="170" y="42.3603515625" font-family="Helvetica, Segoe UI Emoji" font-size="18px" fill="#374151" text-anchor="middle" style="white-space: pre;" direction="ltr" dominant-baseline="alphabetic">Revise e limpe suas listas semanalmente</text></g><g stroke-linecap="round" transform="translate(465 825) rotate(0 225 50)"><path d="M8 0 C122.4 0, 236.79 0, 442 0 C447.33 0, 450 2.67, 450 8 C450 41.09, 450 74.17, 450 92 C450 97.33, 447.33 100, 442 100 C270.87 100, 99.74 100, 8 100 C2.67 100, 0 97.33, 0 92 C0 73.3, 0 54.59, 0 8 C0 2.67, 2.67 0, 8 0" stroke="none" stroke-width="0" fill="#f9fafb"></path><path d="M8 0 C101.89 0, 195.79 0, 442 0 M8 0 C168.37 0, 328.74 0, 442 0 M442 0 C447.33 0, 450 2.67, 450 8 M442 0 C447.33 0, 450 2.67, 450 8 M450 8 C450 28.02, 450 48.05, 450 92 M450 8 C450 33.38, 450 58.75, 450 92 M450 92 C450 97.33, 447.33 100, 442 100 M450 92 C450 97.33, 447.33 100, 442 100 M442 100 C274.86 100, 107.71 100, 8 100 M442 100 C301.94 100, 161.88 100, 8 100 M8 100 C2.67 100, 0 97.33, 0 92 M8 100 C2.67 100, 0 97.33, 0 92 M0 92 C0 71.95, 0 51.9, 0 8 M0 92 C0 70.92, 0 49.83, 0 8 M0 8 C0 2.67, 2.67 0, 8 0 M0 8 C0 2.67, 2.67 0, 8 0" stroke="#6b7280" stroke-width="2" fill="none"></path></g><g transform="translate(485 845) rotate(0 200 25)"><text x="200" y="17.3603515625" font-family="Helvetica, Segoe UI Emoji" font-size="18px" fill="#374151" text-anchor="middle" style="white-space: pre;" direction="ltr" dominant-baseline="alphabetic">🎯 5. Engajar</text><text x="200" y="42.3603515625" font-family="Helvetica, Segoe UI Emoji" font-size="18px" fill="#374151" text-anchor="middle" style="white-space: pre;" direction="ltr" dominant-baseline="alphabetic">Faça o trabalho (usando contexto, tempo e energia)</text></g></svg>