<svg version="1.1" xmlns="http://www.w3.org/2000/svg" viewBox="0 0 1106.1574074074074 682.5478339253449" width="1106.1574074074074" height="682.5478339253449"><!-- svg-source:excalidraw --><metadata></metadata><defs><style class="style-fonts">
      </style></defs><rect x="0" y="0" width="1106.1574074074074" height="682.5478339253449" fill="#f8fafc"></rect><g transform="translate(285.1583543771043 5) rotate(0 265.37668350168354 22.421401515151516)"><text x="265.37668350168354" y="31.83907135729035" font-family="Helvetica, Segoe UI Emoji" font-size="34.87773569023569px" fill="#1e293b" text-anchor="middle" style="white-space: pre;" direction="ltr" dominant-baseline="alphabetic">🎓 Técnica Feynman - 4 Etapas</text></g><g stroke-linecap="round" transform="translate(5 104.55646187147283) rotate(0 236.67034932659934 112.10700757575756)"><path d="M10 0 C139.82 0, 269.65 0, 463.34 0 C470.01 0, 473.34 3.33, 473.34 10 C473.34 65.89, 473.34 121.79, 473.34 214.21 C473.34 220.88, 470.01 224.21, 463.34 224.21 C305.39 224.21, 147.43 224.21, 10 224.21 C3.33 224.21, 0 220.88, 0 214.21 C0 139.07, 0 63.92, 0 10 C0 3.33, 3.33 0, 10 0" stroke="none" stroke-width="0" fill="#eff6ff"></path><path d="M10 0 C120.85 0, 231.7 0, 463.34 0 M10 0 C138.19 0, 266.38 0, 463.34 0 M463.34 0 C470.01 0, 473.34 3.33, 473.34 10 M463.34 0 C470.01 0, 473.34 3.33, 473.34 10 M473.34 10 C473.34 72.86, 473.34 135.73, 473.34 214.21 M473.34 10 C473.34 60.47, 473.34 110.94, 473.34 214.21 M473.34 214.21 C473.34 220.88, 470.01 224.21, 463.34 224.21 M473.34 214.21 C473.34 220.88, 470.01 224.21, 463.34 224.21 M463.34 224.21 C287.05 224.21, 110.77 224.21, 10 224.21 M463.34 224.21 C348.69 224.21, 234.03 224.21, 10 224.21 M10 224.21 C3.33 224.21, 0 220.88, 0 214.21 M10 224.21 C3.33 224.21, 0 220.88, 0 214.21 M0 214.21 C0 135.42, 0 56.62, 0 10 M0 214.21 C0 157.47, 0 100.73, 0 10 M0 10 C0 3.33, 3.33 0, 10 0 M0 10 C0 3.33, 3.33 0, 10 0" stroke="#3b82f6" stroke-width="2" fill="none"></path></g><g transform="translate(29.912668350168218 129.4691302216412) rotate(0 211.757680976431 80.96617213804714)"><text x="0" y="19.548578350097113" font-family="Helvetica, Segoe UI Emoji" font-size="22.42140151515152px" fill="#1e40af" text-anchor="start" style="white-space: pre;" direction="ltr" dominant-baseline="alphabetic">1. Escolha o Conceito</text><text x="0" y="46.537302396112835" font-family="Helvetica, Segoe UI Emoji" font-size="22.42140151515152px" fill="#1e40af" text-anchor="start" style="white-space: pre;" direction="ltr" dominant-baseline="alphabetic"></text><text x="0" y="73.52602644212855" font-family="Helvetica, Segoe UI Emoji" font-size="22.42140151515152px" fill="#1e40af" text-anchor="start" style="white-space: pre;" direction="ltr" dominant-baseline="alphabetic">Escreva o nome do tópico no topo</text><text x="0" y="100.51475048814427" font-family="Helvetica, Segoe UI Emoji" font-size="22.42140151515152px" fill="#1e40af" text-anchor="start" style="white-space: pre;" direction="ltr" dominant-baseline="alphabetic">de uma página em branco. Estude</text><text x="0" y="127.50347453415999" font-family="Helvetica, Segoe UI Emoji" font-size="22.42140151515152px" fill="#1e40af" text-anchor="start" style="white-space: pre;" direction="ltr" dominant-baseline="alphabetic">o assunto até entender os</text><text x="0" y="154.49219858017568" font-family="Helvetica, Segoe UI Emoji" font-size="22.42140151515152px" fill="#1e40af" text-anchor="start" style="white-space: pre;" direction="ltr" dominant-baseline="alphabetic">fundamentos básicos.</text></g><g stroke-linecap="round" transform="translate(627.8167087542088 104.55646187147283) rotate(0 236.6703493265993 112.10700757575756)"><path d="M10 0 C157.94 0, 305.89 0, 463.34 0 C470.01 0, 473.34 3.33, 473.34 10 C473.34 76.25, 473.34 142.5, 473.34 214.21 C473.34 220.88, 470.01 224.21, 463.34 224.21 C363.94 224.21, 264.53 224.21, 10 224.21 C3.33 224.21, 0 220.88, 0 214.21 C0 162.25, 0 110.28, 0 10 C0 3.33, 3.33 0, 10 0" stroke="none" stroke-width="0" fill="#fffbeb"></path><path d="M10 0 C120.85 0, 231.71 0, 463.34 0 M10 0 C112.8 0, 215.59 0, 463.34 0 M463.34 0 C470.01 0, 473.34 3.33, 473.34 10 M463.34 0 C470.01 0, 473.34 3.33, 473.34 10 M473.34 10 C473.34 80.01, 473.34 150.03, 473.34 214.21 M473.34 10 C473.34 56.19, 473.34 102.38, 473.34 214.21 M473.34 214.21 C473.34 220.88, 470.01 224.21, 463.34 224.21 M473.34 214.21 C473.34 220.88, 470.01 224.21, 463.34 224.21 M463.34 224.21 C363.51 224.21, 263.68 224.21, 10 224.21 M463.34 224.21 C334.34 224.21, 205.34 224.21, 10 224.21 M10 224.21 C3.33 224.21, 0 220.88, 0 214.21 M10 224.21 C3.33 224.21, 0 220.88, 0 214.21 M0 214.21 C0 140.8, 0 67.39, 0 10 M0 214.21 C0 167.11, 0 120, 0 10 M0 10 C0 3.33, 3.33 0, 10 0 M0 10 C0 3.33, 3.33 0, 10 0" stroke="#f59e0b" stroke-width="2" fill="none"></path></g><g transform="translate(652.729377104377 129.4691302216412) rotate(0 211.757680976431 80.96617213804714)"><text x="0" y="19.548578350097113" font-family="Helvetica, Segoe UI Emoji" font-size="22.42140151515152px" fill="#92400e" text-anchor="start" style="white-space: pre;" direction="ltr" dominant-baseline="alphabetic">2. Explique a uma Criança</text><text x="0" y="46.537302396112835" font-family="Helvetica, Segoe UI Emoji" font-size="22.42140151515152px" fill="#92400e" text-anchor="start" style="white-space: pre;" direction="ltr" dominant-baseline="alphabetic"></text><text x="0" y="73.52602644212855" font-family="Helvetica, Segoe UI Emoji" font-size="22.42140151515152px" fill="#92400e" text-anchor="start" style="white-space: pre;" direction="ltr" dominant-baseline="alphabetic">Finja que está ensinando o tema</text><text x="0" y="100.51475048814427" font-family="Helvetica, Segoe UI Emoji" font-size="22.42140151515152px" fill="#92400e" text-anchor="start" style="white-space: pre;" direction="ltr" dominant-baseline="alphabetic">para uma criança de 8-10 anos.</text><text x="0" y="127.50347453415999" font-family="Helvetica, Segoe UI Emoji" font-size="22.42140151515152px" fill="#92400e" text-anchor="start" style="white-space: pre;" direction="ltr" dominant-baseline="alphabetic">Use linguagem simples, evite</text><text x="0" y="154.49219858017568" font-family="Helvetica, Segoe UI Emoji" font-size="22.42140151515152px" fill="#92400e" text-anchor="start" style="white-space: pre;" direction="ltr" dominant-baseline="alphabetic">jargões técnicos e seja breve.</text></g><g stroke-linecap="round" transform="translate(5 453.3338187738297) rotate(0 236.67034932659934 112.10700757575759)"><path d="M10 0 C176.06 0, 342.13 0, 463.34 0 C470.01 0, 473.34 3.33, 473.34 10 C473.34 86.61, 473.34 163.21, 473.34 214.21 C473.34 220.88, 470.01 224.21, 463.34 224.21 C331.82 224.21, 200.3 224.21, 10 224.21 C3.33 224.21, 0 220.88, 0 214.21 C0 144.59, 0 74.96, 0 10 C0 3.33, 3.33 0, 10 0" stroke="none" stroke-width="0" fill="#fef2f2"></path><path d="M10 0 C120.86 0, 231.71 0, 463.34 0 M10 0 C178.07 0, 346.14 0, 463.34 0 M463.34 0 C470.01 0, 473.34 3.33, 473.34 10 M463.34 0 C470.01 0, 473.34 3.33, 473.34 10 M473.34 10 C473.34 87.16, 473.34 164.32, 473.34 214.21 M473.34 10 C473.34 51.91, 473.34 93.83, 473.34 214.21 M473.34 214.21 C473.34 220.88, 470.01 224.21, 463.34 224.21 M473.34 214.21 C473.34 220.88, 470.01 224.21, 463.34 224.21 M463.34 224.21 C349.3 224.21, 235.26 224.21, 10 224.21 M463.34 224.21 C320 224.21, 176.65 224.21, 10 224.21 M10 224.21 C3.33 224.21, 0 220.88, 0 214.21 M10 224.21 C3.33 224.21, 0 220.88, 0 214.21 M0 214.21 C0 146.19, 0 78.17, 0 10 M0 214.21 C0 135.89, 0 57.57, 0 10 M0 10 C0 3.33, 3.33 0, 10 0 M0 10 C0 3.33, 3.33 0, 10 0" stroke="#ef4444" stroke-width="2" fill="none"></path></g><g transform="translate(29.912668350168218 478.2464871239981) rotate(0 211.757680976431 80.96617213804717)"><text x="0" y="19.548578350097113" font-family="Helvetica, Segoe UI Emoji" font-size="22.42140151515152px" fill="#991b1b" text-anchor="start" style="white-space: pre;" direction="ltr" dominant-baseline="alphabetic">3. Identifique Lacunas</text><text x="0" y="46.537302396112835" font-family="Helvetica, Segoe UI Emoji" font-size="22.42140151515152px" fill="#991b1b" text-anchor="start" style="white-space: pre;" direction="ltr" dominant-baseline="alphabetic"></text><text x="0" y="73.52602644212855" font-family="Helvetica, Segoe UI Emoji" font-size="22.42140151515152px" fill="#991b1b" text-anchor="start" style="white-space: pre;" direction="ltr" dominant-baseline="alphabetic">Onde você travou? Onde a sua</text><text x="0" y="100.51475048814427" font-family="Helvetica, Segoe UI Emoji" font-size="22.42140151515152px" fill="#991b1b" text-anchor="start" style="white-space: pre;" direction="ltr" dominant-baseline="alphabetic">explicação ficou confusa? Volte</text><text x="0" y="127.50347453415999" font-family="Helvetica, Segoe UI Emoji" font-size="22.42140151515152px" fill="#991b1b" text-anchor="start" style="white-space: pre;" direction="ltr" dominant-baseline="alphabetic">ao material de estudo original e</text><text x="0" y="154.49219858017568" font-family="Helvetica, Segoe UI Emoji" font-size="22.42140151515152px" fill="#991b1b" text-anchor="start" style="white-space: pre;" direction="ltr" dominant-baseline="alphabetic">reaprenda esses pontos cegos.</text></g><g stroke-linecap="round" transform="translate(627.8167087542088 453.3338187738297) rotate(0 236.6703493265993 112.10700757575759)"><path d="M10 0 C103.51 0, 197.03 0, 463.34 0 C470.01 0, 473.34 3.33, 473.34 10 C473.34 56.12, 473.34 102.24, 473.34 214.21 C473.34 220.88, 470.01 224.21, 463.34 224.21 C299.7 224.21, 136.07 224.21, 10 224.21 C3.33 224.21, 0 220.88, 0 214.21 C0 167.77, 0 121.32, 0 10 C0 3.33, 3.33 0, 10 0" stroke="none" stroke-width="0" fill="#ecfdf5"></path><path d="M10 0 C120.86 0, 231.72 0, 463.34 0 M10 0 C152.68 0, 295.36 0, 463.34 0 M463.34 0 C470.01 0, 473.34 3.33, 473.34 10 M463.34 0 C470.01 0, 473.34 3.33, 473.34 10 M473.34 10 C473.34 53.47, 473.34 96.93, 473.34 214.21 M473.34 10 C473.34 88.48, 473.34 166.95, 473.34 214.21 M473.34 214.21 C473.34 220.88, 470.01 224.21, 463.34 224.21 M473.34 214.21 C473.34 220.88, 470.01 224.21, 463.34 224.21 M463.34 224.21 C335.09 224.21, 206.84 224.21, 10 224.21 M463.34 224.21 C305.65 224.21, 147.97 224.21, 10 224.21 M10 224.21 C3.33 224.21, 0 220.88, 0 214.21 M10 224.21 C3.33 224.21, 0 220.88, 0 214.21 M0 214.21 C0 151.58, 0 88.94, 0 10 M0 214.21 C0 145.53, 0 76.84, 0 10 M0 10 C0 3.33, 3.33 0, 10 0 M0 10 C0 3.33, 3.33 0, 10 0" stroke="#10b981" stroke-width="2" fill="none"></path></g><g transform="translate(652.729377104377 478.2464871239981) rotate(0 211.757680976431 80.96617213804717)"><text x="0" y="19.548578350097113" font-family="Helvetica, Segoe UI Emoji" font-size="22.42140151515152px" fill="#065f46" text-anchor="start" style="white-space: pre;" direction="ltr" dominant-baseline="alphabetic">4. Revise e Simplifique</text><text x="0" y="46.537302396112835" font-family="Helvetica, Segoe UI Emoji" font-size="22.42140151515152px" fill="#065f46" text-anchor="start" style="white-space: pre;" direction="ltr" dominant-baseline="alphabetic"></text><text x="0" y="73.52602644212855" font-family="Helvetica, Segoe UI Emoji" font-size="22.42140151515152px" fill="#065f46" text-anchor="start" style="white-space: pre;" direction="ltr" dominant-baseline="alphabetic">Refine sua explicação. Crie</text><text x="0" y="100.51475048814427" font-family="Helvetica, Segoe UI Emoji" font-size="22.42140151515152px" fill="#065f46" text-anchor="start" style="white-space: pre;" direction="ltr" dominant-baseline="alphabetic">analogias poderosas e conecte</text><text x="0" y="127.50347453415999" font-family="Helvetica, Segoe UI Emoji" font-size="22.42140151515152px" fill="#065f46" text-anchor="start" style="white-space: pre;" direction="ltr" dominant-baseline="alphabetic">os fatos. Leia em voz alta para</text><text x="0" y="154.49219858017568" font-family="Helvetica, Segoe UI Emoji" font-size="22.42140151515152px" fill="#065f46" text-anchor="start" style="white-space: pre;" direction="ltr" dominant-baseline="alphabetic">garantir que a narrativa flua.</text></g><g stroke-linecap="round"><g transform="translate(478.3406986531986 216.6634694472304) rotate(0 74.73800505050508 0)"><path d="M0 0 C36.55 0, 73.11 0, 149.48 0 M0 0 C38.67 0, 77.34 0, 149.48 0" stroke="#64748b" stroke-width="2" fill="none"></path></g><g transform="translate(478.3406986531986 216.6634694472304) rotate(0 74.73800505050508 0)"><path d="M125.98 8.55 C131.73 6.46, 137.47 4.37, 149.48 0 M125.98 8.55 C132.06 6.34, 138.14 4.13, 149.48 0" stroke="#64748b" stroke-width="2" fill="none"></path></g><g transform="translate(478.3406986531986 216.6634694472304) rotate(0 74.73800505050508 0)"><path d="M125.98 -8.55 C131.73 -6.46, 137.47 -4.37, 149.48 0 M125.98 -8.55 C132.06 -6.34, 138.14 -4.13, 149.48 0" stroke="#64748b" stroke-width="2" fill="none"></path></g></g><mask></mask><g stroke-linecap="round"><g transform="translate(864.4870580808081 328.770477022988) rotate(0 -311.4083543771044 62.28167087542087)"><path d="M0 0 C0 15.23, 0 30.46, 0 62.28 M0 0 C0 20.6, 0 41.19, 0 62.28 M0 62.28 C-129.27 62.28, -258.54 62.28, -622.82 62.28 M0 62.28 C-134.41 62.28, -268.82 62.28, -622.82 62.28 M-622.82 62.28 C-622.82 84.36, -622.82 106.43, -622.82 124.56 M-622.82 62.28 C-622.82 77.94, -622.82 93.6, -622.82 124.56" stroke="#64748b" stroke-width="2" fill="none"></path></g><g transform="translate(864.4870580808081 328.770477022988) rotate(0 -311.4083543771044 62.28167087542087)"><path d="M-631.37 101.07 C-629.28 106.82, -627.19 112.56, -622.82 124.56 M-631.37 101.07 C-628.54 108.84, -625.71 116.61, -622.82 124.56" stroke="#64748b" stroke-width="2" fill="none"></path></g><g transform="translate(864.4870580808081 328.770477022988) rotate(0 -311.4083543771044 62.28167087542087)"><path d="M-614.27 101.07 C-616.36 106.82, -618.45 112.56, -622.82 124.56 M-614.27 101.07 C-617.09 108.84, -619.92 116.61, -622.82 124.56" stroke="#64748b" stroke-width="2" fill="none"></path></g></g><mask></mask><g stroke-linecap="round"><g transform="translate(478.3406986531986 565.4408263495873) rotate(0 74.73800505050508 0)"><path d="M0 0 C36.56 0, 73.11 0, 149.48 0 M0 0 C30.3 0, 60.6 0, 149.48 0" stroke="#64748b" stroke-width="2" fill="none"></path></g><g transform="translate(478.3406986531986 565.4408263495873) rotate(0 74.73800505050508 0)"><path d="M125.98 8.55 C131.73 6.46, 137.47 4.37, 149.48 0 M125.98 8.55 C130.75 6.82, 135.51 5.08, 149.48 0" stroke="#64748b" stroke-width="2" fill="none"></path></g><g transform="translate(478.3406986531986 565.4408263495873) rotate(0 74.73800505050508 0)"><path d="M125.98 -8.55 C131.73 -6.46, 137.47 -4.37, 149.48 0 M125.98 -8.55 C130.75 -6.82, 135.51 -5.08, 149.48 0" stroke="#64748b" stroke-width="2" fill="none"></path></g></g><mask></mask></svg>