<svg version="1.1" xmlns="http://www.w3.org/2000/svg" viewBox="0 0 1050 540" width="1050" height="540"><!-- svg-source:excalidraw --><metadata></metadata><defs><style class="style-fonts">
      </style></defs><rect x="0" y="0" width="1050" height="540" fill="#ffffff"></rect><g transform="translate(195 5) rotate(0 350 20)"><text x="350" y="27.560546875" font-family="Helvetica, Segoe UI Emoji" font-size="28px" fill="#0f172a" text-anchor="middle" style="white-space: pre;" direction="ltr" dominant-baseline="alphabetic">🎭 Arco do Personagem &amp; Mapa de Relacionamentos</text></g><g stroke-linecap="round"><g transform="translate(5 295) rotate(0 520 0)"><path d="M0 0 C212.68 0, 425.37 0, 1040 0 M0 0 C351.32 0, 702.63 0, 1040 0" stroke="#94a3b8" stroke-width="4" fill="none"></path></g><g transform="translate(5 295) rotate(0 520 0)"><path d="M1016.51 8.55 C1021.31 6.8, 1026.12 5.05, 1040 0 M1016.51 8.55 C1024.44 5.66, 1032.38 2.77, 1040 0" stroke="#94a3b8" stroke-width="4" fill="none"></path></g><g transform="translate(5 295) rotate(0 520 0)"><path d="M1016.51 -8.55 C1021.31 -6.8, 1026.12 -5.05, 1040 0 M1016.51 -8.55 C1024.44 -5.66, 1032.38 -2.77, 1040 0" stroke="#94a3b8" stroke-width="4" fill="none"></path></g></g><mask></mask><g transform="translate(5 105) rotate(0 100 10)"><text x="0" y="14.3203125" font-family="Helvetica, Segoe UI Emoji" font-size="16px" fill="#4f46e5" text-anchor="start" style="white-space: pre;" direction="ltr" dominant-baseline="alphabetic">🧠 JORNADA INTERNA</text></g><g transform="translate(5 515) rotate(0 125 10)"><text x="0" y="14.3203125" font-family="Helvetica, Segoe UI Emoji" font-size="16px" fill="#c026d3" text-anchor="start" style="white-space: pre;" direction="ltr" dominant-baseline="alphabetic">👥 IMPACTO DAS RELAÇÕES</text></g><g stroke-linecap="round" transform="translate(45 145) rotate(0 100 45)"><path d="M8 0 C45.34 0, 82.67 0, 192 0 C197.33 0, 200 2.67, 200 8 C200 24.04, 200 40.09, 200 82 C200 87.33, 197.33 90, 192 90 C136.87 90, 81.75 90, 8 90 C2.67 90, 0 87.33, 0 82 C0 66.62, 0 51.24, 0 8 C0 2.67, 2.67 0, 8 0" stroke="none" stroke-width="0" fill="#e0e7ff"></path><path d="M8 0 C45.71 0, 83.42 0, 192 0 M8 0 C56.8 0, 105.59 0, 192 0 M192 0 C197.33 0, 200 2.67, 200 8 M192 0 C197.33 0, 200 2.67, 200 8 M200 8 C200 27.98, 200 47.97, 200 82 M200 8 C200 27.52, 200 47.04, 200 82 M200 82 C200 87.33, 197.33 90, 192 90 M200 82 C200 87.33, 197.33 90, 192 90 M192 90 C145.01 90, 98.01 90, 8 90 M192 90 C151.85 90, 111.71 90, 8 90 M8 90 C2.67 90, 0 87.33, 0 82 M8 90 C2.67 90, 0 87.33, 0 82 M0 82 C0 54.1, 0 26.2, 0 8 M0 82 C0 57.23, 0 32.46, 0 8 M0 8 C0 2.67, 2.67 0, 8 0 M0 8 C0 2.67, 2.67 0, 8 0" stroke="#4f46e5" stroke-width="2" fill="none"></path></g><g transform="translate(55 170) rotate(0 90 20)"><text x="90" y="14.3203125" font-family="Helvetica, Segoe UI Emoji" font-size="16px" fill="#312e81" text-anchor="middle" style="white-space: pre;" direction="ltr" dominant-baseline="alphabetic">1. A Mentira</text><text x="90" y="34.3203125" font-family="Helvetica, Segoe UI Emoji" font-size="16px" fill="#312e81" text-anchor="middle" style="white-space: pre;" direction="ltr" dominant-baseline="alphabetic">(Crença Limitante)</text></g><g stroke-linecap="round" transform="translate(45 385) rotate(0 100 50)"><path d="M8 0 C52.69 0, 97.38 0, 192 0 C197.33 0, 200 2.67, 200 8 C200 30.47, 200 52.94, 200 92 C200 97.33, 197.33 100, 192 100 C123.84 100, 55.68 100, 8 100 C2.67 100, 0 97.33, 0 92 C0 67.28, 0 42.55, 0 8 C0 2.67, 2.67 0, 8 0" stroke="none" stroke-width="0" fill="#fae8ff"></path><path d="M8 0 C45.71 0, 83.42 0, 192 0 M8 0 C46.49 0, 84.98 0, 192 0 M192 0 C197.33 0, 200 2.67, 200 8 M192 0 C197.33 0, 200 2.67, 200 8 M200 8 C200 33.62, 200 59.25, 200 92 M200 8 C200 28.4, 200 48.79, 200 92 M200 92 C200 97.33, 197.33 100, 192 100 M200 92 C200 97.33, 197.33 100, 192 100 M192 100 C139.24 100, 86.48 100, 8 100 M192 100 C146.03 100, 100.06 100, 8 100 M8 100 C2.67 100, 0 97.33, 0 92 M8 100 C2.67 100, 0 97.33, 0 92 M0 92 C0 62.54, 0 33.09, 0 8 M0 92 C0 67.84, 0 43.69, 0 8 M0 8 C0 2.67, 2.67 0, 8 0 M0 8 C0 2.67, 2.67 0, 8 0" stroke="#c026d3" stroke-width="2" fill="none"></path></g><g transform="translate(50 410) rotate(0 95 25)"><text x="95" y="12.113606770833334" font-family="Helvetica, Segoe UI Emoji" font-size="14px" fill="#701a75" text-anchor="middle" style="white-space: pre;" direction="ltr" dominant-baseline="alphabetic">⚓ Personagem Âncora:</text><text x="95" y="28.7802734375" font-family="Helvetica, Segoe UI Emoji" font-size="14px" fill="#701a75" text-anchor="middle" style="white-space: pre;" direction="ltr" dominant-baseline="alphabetic">Alguém que reforça</text><text x="95" y="45.44694010416667" font-family="Helvetica, Segoe UI Emoji" font-size="14px" fill="#701a75" text-anchor="middle" style="white-space: pre;" direction="ltr" dominant-baseline="alphabetic">a zona de conforto.</text></g><g stroke-linecap="round"><g transform="translate(145 235) rotate(0 0 75)"><path d="M0 0 C0 30.75, 0 61.49, 0 150 M0 0 C0 52.98, 0 105.95, 0 150" stroke="#cbd5e1" stroke-width="2" fill="none"></path></g></g><mask></mask><g stroke-linecap="round" transform="translate(295 145) rotate(0 100 45)"><path d="M8 0 C45.05 0, 82.1 0, 192 0 C197.33 0, 200 2.67, 200 8 C200 34.08, 200 60.15, 200 82 C200 87.33, 197.33 90, 192 90 C147.51 90, 103.02 90, 8 90 C2.67 90, 0 87.33, 0 82 C0 57.44, 0 32.88, 0 8 C0 2.67, 2.67 0, 8 0" stroke="none" stroke-width="0" fill="#e0e7ff"></path><path d="M8 0 C45.79 0, 83.59 0, 192 0 M8 0 C56.68 0, 105.36 0, 192 0 M192 0 C197.33 0, 200 2.67, 200 8 M192 0 C197.33 0, 200 2.67, 200 8 M200 8 C200 24.3, 200 40.6, 200 82 M200 8 C200 23.98, 200 39.96, 200 82 M200 82 C200 87.33, 197.33 90, 192 90 M200 82 C200 87.33, 197.33 90, 192 90 M192 90 C151.03 90, 110.07 90, 8 90 M192 90 C155.16 90, 118.32 90, 8 90 M8 90 C2.67 90, 0 87.33, 0 82 M8 90 C2.67 90, 0 87.33, 0 82 M0 82 C0 62.91, 0 43.82, 0 8 M0 82 C0 54.15, 0 26.29, 0 8 M0 8 C0 2.67, 2.67 0, 8 0 M0 8 C0 2.67, 2.67 0, 8 0" stroke="#4f46e5" stroke-width="2" fill="none"></path></g><g transform="translate(305 170) rotate(0 90 20)"><text x="90" y="14.3203125" font-family="Helvetica, Segoe UI Emoji" font-size="16px" fill="#312e81" text-anchor="middle" style="white-space: pre;" direction="ltr" dominant-baseline="alphabetic">2. O Despertar</text><text x="90" y="34.3203125" font-family="Helvetica, Segoe UI Emoji" font-size="16px" fill="#312e81" text-anchor="middle" style="white-space: pre;" direction="ltr" dominant-baseline="alphabetic">(Fissura na Crença)</text></g><g stroke-linecap="round" transform="translate(295 385) rotate(0 100 50)"><path d="M8 0 C52.41 0, 96.81 0, 192 0 C197.33 0, 200 2.67, 200 8 C200 25.06, 200 42.12, 200 92 C200 97.33, 197.33 100, 192 100 C134.47 100, 76.95 100, 8 100 C2.67 100, 0 97.33, 0 92 C0 73.66, 0 55.31, 0 8 C0 2.67, 2.67 0, 8 0" stroke="none" stroke-width="0" fill="#fae8ff"></path><path d="M8 0 C45.8 0, 83.59 0, 192 0 M8 0 C46.38 0, 84.75 0, 192 0 M192 0 C197.33 0, 200 2.67, 200 8 M192 0 C197.33 0, 200 2.67, 200 8 M200 8 C200 29.44, 200 50.89, 200 92 M200 8 C200 41.18, 200 74.36, 200 92 M200 92 C200 97.33, 197.33 100, 192 100 M200 92 C200 97.33, 197.33 100, 192 100 M192 100 C145.27 100, 98.53 100, 8 100 M192 100 C149.34 100, 106.68 100, 8 100 M8 100 C2.67 100, 0 97.33, 0 92 M8 100 C2.67 100, 0 97.33, 0 92 M0 92 C0 72.54, 0 53.09, 0 8 M0 92 C0 64.34, 0 36.69, 0 8 M0 8 C0 2.67, 2.67 0, 8 0 M0 8 C0 2.67, 2.67 0, 8 0" stroke="#c026d3" stroke-width="2" fill="none"></path></g><g transform="translate(300 410) rotate(0 95 25)"><text x="95" y="12.113606770833334" font-family="Helvetica, Segoe UI Emoji" font-size="14px" fill="#701a75" text-anchor="middle" style="white-space: pre;" direction="ltr" dominant-baseline="alphabetic">🧙‍♂️ Mentor / Arauto:</text><text x="95" y="28.7802734375" font-family="Helvetica, Segoe UI Emoji" font-size="14px" fill="#701a75" text-anchor="middle" style="white-space: pre;" direction="ltr" dominant-baseline="alphabetic">Instiga a mudança e</text><text x="95" y="45.44694010416667" font-family="Helvetica, Segoe UI Emoji" font-size="14px" fill="#701a75" text-anchor="middle" style="white-space: pre;" direction="ltr" dominant-baseline="alphabetic">mostra outro caminho.</text></g><g stroke-linecap="round"><g transform="translate(395 235) rotate(0 0 75)"><path d="M0 0 C0 30.81, 0 61.63, 0 150 M0 0 C0 52.88, 0 105.76, 0 150" stroke="#cbd5e1" stroke-width="2" fill="none"></path></g></g><mask></mask><g stroke-linecap="round" transform="translate(545 145) rotate(0 100 45)"><path d="M8 0 C81.57 0, 155.13 0, 192 0 C197.33 0, 200 2.67, 200 8 C200 29.31, 200 50.62, 200 82 C200 87.33, 197.33 90, 192 90 C121.35 90, 50.69 90, 8 90 C2.67 90, 0 87.33, 0 82 C0 63.06, 0 44.12, 0 8 C0 2.67, 2.67 0, 8 0" stroke="none" stroke-width="0" fill="#e0e7ff"></path><path d="M8 0 C45.88 0, 83.75 0, 192 0 M8 0 C56.57 0, 105.14 0, 192 0 M192 0 C197.33 0, 200 2.67, 200 8 M192 0 C197.33 0, 200 2.67, 200 8 M200 8 C200 35.42, 200 62.83, 200 82 M200 8 C200 35.24, 200 62.49, 200 82 M200 82 C200 87.33, 197.33 90, 192 90 M200 82 C200 87.33, 197.33 90, 192 90 M192 90 C120.26 90, 48.52 90, 8 90 M192 90 C121.67 90, 51.33 90, 8 90 M8 90 C2.67 90, 0 87.33, 0 82 M8 90 C2.67 90, 0 87.33, 0 82 M0 82 C0 56.92, 0 31.84, 0 8 M0 82 C0 65.86, 0 49.72, 0 8 M0 8 C0 2.67, 2.67 0, 8 0 M0 8 C0 2.67, 2.67 0, 8 0" stroke="#4f46e5" stroke-width="2" fill="none"></path></g><g transform="translate(555 170) rotate(0 90 20)"><text x="90" y="14.3203125" font-family="Helvetica, Segoe UI Emoji" font-size="16px" fill="#312e81" text-anchor="middle" style="white-space: pre;" direction="ltr" dominant-baseline="alphabetic">3. A Luta</text><text x="90" y="34.3203125" font-family="Helvetica, Segoe UI Emoji" font-size="16px" fill="#312e81" text-anchor="middle" style="white-space: pre;" direction="ltr" dominant-baseline="alphabetic">(Velho vs. Novo "Eu")</text></g><g stroke-linecap="round" transform="translate(545 385) rotate(0 100 50)"><path d="M8 0 C52.12 0, 96.24 0, 192 0 C197.33 0, 200 2.67, 200 8 C200 36.45, 200 64.9, 200 92 C200 97.33, 197.33 100, 192 100 C145.11 100, 98.22 100, 8 100 C2.67 100, 0 97.33, 0 92 C0 63.23, 0 34.47, 0 8 C0 2.67, 2.67 0, 8 0" stroke="none" stroke-width="0" fill="#fae8ff"></path><path d="M8 0 C45.88 0, 83.76 0, 192 0 M8 0 C46.26 0, 84.52 0, 192 0 M192 0 C197.33 0, 200 2.67, 200 8 M192 0 C197.33 0, 200 2.67, 200 8 M200 8 C200 25.26, 200 42.52, 200 92 M200 8 C200 37.17, 200 66.33, 200 92 M200 92 C200 97.33, 197.33 100, 192 100 M200 92 C200 97.33, 197.33 100, 192 100 M192 100 C151.29 100, 110.58 100, 8 100 M192 100 C152.64 100, 113.29 100, 8 100 M8 100 C2.67 100, 0 97.33, 0 92 M8 100 C2.67 100, 0 97.33, 0 92 M0 92 C0 65.75, 0 39.49, 0 8 M0 92 C0 60.84, 0 29.69, 0 8 M0 8 C0 2.67, 2.67 0, 8 0 M0 8 C0 2.67, 2.67 0, 8 0" stroke="#c026d3" stroke-width="2" fill="none"></path></g><g transform="translate(550 400) rotate(0 95 35)"><text x="95" y="12.5302734375" font-family="Helvetica, Segoe UI Emoji" font-size="14px" fill="#701a75" text-anchor="middle" style="white-space: pre;" direction="ltr" dominant-baseline="alphabetic">⚔️ Antagonista testa;</text><text x="95" y="30.0302734375" font-family="Helvetica, Segoe UI Emoji" font-size="14px" fill="#701a75" text-anchor="middle" style="white-space: pre;" direction="ltr" dominant-baseline="alphabetic">🤝 Aliado/Romance</text><text x="95" y="47.5302734375" font-family="Helvetica, Segoe UI Emoji" font-size="14px" fill="#701a75" text-anchor="middle" style="white-space: pre;" direction="ltr" dominant-baseline="alphabetic">dá suporte e cobra a</text><text x="95" y="65.0302734375" font-family="Helvetica, Segoe UI Emoji" font-size="14px" fill="#701a75" text-anchor="middle" style="white-space: pre;" direction="ltr" dominant-baseline="alphabetic">nova postura.</text></g><g stroke-linecap="round"><g transform="translate(645 235) rotate(0 0 75)"><path d="M0 0 C0 30.88, 0 61.76, 0 150 M0 0 C0 52.79, 0 105.58, 0 150" stroke="#cbd5e1" stroke-width="2" fill="none"></path></g></g><mask></mask><g stroke-linecap="round" transform="translate(795 145) rotate(0 100 45)"><path d="M8 0 C81.28 0, 154.56 0, 192 0 C197.33 0, 200 2.67, 200 8 C200 24.54, 200 41.09, 200 82 C200 87.33, 197.33 90, 192 90 C131.98 90, 71.96 90, 8 90 C2.67 90, 0 87.33, 0 82 C0 53.88, 0 25.76, 0 8 C0 2.67, 2.67 0, 8 0" stroke="none" stroke-width="0" fill="#d1fae5"></path><path d="M8 0 C45.96 0, 83.92 0, 192 0 M8 0 C56.45 0, 104.91 0, 192 0 M192 0 C197.33 0, 200 2.67, 200 8 M192 0 C197.33 0, 200 2.67, 200 8 M200 8 C200 31.73, 200 55.47, 200 82 M200 8 C200 31.71, 200 55.41, 200 82 M200 82 C200 87.33, 197.33 90, 192 90 M200 82 C200 87.33, 197.33 90, 192 90 M192 90 C126.29 90, 60.57 90, 8 90 M192 90 C124.97 90, 57.94 90, 8 90 M8 90 C2.67 90, 0 87.33, 0 82 M8 90 C2.67 90, 0 87.33, 0 82 M0 82 C0 65.73, 0 49.46, 0 8 M0 82 C0 62.78, 0 43.56, 0 8 M0 8 C0 2.67, 2.67 0, 8 0 M0 8 C0 2.67, 2.67 0, 8 0" stroke="#10b981" stroke-width="2" fill="none"></path></g><g transform="translate(805 170) rotate(0 90 20)"><text x="90" y="14.3203125" font-family="Helvetica, Segoe UI Emoji" font-size="16px" fill="#064e3b" text-anchor="middle" style="white-space: pre;" direction="ltr" dominant-baseline="alphabetic">4. A Transformação</text><text x="90" y="34.3203125" font-family="Helvetica, Segoe UI Emoji" font-size="16px" fill="#064e3b" text-anchor="middle" style="white-space: pre;" direction="ltr" dominant-baseline="alphabetic">(Aceitação da Verdade)</text></g><g stroke-linecap="round" transform="translate(795 385) rotate(0 100 50)"><path d="M8 0 C51.83 0, 95.67 0, 192 0 C197.33 0, 200 2.67, 200 8 C200 31.04, 200 54.08, 200 92 C200 97.33, 197.33 100, 192 100 C118.95 100, 45.89 100, 8 100 C2.67 100, 0 97.33, 0 92 C0 69.61, 0 47.23, 0 8 C0 2.67, 2.67 0, 8 0" stroke="none" stroke-width="0" fill="#d1fae5"></path><path d="M8 0 C45.96 0, 83.92 0, 192 0 M8 0 C46.15 0, 84.3 0, 192 0 M192 0 C197.33 0, 200 2.67, 200 8 M192 0 C197.33 0, 200 2.67, 200 8 M200 8 C200 37.88, 200 67.76, 200 92 M200 8 C200 33.15, 200 58.3, 200 92 M200 92 C200 97.33, 197.33 100, 192 100 M200 92 C200 97.33, 197.33 100, 192 100 M192 100 C120.52 100, 49.04 100, 8 100 M192 100 C119.15 100, 46.3 100, 8 100 M8 100 C2.67 100, 0 97.33, 0 92 M8 100 C2.67 100, 0 97.33, 0 92 M0 92 C0 58.95, 0 25.9, 0 8 M0 92 C0 74.14, 0 56.29, 0 8 M0 8 C0 2.67, 2.67 0, 8 0 M0 8 C0 2.67, 2.67 0, 8 0" stroke="#10b981" stroke-width="2" fill="none"></path></g><g transform="translate(800 410) rotate(0 95 25)"><text x="95" y="12.113606770833334" font-family="Helvetica, Segoe UI Emoji" font-size="14px" fill="#064e3b" text-anchor="middle" style="white-space: pre;" direction="ltr" dominant-baseline="alphabetic">🌟 Nova Dinâmica:</text><text x="95" y="28.7802734375" font-family="Helvetica, Segoe UI Emoji" font-size="14px" fill="#064e3b" text-anchor="middle" style="white-space: pre;" direction="ltr" dominant-baseline="alphabetic">Relações curadas, novas</text><text x="95" y="45.44694010416667" font-family="Helvetica, Segoe UI Emoji" font-size="14px" fill="#064e3b" text-anchor="middle" style="white-space: pre;" direction="ltr" dominant-baseline="alphabetic">alianças ou rupturas.</text></g><g stroke-linecap="round"><g transform="translate(895 235) rotate(0 0 75)"><path d="M0 0 C0 30.95, 0 61.89, 0 150 M0 0 C0 52.7, 0 105.39, 0 150" stroke="#cbd5e1" stroke-width="2" fill="none"></path></g></g><mask></mask></svg>