<svg version="1.1" xmlns="http://www.w3.org/2000/svg" viewBox="0 0 1370 831.1981920346618" width="1370" height="831.1981920346618"><!-- svg-source:excalidraw --><metadata></metadata><defs><style class="style-fonts">
      </style></defs><rect x="0" y="0" width="1370" height="831.1981920346618" fill="#ffffff"></rect><g stroke-linecap="round"><g transform="translate(545 825) rotate(0 0.42055202018207183 -339.7901135258377)"><path d="M-0.3 -0.12 C-0.14 -113.26, -0.24 -566.61, 0.01 -680" stroke="#1e1e1e" stroke-width="1.5" fill="none" stroke-dasharray="1.5 7"></path></g></g><mask></mask><g stroke-linecap="round"><g transform="translate(1085 825) rotate(0 0.21593104979183408 -340.12784798666837)"><path d="M-0.43 1.2 C-0.42 -112.24, 0.7 -566.49, 0.76 -680" stroke="#1e1e1e" stroke-width="1.5" fill="none" stroke-dasharray="1.5 7"></path></g></g><mask></mask><g transform="translate(445 5) rotate(0 300 20)"><text x="300" y="27.560546875" font-family="Helvetica, Segoe UI Emoji" font-size="28px" fill="#0f172a" text-anchor="middle" style="white-space: pre;" direction="ltr" dominant-baseline="alphabetic">📖 Timeline de Enredo: 3 Atos + Plots</text></g><g stroke-linecap="round"><g transform="translate(185 365) rotate(0 590 0)"><path d="M0 0 C236.54 0, 473.08 0, 1180 0 M0 0 C405.18 0, 810.35 0, 1180 0" stroke="#475569" stroke-width="4" fill="none"></path></g><g transform="translate(185 365) rotate(0 590 0)"><path d="M1156.51 8.55 C1161.22 6.84, 1165.93 5.12, 1180 0 M1156.51 8.55 C1164.57 5.61, 1172.64 2.68, 1180 0" stroke="#475569" stroke-width="4" fill="none"></path></g><g transform="translate(185 365) rotate(0 590 0)"><path d="M1156.51 -8.55 C1161.22 -6.84, 1165.93 -5.12, 1180 0 M1156.51 -8.55 C1164.57 -5.61, 1172.64 -2.68, 1180 0" stroke="#475569" stroke-width="4" fill="none"></path></g></g><mask></mask><g transform="translate(295 105) rotate(0 100 15)"><text x="100" y="20.400390625" font-family="Helvetica, Segoe UI Emoji" font-size="20px" fill="#1d4ed8" text-anchor="middle" style="white-space: pre;" direction="ltr" dominant-baseline="alphabetic">ATO I: A Apresentação</text></g><g transform="translate(695 105) rotate(0 100 15)"><text x="100" y="20.400390625" font-family="Helvetica, Segoe UI Emoji" font-size="20px" fill="#b45309" text-anchor="middle" style="white-space: pre;" direction="ltr" dominant-baseline="alphabetic">ATO II: O Confronto</text></g><g transform="translate(1065 105) rotate(0 100 15)"><text x="100" y="20.400390625" font-family="Helvetica, Segoe UI Emoji" font-size="20px" fill="#047857" text-anchor="middle" style="white-space: pre;" direction="ltr" dominant-baseline="alphabetic">ATO III: A Resolução</text></g><g stroke-linecap="round" transform="translate(225 245) rotate(0 70 40)"><path d="M8 0 C34.89 0, 61.79 0, 132 0 C137.33 0, 140 2.67, 140 8 C140 33.38, 140 58.76, 140 72 C140 77.33, 137.33 80, 132 80 C104.74 80, 77.49 80, 8 80 C2.67 80, 0 77.33, 0 72 C0 53.35, 0 34.71, 0 8 C0 2.67, 2.67 0, 8 0" stroke="none" stroke-width="0" fill="#eff6ff"></path><path d="M8 0 C32.91 0, 57.82 0, 132 0 M8 0 C41.57 0, 75.15 0, 132 0 M132 0 C137.33 0, 140 2.67, 140 8 M132 0 C137.33 0, 140 2.67, 140 8 M140 8 C140 28.35, 140 48.7, 140 72 M140 8 C140 26.81, 140 45.62, 140 72 M140 72 C140 77.33, 137.33 80, 132 80 M140 72 C140 77.33, 137.33 80, 132 80 M132 80 C88.58 80, 45.16 80, 8 80 M132 80 C84.89 80, 37.79 80, 8 80 M8 80 C2.67 80, 0 77.33, 0 72 M8 80 C2.67 80, 0 77.33, 0 72 M0 72 C0 56.08, 0 40.17, 0 8 M0 72 C0 48.98, 0 25.95, 0 8 M0 8 C0 2.67, 2.67 0, 8 0 M0 8 C0 2.67, 2.67 0, 8 0" stroke="#3b82f6" stroke-width="2" fill="none"></path></g><g transform="translate(230 260) rotate(0 65 25)"><text x="65" y="16.2802734375" font-family="Helvetica, Segoe UI Emoji" font-size="14px" fill="#1e3a8a" text-anchor="middle" style="white-space: pre;" direction="ltr" dominant-baseline="alphabetic">Status Quo</text><text x="65" y="41.2802734375" font-family="Helvetica, Segoe UI Emoji" font-size="14px" fill="#1e3a8a" text-anchor="middle" style="white-space: pre;" direction="ltr" dominant-baseline="alphabetic">(Mundo Comum)</text></g><g stroke-linecap="round"><g transform="translate(295 325) rotate(0 0 20)"><path d="M0 0 C0 8.04, 0 16.07, 0 40 M0 0 C0 8.59, 0 17.18, 0 40" stroke="#94a3b8" stroke-width="2" fill="none"></path></g></g><mask></mask><g stroke-linecap="round" transform="translate(385 405) rotate(0 70 40)"><path d="M8 0 C42.33 0, 76.66 0, 132 0 C137.33 0, 140 2.67, 140 8 C140 31.85, 140 55.69, 140 72 C140 77.33, 137.33 80, 132 80 C103.97 80, 75.93 80, 8 80 C2.67 80, 0 77.33, 0 72 C0 57.85, 0 43.7, 0 8 C0 2.67, 2.67 0, 8 0" stroke="none" stroke-width="0" fill="#eff6ff"></path><path d="M8 0 C32.91 0, 57.83 0, 132 0 M8 0 C43.56 0, 79.11 0, 132 0 M132 0 C137.33 0, 140 2.67, 140 8 M132 0 C137.33 0, 140 2.67, 140 8 M140 8 C140 31.71, 140 55.42, 140 72 M140 8 C140 24.8, 140 41.6, 140 72 M140 72 C140 77.33, 137.33 80, 132 80 M140 72 C140 77.33, 137.33 80, 132 80 M132 80 C82.75 80, 33.5 80, 8 80 M132 80 C103.81 80, 75.62 80, 8 80 M8 80 C2.67 80, 0 77.33, 0 72 M8 80 C2.67 80, 0 77.33, 0 72 M0 72 C0 52.22, 0 32.44, 0 8 M0 72 C0 47.1, 0 22.21, 0 8 M0 8 C0 2.67, 2.67 0, 8 0 M0 8 C0 2.67, 2.67 0, 8 0" stroke="#3b82f6" stroke-width="2" fill="none"></path></g><g transform="translate(390 420) rotate(0 65 25)"><text x="65" y="16.2802734375" font-family="Helvetica, Segoe UI Emoji" font-size="14px" fill="#1e3a8a" text-anchor="middle" style="white-space: pre;" direction="ltr" dominant-baseline="alphabetic">Incidente</text><text x="65" y="41.2802734375" font-family="Helvetica, Segoe UI Emoji" font-size="14px" fill="#1e3a8a" text-anchor="middle" style="white-space: pre;" direction="ltr" dominant-baseline="alphabetic">Incitante</text></g><g stroke-linecap="round"><g transform="translate(455 405) rotate(0 0 -20)"><path d="M0 0 C0 -8.04, 0 -16.07, 0 -40 M0 0 C0 -9.23, 0 -18.46, 0 -40" stroke="#94a3b8" stroke-width="2" fill="none"></path></g></g><mask></mask><g stroke-linecap="round" transform="translate(545 245) rotate(0 70 40)"><path d="M8 0 C49.76 0, 91.52 0, 132 0 C137.33 0, 140 2.67, 140 8 C140 30.31, 140 52.63, 140 72 C140 77.33, 137.33 80, 132 80 C103.19 80, 74.38 80, 8 80 C2.67 80, 0 77.33, 0 72 C0 49.55, 0 27.1, 0 8 C0 2.67, 2.67 0, 8 0" stroke="none" stroke-width="0" fill="#fef3c7"></path><path d="M8 0 C32.92 0, 57.83 0, 132 0 M8 0 C45.54 0, 83.07 0, 132 0 M132 0 C137.33 0, 140 2.67, 140 8 M132 0 C137.33 0, 140 2.67, 140 8 M140 8 C140 22.27, 140 36.54, 140 72 M140 8 C140 22.79, 140 37.58, 140 72 M140 72 C140 77.33, 137.33 80, 132 80 M140 72 C140 77.33, 137.33 80, 132 80 M132 80 C101.72 80, 71.44 80, 8 80 M132 80 C97.92 80, 63.85 80, 8 80 M8 80 C2.67 80, 0 77.33, 0 72 M8 80 C2.67 80, 0 77.33, 0 72 M0 72 C0 48.35, 0 24.7, 0 8 M0 72 C0 58.03, 0 44.06, 0 8 M0 8 C0 2.67, 2.67 0, 8 0 M0 8 C0 2.67, 2.67 0, 8 0" stroke="#d97706" stroke-width="2" fill="none"></path></g><g transform="translate(550 260) rotate(0 65 25)"><text x="65" y="16.2802734375" font-family="Helvetica, Segoe UI Emoji" font-size="14px" fill="#78350f" text-anchor="middle" style="white-space: pre;" direction="ltr" dominant-baseline="alphabetic">Virada 1</text><text x="65" y="41.2802734375" font-family="Helvetica, Segoe UI Emoji" font-size="14px" fill="#78350f" text-anchor="middle" style="white-space: pre;" direction="ltr" dominant-baseline="alphabetic">(Entra no Ato 2)</text></g><g stroke-linecap="round"><g transform="translate(615 325) rotate(0 0 20)"><path d="M0 0 C0 8.04, 0 16.08, 0 40 M0 0 C0 9.87, 0 19.74, 0 40" stroke="#94a3b8" stroke-width="2" fill="none"></path></g></g><mask></mask><g stroke-linecap="round" transform="translate(705 405) rotate(0 70 40)"><path d="M8 0 C57.2 0, 106.39 0, 132 0 C137.33 0, 140 2.67, 140 8 C140 28.78, 140 49.57, 140 72 C140 77.33, 137.33 80, 132 80 C102.41 80, 72.82 80, 8 80 C2.67 80, 0 77.33, 0 72 C0 54.05, 0 36.09, 0 8 C0 2.67, 2.67 0, 8 0" stroke="none" stroke-width="0" fill="#fef3c7"></path><path d="M8 0 C32.92 0, 57.83 0, 132 0 M8 0 C47.52 0, 87.04 0, 132 0 M132 0 C137.33 0, 140 2.67, 140 8 M132 0 C137.33 0, 140 2.67, 140 8 M140 8 C140 25.63, 140 43.26, 140 72 M140 8 C140 33.58, 140 59.15, 140 72 M140 72 C140 77.33, 137.33 80, 132 80 M140 72 C140 77.33, 137.33 80, 132 80 M132 80 C95.89 80, 59.78 80, 8 80 M132 80 C92.04 80, 52.08 80, 8 80 M8 80 C2.67 80, 0 77.33, 0 72 M8 80 C2.67 80, 0 77.33, 0 72 M0 72 C0 57.28, 0 42.57, 0 8 M0 72 C0 56.16, 0 40.32, 0 8 M0 8 C0 2.67, 2.67 0, 8 0 M0 8 C0 2.67, 2.67 0, 8 0" stroke="#d97706" stroke-width="2" fill="none"></path></g><g transform="translate(710 420) rotate(0 65 25)"><text x="65" y="16.2802734375" font-family="Helvetica, Segoe UI Emoji" font-size="14px" fill="#78350f" text-anchor="middle" style="white-space: pre;" direction="ltr" dominant-baseline="alphabetic">Ponto Médio</text><text x="65" y="41.2802734375" font-family="Helvetica, Segoe UI Emoji" font-size="14px" fill="#78350f" text-anchor="middle" style="white-space: pre;" direction="ltr" dominant-baseline="alphabetic">(Falsa Vitória)</text></g><g stroke-linecap="round"><g transform="translate(775 405) rotate(0 0 -20)"><path d="M0 0 C0 -8.04, 0 -16.08, 0 -40 M0 0 C0 -10.51, 0 -21.02, 0 -40" stroke="#94a3b8" stroke-width="2" fill="none"></path></g></g><mask></mask><g stroke-linecap="round" transform="translate(865 245) rotate(0 70 40)"><path d="M8 0 C39.83 0, 71.66 0, 132 0 C137.33 0, 140 2.67, 140 8 C140 27.25, 140 46.5, 140 72 C140 77.33, 137.33 80, 132 80 C101.63 80, 71.27 80, 8 80 C2.67 80, 0 77.33, 0 72 C0 58.54, 0 45.09, 0 8 C0 2.67, 2.67 0, 8 0" stroke="none" stroke-width="0" fill="#fef3c7"></path><path d="M8 0 C32.92 0, 57.84 0, 132 0 M8 0 C49.5 0, 91 0, 132 0 M132 0 C137.33 0, 140 2.67, 140 8 M132 0 C137.33 0, 140 2.67, 140 8 M140 8 C140 28.99, 140 49.98, 140 72 M140 8 C140 31.56, 140 55.13, 140 72 M140 72 C140 77.33, 137.33 80, 132 80 M140 72 C140 77.33, 137.33 80, 132 80 M132 80 C90.06 80, 48.12 80, 8 80 M132 80 C86.15 80, 40.31 80, 8 80 M8 80 C2.67 80, 0 77.33, 0 72 M8 80 C2.67 80, 0 77.33, 0 72 M0 72 C0 53.42, 0 34.83, 0 8 M0 72 C0 54.29, 0 36.58, 0 8 M0 8 C0 2.67, 2.67 0, 8 0 M0 8 C0 2.67, 2.67 0, 8 0" stroke="#d97706" stroke-width="2" fill="none"></path></g><g transform="translate(870 260) rotate(0 65 25)"><text x="65" y="16.2802734375" font-family="Helvetica, Segoe UI Emoji" font-size="14px" fill="#78350f" text-anchor="middle" style="white-space: pre;" direction="ltr" dominant-baseline="alphabetic">Virada 2</text><text x="65" y="41.2802734375" font-family="Helvetica, Segoe UI Emoji" font-size="14px" fill="#78350f" text-anchor="middle" style="white-space: pre;" direction="ltr" dominant-baseline="alphabetic">(Tudo Perdido)</text></g><g stroke-linecap="round"><g transform="translate(935 325) rotate(0 0 20)"><path d="M0 0 C0 8.04, 0 16.08, 0 40 M0 0 C0 11.15, 0 22.29, 0 40" stroke="#94a3b8" stroke-width="2" fill="none"></path></g></g><mask></mask><g stroke-linecap="round" transform="translate(1025 405) rotate(0 70 40)"><path d="M8 0 C47.26 0, 86.53 0, 132 0 C137.33 0, 140 2.67, 140 8 C140 25.72, 140 43.44, 140 72 C140 77.33, 137.33 80, 132 80 C100.86 80, 69.72 80, 8 80 C2.67 80, 0 77.33, 0 72 C0 50.24, 0 28.49, 0 8 C0 2.67, 2.67 0, 8 0" stroke="none" stroke-width="0" fill="#d1fae5"></path><path d="M8 0 C32.92 0, 57.84 0, 132 0 M8 0 C51.48 0, 94.96 0, 132 0 M132 0 C137.33 0, 140 2.67, 140 8 M132 0 C137.33 0, 140 2.67, 140 8 M140 8 C140 32.35, 140 56.7, 140 72 M140 8 C140 29.55, 140 51.11, 140 72 M140 72 C140 77.33, 137.33 80, 132 80 M140 72 C140 77.33, 137.33 80, 132 80 M132 80 C84.23 80, 36.46 80, 8 80 M132 80 C105.07 80, 78.14 80, 8 80 M8 80 C2.67 80, 0 77.33, 0 72 M8 80 C2.67 80, 0 77.33, 0 72 M0 72 C0 49.55, 0 27.1, 0 8 M0 72 C0 52.42, 0 32.83, 0 8 M0 8 C0 2.67, 2.67 0, 8 0 M0 8 C0 2.67, 2.67 0, 8 0" stroke="#10b981" stroke-width="2" fill="none"></path></g><g transform="translate(1030 420) rotate(0 65 25)"><text x="65" y="16.2802734375" font-family="Helvetica, Segoe UI Emoji" font-size="14px" fill="#064e3b" text-anchor="middle" style="white-space: pre;" direction="ltr" dominant-baseline="alphabetic">Clímax</text><text x="65" y="41.2802734375" font-family="Helvetica, Segoe UI Emoji" font-size="14px" fill="#064e3b" text-anchor="middle" style="white-space: pre;" direction="ltr" dominant-baseline="alphabetic">(Batalha Final)</text></g><g stroke-linecap="round"><g transform="translate(1095 405) rotate(0 0 -20)"><path d="M0 0 C0 -8.04, 0 -16.08, 0 -40 M0 0 C0 -11.79, 0 -23.57, 0 -40" stroke="#94a3b8" stroke-width="2" fill="none"></path></g></g><mask></mask><g stroke-linecap="round" transform="translate(1185 245) rotate(0 70 40)"><path d="M8 0 C54.7 0, 101.4 0, 132 0 C137.33 0, 140 2.67, 140 8 C140 24.19, 140 40.38, 140 72 C140 77.33, 137.33 80, 132 80 C100.08 80, 68.16 80, 8 80 C2.67 80, 0 77.33, 0 72 C0 54.74, 0 37.48, 0 8 C0 2.67, 2.67 0, 8 0" stroke="none" stroke-width="0" fill="#d1fae5"></path><path d="M8 0 C32.92 0, 57.84 0, 132 0 M8 0 C53.46 0, 98.93 0, 132 0 M132 0 C137.33 0, 140 2.67, 140 8 M132 0 C137.33 0, 140 2.67, 140 8 M140 8 C140 22.91, 140 37.82, 140 72 M140 8 C140 27.54, 140 47.08, 140 72 M140 72 C140 77.33, 137.33 80, 132 80 M140 72 C140 77.33, 137.33 80, 132 80 M132 80 C103.2 80, 74.4 80, 8 80 M132 80 C99.18 80, 66.37 80, 8 80 M8 80 C2.67 80, 0 77.33, 0 72 M8 80 C2.67 80, 0 77.33, 0 72 M0 72 C0 58.48, 0 44.96, 0 8 M0 72 C0 50.54, 0 29.09, 0 8 M0 8 C0 2.67, 2.67 0, 8 0 M0 8 C0 2.67, 2.67 0, 8 0" stroke="#10b981" stroke-width="2" fill="none"></path></g><g transform="translate(1190 260) rotate(0 65 25)"><text x="65" y="16.2802734375" font-family="Helvetica, Segoe UI Emoji" font-size="14px" fill="#064e3b" text-anchor="middle" style="white-space: pre;" direction="ltr" dominant-baseline="alphabetic">Resolução</text><text x="65" y="41.2802734375" font-family="Helvetica, Segoe UI Emoji" font-size="14px" fill="#064e3b" text-anchor="middle" style="white-space: pre;" direction="ltr" dominant-baseline="alphabetic">(Novo Normal)</text></g><g stroke-linecap="round"><g transform="translate(1255 325) rotate(0 0 20)"><path d="M0 0 C0 8.04, 0 16.08, 0 40 M0 0 C0 12.43, 0 24.85, 0 40" stroke="#94a3b8" stroke-width="2" fill="none"></path></g></g><mask></mask><g transform="translate(5 357) rotate(0 80 10)"><text x="0" y="14.3203125" font-family="Helvetica, Segoe UI Emoji" font-size="16px" fill="#1d4ed8" text-anchor="start" style="white-space: pre;" direction="ltr" dominant-baseline="alphabetic">PLOT A (Principal):</text></g><g transform="translate(5 385) rotate(0 125 10)"><text x="125" y="13.7802734375" font-family="Helvetica, Segoe UI Emoji" font-size="14px" fill="#64748b" text-anchor="middle" style="white-space: pre;" direction="ltr" dominant-baseline="alphabetic">Desenvolvimento do conflito central</text></g><g transform="translate(185 600) rotate(0 80 10)"><text x="0" y="14.3203125" font-family="Helvetica, Segoe UI Emoji" font-size="16px" fill="#b45309" text-anchor="start" style="white-space: pre;" direction="ltr" dominant-baseline="alphabetic">PLOT B (Subtrama):</text></g><g stroke-linecap="round"><g transform="translate(545 620) rotate(0 275 0)"><path d="M0 0 C110.75 0, 221.51 0, 550 0 M0 0 C196.96 0, 393.93 0, 550 0" stroke="#b45309" stroke-width="4" fill="none"></path></g><g transform="translate(545 620) rotate(0 275 0)"><path d="M526.51 8.55 C531.24 6.83, 535.97 5.11, 550 0 M526.51 8.55 C534.92 5.49, 543.33 2.43, 550 0" stroke="#b45309" stroke-width="4" fill="none"></path></g><g transform="translate(545 620) rotate(0 275 0)"><path d="M526.51 -8.55 C531.24 -6.83, 535.97 -5.11, 550 0 M526.51 -8.55 C534.92 -5.49, 543.33 -2.43, 550 0" stroke="#b45309" stroke-width="4" fill="none"></path></g></g><mask></mask><g transform="translate(665 640) rotate(0 150 10)"><text x="150" y="13.7802734375" font-family="Helvetica, Segoe UI Emoji" font-size="14px" fill="#64748b" text-anchor="middle" style="white-space: pre;" direction="ltr" dominant-baseline="alphabetic">Arco secundário (ex: romance, aliado, lição moral)</text></g><g stroke-linecap="round" transform="translate(525 680) rotate(0 85 45)"><path d="M8 0 C67.9 0, 127.8 0, 162 0 C167.33 0, 170 2.67, 170 8 C170 35.21, 170 62.43, 170 82 C170 87.33, 167.33 90, 162 90 C125.95 90, 89.91 90, 8 90 C2.67 90, 0 87.33, 0 82 C0 55.53, 0 29.05, 0 8 C0 2.67, 2.67 0, 8 0" stroke="none" stroke-width="0" fill="#fffbeb"></path><path d="M8 0 C48.82 0, 89.63 0, 162 0 M8 0 C59.86 0, 111.73 0, 162 0 M162 0 C167.33 0, 170 2.67, 170 8 M162 0 C167.33 0, 170 2.67, 170 8 M170 8 C170 22.93, 170 37.86, 170 82 M170 8 C170 26.76, 170 45.53, 170 82 M170 82 C170 87.33, 167.33 90, 162 90 M170 82 C170 87.33, 167.33 90, 162 90 M162 90 C128.9 90, 95.81 90, 8 90 M162 90 C113.6 90, 65.19 90, 8 90 M8 90 C2.67 90, 0 87.33, 0 82 M8 90 C2.67 90, 0 87.33, 0 82 M0 82 C0 59.03, 0 36.07, 0 8 M0 82 C0 64.71, 0 47.43, 0 8 M0 8 C0 2.67, 2.67 0, 8 0 M0 8 C0 2.67, 2.67 0, 8 0" stroke="#d97706" stroke-width="2" fill="none"></path></g><g transform="translate(530 690) rotate(0 80 35)"><text x="80" y="15.446940104166666" font-family="Helvetica, Segoe UI Emoji" font-size="14px" fill="#92400e" text-anchor="middle" style="white-space: pre;" direction="ltr" dominant-baseline="alphabetic">💖 Relacionamentos</text><text x="80" y="38.7802734375" font-family="Helvetica, Segoe UI Emoji" font-size="14px" fill="#92400e" text-anchor="middle" style="white-space: pre;" direction="ltr" dominant-baseline="alphabetic">Romance, Aliados,</text><text x="80" y="62.11360677083333" font-family="Helvetica, Segoe UI Emoji" font-size="14px" fill="#92400e" text-anchor="middle" style="white-space: pre;" direction="ltr" dominant-baseline="alphabetic">Mentor, Família</text></g><g stroke-linecap="round" transform="translate(725 680) rotate(0 85 45)"><path d="M8 0 C50.64 0, 93.28 0, 162 0 C167.33 0, 170 2.67, 170 8 C170 30.8, 170 53.6, 170 82 C170 87.33, 167.33 90, 162 90 C101.61 90, 41.23 90, 8 90 C2.67 90, 0 87.33, 0 82 C0 55.79, 0 29.58, 0 8 C0 2.67, 2.67 0, 8 0" stroke="none" stroke-width="0" fill="#fffbeb"></path><path d="M8 0 C45.57 0, 83.14 0, 162 0 M8 0 C55 0, 102 0, 162 0 M162 0 C167.33 0, 170 2.67, 170 8 M162 0 C167.33 0, 170 2.67, 170 8 M170 8 C170 36.59, 170 65.17, 170 82 M170 8 C170 37.34, 170 66.68, 170 82 M170 82 C170 87.33, 167.33 90, 162 90 M170 82 C170 87.33, 167.33 90, 162 90 M162 90 C106.47 90, 50.94 90, 8 90 M162 90 C103.42 90, 44.84 90, 8 90 M8 90 C2.67 90, 0 87.33, 0 82 M8 90 C2.67 90, 0 87.33, 0 82 M0 82 C0 57.59, 0 33.19, 0 8 M0 82 C0 59.65, 0 37.3, 0 8 M0 8 C0 2.67, 2.67 0, 8 0 M0 8 C0 2.67, 2.67 0, 8 0" stroke="#d97706" stroke-width="2" fill="none"></path></g><g transform="translate(730 690) rotate(0 80 35)"><text x="80" y="15.446940104166666" font-family="Helvetica, Segoe UI Emoji" font-size="14px" fill="#92400e" text-anchor="middle" style="white-space: pre;" direction="ltr" dominant-baseline="alphabetic">🧠 Arco Interno</text><text x="80" y="38.7802734375" font-family="Helvetica, Segoe UI Emoji" font-size="14px" fill="#92400e" text-anchor="middle" style="white-space: pre;" direction="ltr" dominant-baseline="alphabetic">Traumas, Lições,</text><text x="80" y="62.11360677083333" font-family="Helvetica, Segoe UI Emoji" font-size="14px" fill="#92400e" text-anchor="middle" style="white-space: pre;" direction="ltr" dominant-baseline="alphabetic">Mudança de Visão</text></g><g stroke-linecap="round" transform="translate(925 680) rotate(0 85 45)"><path d="M8 0 C68.48 0, 128.97 0, 162 0 C167.33 0, 170 2.67, 170 8 C170 23.9, 170 39.81, 170 82 C170 87.33, 167.33 90, 162 90 C102.34 90, 42.67 90, 8 90 C2.67 90, 0 87.33, 0 82 C0 58.48, 0 34.96, 0 8 C0 2.67, 2.67 0, 8 0" stroke="none" stroke-width="0" fill="#fffbeb"></path><path d="M8 0 C51.95 0, 95.91 0, 162 0 M8 0 C42 0, 76.01 0, 162 0 M162 0 C167.33 0, 170 2.67, 170 8 M162 0 C167.33 0, 170 2.67, 170 8 M170 8 C170 28.27, 170 48.54, 170 82 M170 8 C170 34.59, 170 61.17, 170 82 M170 82 C170 87.33, 167.33 90, 162 90 M170 82 C170 87.33, 167.33 90, 162 90 M162 90 C113.16 90, 64.33 90, 8 90 M162 90 C100.88 90, 39.75 90, 8 90 M8 90 C2.67 90, 0 87.33, 0 82 M8 90 C2.67 90, 0 87.33, 0 82 M0 82 C0 60.9, 0 39.81, 0 8 M0 82 C0 55.42, 0 28.83, 0 8 M0 8 C0 2.67, 2.67 0, 8 0 M0 8 C0 2.67, 2.67 0, 8 0" stroke="#d97706" stroke-width="2" fill="none"></path></g><g transform="translate(930 690) rotate(0 80 35)"><text x="80" y="15.446940104166666" font-family="Helvetica, Segoe UI Emoji" font-size="14px" fill="#92400e" text-anchor="middle" style="white-space: pre;" direction="ltr" dominant-baseline="alphabetic">🗺️ Missões Secund.</text><text x="80" y="38.7802734375" font-family="Helvetica, Segoe UI Emoji" font-size="14px" fill="#92400e" text-anchor="middle" style="white-space: pre;" direction="ltr" dominant-baseline="alphabetic">Mistérios Menores,</text><text x="80" y="62.11360677083333" font-family="Helvetica, Segoe UI Emoji" font-size="14px" fill="#92400e" text-anchor="middle" style="white-space: pre;" direction="ltr" dominant-baseline="alphabetic">Treinamentos</text></g></svg>