<svg version="1.1" xmlns="http://www.w3.org/2000/svg" viewBox="0 0 1080 730" width="1080" height="730"><!-- svg-source:excalidraw --><metadata></metadata><defs><style class="style-fonts">
      </style></defs><rect x="0" y="0" width="1080" height="730" fill="#ffffff"></rect><g stroke-linecap="round" transform="translate(5 25) rotate(0 125 325)"><path d="M16 0 C60.58 0, 105.16 0, 234 0 M16 0 C73.95 0, 131.89 0, 234 0 M234 0 C244.67 0, 250 5.33, 250 16 M234 0 C244.67 0, 250 5.33, 250 16 M250 16 C250 213.64, 250 411.28, 250 634 M250 16 C250 208.54, 250 401.08, 250 634 M250 634 C250 644.67, 244.67 650, 234 650 M250 634 C250 644.67, 244.67 650, 234 650 M234 650 C171.18 650, 108.37 650, 16 650 M234 650 C182.52 650, 131.04 650, 16 650 M16 650 C5.33 650, 0 644.67, 0 634 M16 650 C5.33 650, 0 644.67, 0 634 M0 634 C0 450.99, 0 267.99, 0 16 M0 634 C0 452.87, 0 271.75, 0 16 M0 16 C0 5.33, 5.33 0, 16 0 M0 16 C0 5.33, 5.33 0, 16 0" stroke="#adb5bd" stroke-width="1" fill="none"></path></g><g stroke-linecap="round" transform="translate(25 5) rotate(0 100 15)"><path d="M7.5 0 C49.02 0, 90.55 0, 192.5 0 C197.5 0, 200 2.5, 200 7.5 C200 10.6, 200 13.7, 200 22.5 C200 27.5, 197.5 30, 192.5 30 C138.33 30, 84.16 30, 7.5 30 C2.5 30, 0 27.5, 0 22.5 C0 17.59, 0 12.69, 0 7.5 C0 2.5, 2.5 0, 7.5 0" stroke="none" stroke-width="0" fill="#000000"></path><path d="M7.5 0 C45.33 0, 83.17 0, 192.5 0 M7.5 0 C69.99 0, 132.49 0, 192.5 0 M192.5 0 C197.5 0, 200 2.5, 200 7.5 M192.5 0 C197.5 0, 200 2.5, 200 7.5 M200 7.5 C200 12.56, 200 17.62, 200 22.5 M200 7.5 C200 12.02, 200 16.53, 200 22.5 M200 22.5 C200 27.5, 197.5 30, 192.5 30 M200 22.5 C200 27.5, 197.5 30, 192.5 30 M192.5 30 C136.29 30, 80.09 30, 7.5 30 M192.5 30 C145.89 30, 99.27 30, 7.5 30 M7.5 30 C2.5 30, 0 27.5, 0 22.5 M7.5 30 C2.5 30, 0 27.5, 0 22.5 M0 22.5 C0 16.76, 0 11.01, 0 7.5 M0 22.5 C0 16.96, 0 11.41, 0 7.5 M0 7.5 C0 2.5, 2.5 0, 7.5 0 M0 7.5 C0 2.5, 2.5 0, 7.5 0" stroke="#000000" stroke-width="1" fill="none"></path></g><g transform="translate(25 5) rotate(0 90 10)"><text x="90" y="13.7802734375" font-family="Helvetica, Segoe UI Emoji" font-size="14px" fill="#ffffff" text-anchor="middle" style="white-space: pre;" direction="ltr" dominant-baseline="alphabetic">Problem Statement</text></g><g stroke-linecap="round" transform="translate(45 65) rotate(0 80 70)"><path d="M0 0 L160 0 L160 140 L0 140" stroke="none" stroke-width="0" fill="#d4edda"></path><path d="M0 0 C32.72 0, 65.44 0, 160 0 M0 0 C45.09 0, 90.17 0, 160 0 M160 0 C160 38.36, 160 76.71, 160 140 M160 0 C160 53.58, 160 107.16, 160 140 M160 140 C102.57 140, 45.13 140, 0 140 M160 140 C116.34 140, 72.68 140, 0 140 M0 140 C0 104.94, 0 69.88, 0 0 M0 140 C0 94.15, 0 48.3, 0 0" stroke="transparent" stroke-width="2" fill="none"></path></g><g transform="translate(65 85) rotate(0 70 60)"><text x="0" y="35.400390625" font-family="Helvetica, Segoe UI Emoji" font-size="20px" fill="#155724" text-anchor="start" style="white-space: pre;" direction="ltr" dominant-baseline="alphabetic">How might</text><text x="0" y="95.400390625" font-family="Helvetica, Segoe UI Emoji" font-size="20px" fill="#155724" text-anchor="start" style="white-space: pre;" direction="ltr" dominant-baseline="alphabetic">we...?</text></g><g stroke-linecap="round" transform="translate(285 25) rotate(0 190 110)"><path d="M16 0 C88.73 0, 161.46 0, 364 0 M16 0 C106.35 0, 196.7 0, 364 0 M364 0 C374.67 0, 380 5.33, 380 16 M364 0 C374.67 0, 380 5.33, 380 16 M380 16 C380 57.76, 380 99.52, 380 204 M380 16 C380 59.91, 380 103.83, 380 204 M380 204 C380 214.67, 374.67 220, 364 220 M380 204 C380 214.67, 374.67 220, 364 220 M364 220 C238.5 220, 113 220, 16 220 M364 220 C274.74 220, 185.49 220, 16 220 M16 220 C5.33 220, 0 214.67, 0 204 M16 220 C5.33 220, 0 214.67, 0 204 M0 204 C0 146.58, 0 89.15, 0 16 M0 204 C0 145.77, 0 87.53, 0 16 M0 16 C0 5.33, 5.33 0, 16 0 M0 16 C0 5.33, 5.33 0, 16 0" stroke="#adb5bd" stroke-width="1" fill="none"></path></g><g stroke-linecap="round" transform="translate(305 5) rotate(0 110 15)"><path d="M7.5 0 C50.33 0, 93.17 0, 212.5 0 C217.5 0, 220 2.5, 220 7.5 C220 12.94, 220 18.37, 220 22.5 C220 27.5, 217.5 30, 212.5 30 C147.97 30, 83.43 30, 7.5 30 C2.5 30, 0 27.5, 0 22.5 C0 16.99, 0 11.47, 0 7.5 C0 2.5, 2.5 0, 7.5 0" stroke="none" stroke-width="0" fill="#40916c"></path><path d="M7.5 0 C50.35 0, 93.19 0, 212.5 0 M7.5 0 C75.48 0, 143.46 0, 212.5 0 M212.5 0 C217.5 0, 220 2.5, 220 7.5 M212.5 0 C217.5 0, 220 2.5, 220 7.5 M220 7.5 C220 11.09, 220 14.69, 220 22.5 M220 7.5 C220 10.85, 220 14.19, 220 22.5 M220 22.5 C220 27.5, 217.5 30, 212.5 30 M220 22.5 C220 27.5, 217.5 30, 212.5 30 M212.5 30 C135.36 30, 58.22 30, 7.5 30 M212.5 30 C156.68 30, 100.86 30, 7.5 30 M7.5 30 C2.5 30, 0 27.5, 0 22.5 M7.5 30 C2.5 30, 0 27.5, 0 22.5 M0 22.5 C0 16.62, 0 10.73, 0 7.5 M0 22.5 C0 16.71, 0 10.91, 0 7.5 M0 7.5 C0 2.5, 2.5 0, 7.5 0 M0 7.5 C0 2.5, 2.5 0, 7.5 0" stroke="transparent" stroke-width="1" fill="none"></path></g><g transform="translate(325 5) rotate(0 80 10)"><text x="80" y="13.7802734375" font-family="Helvetica, Segoe UI Emoji" font-size="14px" fill="#ffffff" text-anchor="middle" style="white-space: pre;" direction="ltr" dominant-baseline="alphabetic">Idea Owner / Quadrant</text></g><g stroke-linecap="round" transform="translate(305 65) rotate(0 30 30)"><path d="M0 0 L60 0 L60 60 L0 60" stroke="none" stroke-width="0" fill="#d4edda"></path><path d="M0 0 C12.54 0, 25.08 0, 60 0 M0 0 C16.54 0, 33.07 0, 60 0 M60 0 C60 12.45, 60 24.89, 60 60 M60 0 C60 15.86, 60 31.72, 60 60 M60 60 C43.69 60, 27.38 60, 0 60 M60 60 C37.07 60, 14.15 60, 0 60 M0 60 C0 39.71, 0 19.43, 0 0 M0 60 C0 45.06, 0 30.13, 0 0" stroke="transparent" stroke-width="2" fill="none"></path></g><g stroke-linecap="round" transform="translate(385 65) rotate(0 30 30)"><path d="M0 0 L60 0 L60 60 L0 60" stroke="none" stroke-width="0" fill="#d4edda"></path><path d="M0 0 C12.54 0, 25.08 0, 60 0 M0 0 C20.86 0, 41.71 0, 60 0 M60 0 C60 14.55, 60 29.11, 60 60 M60 0 C60 14.37, 60 28.75, 60 60 M60 60 C46 60, 31.99 60, 0 60 M60 60 C46.62 60, 33.24 60, 0 60 M0 60 C0 43.27, 0 26.54, 0 0 M0 60 C0 47.97, 0 35.95, 0 0" stroke="transparent" stroke-width="2" fill="none"></path></g><g stroke-linecap="round" transform="translate(465 65) rotate(0 30 30)"><path d="M0 0 L60 0 L60 60 L0 60" stroke="none" stroke-width="0" fill="#d4edda"></path><path d="M0 0 C12.54 0, 25.08 0, 60 0 M0 0 C13.18 0, 26.35 0, 60 0 M60 0 C60 16.66, 60 33.32, 60 60 M60 0 C60 12.89, 60 25.78, 60 60 M60 60 C36.31 60, 12.61 60, 0 60 M60 60 C44.16 60, 28.33 60, 0 60 M0 60 C0 46.83, 0 33.66, 0 0 M0 60 C0 38.88, 0 17.76, 0 0" stroke="transparent" stroke-width="2" fill="none"></path></g><g stroke-linecap="round" transform="translate(545 65) rotate(0 30 30)"><path d="M0 0 L60 0 L60 60 L0 60" stroke="none" stroke-width="0" fill="#d4edda"></path><path d="M0 0 C12.54 0, 25.08 0, 60 0 M0 0 C17.5 0, 34.99 0, 60 0 M60 0 C60 18.77, 60 37.54, 60 60 M60 0 C60 23.41, 60 46.82, 60 60 M60 60 C38.62 60, 17.23 60, 0 60 M60 60 C41.71 60, 23.42 60, 0 60 M0 60 C0 38.39, 0 16.78, 0 0 M0 60 C0 41.79, 0 23.58, 0 0" stroke="transparent" stroke-width="2" fill="none"></path></g><g stroke-linecap="round" transform="translate(685 25) rotate(0 190 110)"><path d="M16 0 C90.29 0, 164.59 0, 364 0 M16 0 C104.2 0, 192.4 0, 364 0 M364 0 C374.67 0, 380 5.33, 380 16 M364 0 C374.67 0, 380 5.33, 380 16 M380 16 C380 76.99, 380 137.98, 380 204 M380 16 C380 82.86, 380 149.71, 380 204 M380 204 C380 214.67, 374.67 220, 364 220 M380 204 C380 214.67, 374.67 220, 364 220 M364 220 C282.88 220, 201.76 220, 16 220 M364 220 C267.67 220, 171.34 220, 16 220 M16 220 C5.33 220, 0 214.67, 0 204 M16 220 C5.33 220, 0 214.67, 0 204 M0 204 C0 144.82, 0 85.65, 0 16 M0 204 C0 142.63, 0 81.27, 0 16 M0 16 C0 5.33, 5.33 0, 16 0 M0 16 C0 5.33, 5.33 0, 16 0" stroke="#adb5bd" stroke-width="1" fill="none"></path></g><g stroke-linecap="round" transform="translate(725 5) rotate(0 90 15)"><path d="M7.5 0 C72.42 0, 137.33 0, 172.5 0 C177.5 0, 180 2.5, 180 7.5 C180 12.27, 180 17.05, 180 22.5 C180 27.5, 177.5 30, 172.5 30 C116.93 30, 61.36 30, 7.5 30 C2.5 30, 0 27.5, 0 22.5 C0 19.38, 0 16.26, 0 7.5 C0 2.5, 2.5 0, 7.5 0" stroke="none" stroke-width="0" fill="#f58231"></path><path d="M7.5 0 C42.73 0, 77.95 0, 172.5 0 M7.5 0 C61.2 0, 114.89 0, 172.5 0 M172.5 0 C177.5 0, 180 2.5, 180 7.5 M172.5 0 C177.5 0, 180 2.5, 180 7.5 M180 7.5 C180 12.63, 180 17.76, 180 22.5 M180 7.5 C180 12.68, 180 17.85, 180 22.5 M180 22.5 C180 27.5, 177.5 30, 172.5 30 M180 22.5 C180 27.5, 177.5 30, 172.5 30 M172.5 30 C131.45 30, 90.4 30, 7.5 30 M172.5 30 C124.22 30, 75.93 30, 7.5 30 M7.5 30 C2.5 30, 0 27.5, 0 22.5 M7.5 30 C2.5 30, 0 27.5, 0 22.5 M0 22.5 C0 19.48, 0 16.45, 0 7.5 M0 22.5 C0 19.46, 0 16.41, 0 7.5 M0 7.5 C0 2.5, 2.5 0, 7.5 0 M0 7.5 C0 2.5, 2.5 0, 7.5 0" stroke="transparent" stroke-width="1" fill="none"></path></g><g transform="translate(725 5) rotate(0 80 10)"><text x="80" y="13.7802734375" font-family="Helvetica, Segoe UI Emoji" font-size="14px" fill="#ffffff" text-anchor="middle" style="white-space: pre;" direction="ltr" dominant-baseline="alphabetic">Idea Owner</text></g><g stroke-linecap="round" transform="translate(715 65) rotate(0 30 30)"><path d="M0 0 L60 0 L60 60 L0 60" stroke="none" stroke-width="0" fill="#ffce99"></path><path d="M0 0 C12.81 0, 25.62 0, 60 0 M0 0 C16.17 0, 32.33 0, 60 0 M60 0 C60 20.45, 60 40.9, 60 60 M60 0 C60 20.75, 60 41.51, 60 60 M60 60 C36.91 60, 13.83 60, 0 60 M60 60 C42.52 60, 25.04 60, 0 60 M0 60 C0 46.45, 0 32.9, 0 0 M0 60 C0 37.78, 0 15.56, 0 0" stroke="transparent" stroke-width="2" fill="none"></path></g><g transform="translate(785 95) rotate(0 15 15)"><text x="15" y="21.48046875" font-family="Helvetica, Segoe UI Emoji" font-size="24px" fill="#e63946" text-anchor="middle" style="white-space: pre;" direction="ltr" dominant-baseline="alphabetic">+1</text></g><g stroke-linecap="round" transform="translate(835 65) rotate(0 30 30)"><path d="M0 0 L60 0 L60 60 L0 60" stroke="none" stroke-width="0" fill="#ffce99"></path><path d="M0 0 C12.81 0, 25.62 0, 60 0 M0 0 C12.8 0, 25.61 0, 60 0 M60 0 C60 12.67, 60 25.34, 60 60 M60 0 C60 17.79, 60 35.57, 60 60 M60 60 C41.53 60, 23.06 60, 0 60 M60 60 C37.61 60, 15.22 60, 0 60 M0 60 C0 41.57, 0 23.14, 0 0 M0 60 C0 43.6, 0 27.19, 0 0" stroke="transparent" stroke-width="2" fill="none"></path></g><g stroke-linecap="round" transform="translate(905 65) rotate(0 30 30)"><path d="M0 0 L60 0 L60 60 L0 60" stroke="none" stroke-width="0" fill="#ffce99"></path><path d="M0 0 C12.81 0, 25.62 0, 60 0 M0 0 C17.12 0, 34.25 0, 60 0 M60 0 C60 14.78, 60 29.55, 60 60 M60 0 C60 16.3, 60 32.61, 60 60 M60 60 C43.84 60, 27.68 60, 0 60 M60 60 C47.16 60, 34.31 60, 0 60 M0 60 C0 45.13, 0 30.26, 0 0 M0 60 C0 46.51, 0 33.01, 0 0" stroke="transparent" stroke-width="2" fill="none"></path></g><g stroke-linecap="round" transform="translate(975 65) rotate(0 30 30)"><path d="M0 0 L60 0 L60 60 L0 60" stroke="none" stroke-width="0" fill="#ffce99"></path><path d="M0 0 C12.81 0, 25.62 0, 60 0 M0 0 C21.44 0, 42.89 0, 60 0 M60 0 C60 16.88, 60 33.77, 60 60 M60 0 C60 14.82, 60 29.64, 60 60 M60 60 C46.15 60, 32.3 60, 0 60 M60 60 C44.7 60, 29.4 60, 0 60 M0 60 C0 36.69, 0 13.37, 0 0 M0 60 C0 37.41, 0 14.83, 0 0" stroke="transparent" stroke-width="2" fill="none"></path></g><g stroke-linecap="round" transform="translate(285 285) rotate(0 190 110)"><path d="M16 0 C91.86 0, 167.72 0, 364 0 M16 0 C102.05 0, 188.09 0, 364 0 M364 0 C374.67 0, 380 5.33, 380 16 M364 0 C374.67 0, 380 5.33, 380 16 M380 16 C380 58.62, 380 101.25, 380 204 M380 16 C380 68.2, 380 120.39, 380 204 M380 204 C380 214.67, 374.67 220, 364 220 M380 204 C380 214.67, 374.67 220, 364 220 M364 220 C257.66 220, 151.32 220, 16 220 M364 220 C260.59 220, 157.19 220, 16 220 M16 220 C5.33 220, 0 214.67, 0 204 M16 220 C5.33 220, 0 214.67, 0 204 M0 204 C0 143.07, 0 82.15, 0 16 M0 204 C0 139.5, 0 75, 0 16 M0 16 C0 5.33, 5.33 0, 16 0 M0 16 C0 5.33, 5.33 0, 16 0" stroke="#adb5bd" stroke-width="1" fill="none"></path></g><g stroke-linecap="round" transform="translate(305 265) rotate(0 100 15)"><path d="M7.5 0 C77.41 0, 147.33 0, 192.5 0 C197.5 0, 200 2.5, 200 7.5 C200 11.61, 200 15.72, 200 22.5 C200 27.5, 197.5 30, 192.5 30 C126.13 30, 59.76 30, 7.5 30 C2.5 30, 0 27.5, 0 22.5 C0 18.77, 0 15.04, 0 7.5 C0 2.5, 2.5 0, 7.5 0" stroke="none" stroke-width="0" fill="#ff4d6d"></path><path d="M7.5 0 C47.83 0, 88.16 0, 192.5 0 M7.5 0 C66.56 0, 125.62 0, 192.5 0 M192.5 0 C197.5 0, 200 2.5, 200 7.5 M192.5 0 C197.5 0, 200 2.5, 200 7.5 M200 7.5 C200 11.16, 200 14.83, 200 22.5 M200 7.5 C200 11.51, 200 15.52, 200 22.5 M200 22.5 C200 27.5, 197.5 30, 192.5 30 M200 22.5 C200 27.5, 197.5 30, 192.5 30 M192.5 30 C133.07 30, 73.64 30, 7.5 30 M192.5 30 C134.6 30, 76.7 30, 7.5 30 M7.5 30 C2.5 30, 0 27.5, 0 22.5 M7.5 30 C2.5 30, 0 27.5, 0 22.5 M0 22.5 C0 19.34, 0 16.17, 0 7.5 M0 22.5 C0 19.21, 0 15.91, 0 7.5 M0 7.5 C0 2.5, 2.5 0, 7.5 0 M0 7.5 C0 2.5, 2.5 0, 7.5 0" stroke="transparent" stroke-width="1" fill="none"></path></g><g transform="translate(325 265) rotate(0 80 10)"><text x="80" y="13.7802734375" font-family="Helvetica, Segoe UI Emoji" font-size="14px" fill="#ffffff" text-anchor="middle" style="white-space: pre;" direction="ltr" dominant-baseline="alphabetic">Idea Owner</text></g><g stroke-linecap="round" transform="translate(305 325) rotate(0 30 30)"><path d="M0 0 L60 0 L60 60 L0 60" stroke="none" stroke-width="0" fill="#ffb3c1"></path><path d="M0 0 C13.08 0, 26.16 0, 60 0 M0 0 C15.79 0, 31.59 0, 60 0 M60 0 C60 16.46, 60 32.92, 60 60 M60 0 C60 13.65, 60 27.3, 60 60 M60 60 C42.14 60, 24.28 60, 0 60 M60 60 C47.96 60, 35.93 60, 0 60 M0 60 C0 41.19, 0 22.38, 0 0 M0 60 C0 42.49, 0 24.99, 0 0" stroke="transparent" stroke-width="2" fill="none"></path></g><g stroke-linecap="round" transform="translate(385 325) rotate(0 30 30)"><path d="M0 0 L60 0 L60 60 L0 60" stroke="none" stroke-width="0" fill="#ffb3c1"></path><path d="M0 0 C13.08 0, 26.16 0, 60 0 M0 0 C20.11 0, 40.23 0, 60 0 M60 0 C60 18.57, 60 37.13, 60 60 M60 0 C60 12.17, 60 24.33, 60 60 M60 60 C44.45 60, 28.9 60, 0 60 M60 60 C45.51 60, 31.02 60, 0 60 M0 60 C0 44.75, 0 29.5, 0 0 M0 60 C0 45.4, 0 30.81, 0 0" stroke="transparent" stroke-width="2" fill="none"></path></g><g stroke-linecap="round" transform="translate(465 325) rotate(0 30 30)"><path d="M0 0 L60 0 L60 60 L0 60" stroke="none" stroke-width="0" fill="#ffb3c1"></path><path d="M0 0 C13.08 0, 26.16 0, 60 0 M0 0 C12.43 0, 24.87 0, 60 0 M60 0 C60 20.67, 60 41.35, 60 60 M60 0 C60 22.68, 60 45.36, 60 60 M60 60 C46.76 60, 33.52 60, 0 60 M60 60 C43.06 60, 26.11 60, 0 60 M0 60 C0 36.31, 0 12.62, 0 0 M0 60 C0 36.31, 0 12.62, 0 0" stroke="transparent" stroke-width="2" fill="none"></path></g><g stroke-linecap="round" transform="translate(545 325) rotate(0 30 30)"><path d="M0 0 L60 0 L60 60 L0 60" stroke="none" stroke-width="0" fill="#ffb3c1"></path><path d="M0 0 C13.08 0, 26.16 0, 60 0 M0 0 C16.75 0, 33.51 0, 60 0 M60 0 C60 22.78, 60 45.57, 60 60 M60 0 C60 21.2, 60 42.4, 60 60 M60 60 C37.07 60, 14.13 60, 0 60 M60 60 C40.6 60, 21.2 60, 0 60 M0 60 C0 39.87, 0 19.73, 0 0 M0 60 C0 39.22, 0 18.44, 0 0" stroke="transparent" stroke-width="2" fill="none"></path></g><g stroke-linecap="round" transform="translate(685 285) rotate(0 190 110)"><path d="M16 0 C93.42 0, 170.85 0, 364 0 M16 0 C99.89 0, 183.79 0, 364 0 M364 0 C374.67 0, 380 5.33, 380 16 M364 0 C374.67 0, 380 5.33, 380 16 M380 16 C380 77.86, 380 139.72, 380 204 M380 16 C380 91.14, 380 166.28, 380 204 M380 204 C380 214.67, 374.67 220, 364 220 M380 204 C380 214.67, 374.67 220, 364 220 M364 220 C232.44 220, 100.87 220, 16 220 M364 220 C253.52 220, 143.04 220, 16 220 M16 220 C5.33 220, 0 214.67, 0 204 M16 220 C5.33 220, 0 214.67, 0 204 M0 204 C0 141.32, 0 78.64, 0 16 M0 204 C0 136.37, 0 68.73, 0 16 M0 16 C0 5.33, 5.33 0, 16 0 M0 16 C0 5.33, 5.33 0, 16 0" stroke="#adb5bd" stroke-width="1" fill="none"></path></g><g stroke-linecap="round" transform="translate(725 265) rotate(0 90 15)"><path d="M7.5 0 C67.3 0, 127.09 0, 172.5 0 C177.5 0, 180 2.5, 180 7.5 C180 10.95, 180 14.4, 180 22.5 C180 27.5, 177.5 30, 172.5 30 C109.68 30, 46.86 30, 7.5 30 C2.5 30, 0 27.5, 0 22.5 C0 18.16, 0 13.82, 0 7.5 C0 2.5, 2.5 0, 7.5 0" stroke="none" stroke-width="0" fill="#6a4c93"></path><path d="M7.5 0 C44.21 0, 80.92 0, 172.5 0 M7.5 0 C59.16 0, 110.81 0, 172.5 0 M172.5 0 C177.5 0, 180 2.5, 180 7.5 M172.5 0 C177.5 0, 180 2.5, 180 7.5 M180 7.5 C180 12.7, 180 17.9, 180 22.5 M180 7.5 C180 13.34, 180 19.18, 180 22.5 M180 22.5 C180 27.5, 177.5 30, 172.5 30 M180 22.5 C180 27.5, 177.5 30, 172.5 30 M172.5 30 C107.53 30, 42.57 30, 7.5 30 M172.5 30 C117.51 30, 62.51 30, 7.5 30 M7.5 30 C2.5 30, 0 27.5, 0 22.5 M7.5 30 C2.5 30, 0 27.5, 0 22.5 M0 22.5 C0 19.2, 0 15.89, 0 7.5 M0 22.5 C0 18.96, 0 15.41, 0 7.5 M0 7.5 C0 2.5, 2.5 0, 7.5 0 M0 7.5 C0 2.5, 2.5 0, 7.5 0" stroke="transparent" stroke-width="1" fill="none"></path></g><g transform="translate(745 265) rotate(0 80 10)"><text x="80" y="13.7802734375" font-family="Helvetica, Segoe UI Emoji" font-size="14px" fill="#ffffff" text-anchor="middle" style="white-space: pre;" direction="ltr" dominant-baseline="alphabetic">Idea Owner</text></g><g stroke-linecap="round" transform="translate(725 325) rotate(0 30 30)"><path d="M0 0 L60 0 L60 60 L0 60" stroke="none" stroke-width="0" fill="#d0bfff"></path><path d="M0 0 C13.35 0, 26.7 0, 60 0 M0 0 C15.42 0, 30.85 0, 60 0 M60 0 C60 12.47, 60 24.93, 60 60 M60 0 C60 18.54, 60 37.09, 60 60 M60 60 C47.36 60, 34.73 60, 0 60 M60 60 C41.41 60, 22.82 60, 0 60 M0 60 C0 47.93, 0 35.86, 0 0 M0 60 C0 47.21, 0 34.42, 0 0" stroke="transparent" stroke-width="2" fill="none"></path></g><g stroke-linecap="round" transform="translate(805 325) rotate(0 30 30)"><path d="M0 0 L60 0 L60 60 L0 60" stroke="none" stroke-width="0" fill="#d0bfff"></path><path d="M0 0 C13.35 0, 26.7 0, 60 0 M0 0 C19.74 0, 39.49 0, 60 0 M60 0 C60 14.57, 60 29.15, 60 60 M60 0 C60 17.06, 60 34.12, 60 60 M60 60 C37.67 60, 15.35 60, 0 60 M60 60 C38.96 60, 17.91 60, 0 60 M0 60 C0 39.49, 0 18.98, 0 0 M0 60 C0 38.12, 0 16.24, 0 0" stroke="transparent" stroke-width="2" fill="none"></path></g><g stroke-linecap="round" transform="translate(885 325) rotate(0 30 30)"><path d="M0 0 L60 0 L60 60 L0 60" stroke="none" stroke-width="0" fill="#d0bfff"></path><path d="M0 0 C13.35 0, 26.7 0, 60 0 M0 0 C12.06 0, 24.13 0, 60 0 M60 0 C60 16.68, 60 33.36, 60 60 M60 0 C60 15.58, 60 31.16, 60 60 M60 60 C39.98 60, 19.97 60, 0 60 M60 60 C36.5 60, 13 60, 0 60 M0 60 C0 43.05, 0 26.09, 0 0 M0 60 C0 41.03, 0 22.05, 0 0" stroke="transparent" stroke-width="2" fill="none"></path></g><g stroke-linecap="round" transform="translate(965 325) rotate(0 30 30)"><path d="M0 0 L60 0 L60 60 L0 60" stroke="none" stroke-width="0" fill="#d0bfff"></path><path d="M0 0 C13.35 0, 26.7 0, 60 0 M0 0 C16.38 0, 32.76 0, 60 0 M60 0 C60 18.79, 60 37.58, 60 60 M60 0 C60 14.09, 60 28.19, 60 60 M60 60 C42.29 60, 24.59 60, 0 60 M60 60 C46.05 60, 32.09 60, 0 60 M0 60 C0 46.61, 0 33.21, 0 0 M0 60 C0 43.94, 0 27.87, 0 0" stroke="transparent" stroke-width="2" fill="none"></path></g><g stroke-linecap="round" transform="translate(285 545) rotate(0 395 90)"><path d="M16 0 C188.05 0, 360.1 0, 774 0 M16 0 C194.05 0, 372.09 0, 774 0 M774 0 C784.67 0, 790 5.33, 790 16 M774 0 C784.67 0, 790 5.33, 790 16 M790 16 C790 50.24, 790 84.48, 790 164 M790 16 C790 63.61, 790 111.23, 790 164 M790 164 C790 174.67, 784.67 180, 774 180 M790 164 C790 174.67, 784.67 180, 774 180 M774 180 C584.1 180, 394.19 180, 16 180 M774 180 C517.95 180, 261.89 180, 16 180 M16 180 C5.33 180, 0 174.67, 0 164 M16 180 C5.33 180, 0 174.67, 0 164 M0 164 C0 113.28, 0 62.56, 0 16 M0 164 C0 108.29, 0 52.58, 0 16 M0 16 C0 5.33, 5.33 0, 16 0 M0 16 C0 5.33, 5.33 0, 16 0" stroke="#1e1e1e" stroke-width="2" fill="none"></path></g><g stroke-linecap="round" transform="translate(305 525) rotate(0 130 15)"><path d="M7.5 0 C92.49 0, 177.47 0, 252.5 0 C257.5 0, 260 2.5, 260 7.5 C260 13.29, 260 19.08, 260 22.5 C260 27.5, 257.5 30, 252.5 30 C202.84 30, 153.17 30, 7.5 30 C2.5 30, 0 27.5, 0 22.5 C0 17.55, 0 12.61, 0 7.5 C0 2.5, 2.5 0, 7.5 0" stroke="none" stroke-width="0" fill="#000000"></path><path d="M7.5 0 C63.11 0, 118.72 0, 252.5 0 M7.5 0 C82.69 0, 157.87 0, 252.5 0 M252.5 0 C257.5 0, 260 2.5, 260 7.5 M252.5 0 C257.5 0, 260 2.5, 260 7.5 M260 7.5 C260 11.23, 260 14.97, 260 22.5 M260 7.5 C260 12.17, 260 16.84, 260 22.5 M260 22.5 C260 27.5, 257.5 30, 252.5 30 M260 22.5 C260 27.5, 257.5 30, 252.5 30 M252.5 30 C187.28 30, 122.06 30, 7.5 30 M252.5 30 C165.86 30, 79.22 30, 7.5 30 M7.5 30 C2.5 30, 0 27.5, 0 22.5 M7.5 30 C2.5 30, 0 27.5, 0 22.5 M0 22.5 C0 19.06, 0 15.61, 0 7.5 M0 22.5 C0 18.71, 0 14.91, 0 7.5 M0 7.5 C0 2.5, 2.5 0, 7.5 0 M0 7.5 C0 2.5, 2.5 0, 7.5 0" stroke="#000000" stroke-width="1" fill="none"></path></g><g transform="translate(325 525) rotate(0 115 10)"><text x="115" y="13.7802734375" font-family="Helvetica, Segoe UI Emoji" font-size="14px" fill="#ffffff" text-anchor="middle" style="white-space: pre;" direction="ltr" dominant-baseline="alphabetic">Idea Clustering &amp; Prioritization</text></g><g stroke-linecap="round" transform="translate(305 585) rotate(0 30 30)"><path d="M0 0 L60 0 L60 60 L0 60" stroke="none" stroke-width="0" fill="#ffce99"></path><path d="M0 0 C13.62 0, 27.24 0, 60 0 M0 0 C15.05 0, 30.1 0, 60 0 M60 0 C60 20.47, 60 40.94, 60 60 M60 0 C60 23.44, 60 46.88, 60 60 M60 60 C40.59 60, 21.18 60, 0 60 M60 60 C46.86 60, 33.71 60, 0 60 M0 60 C0 42.67, 0 25.34, 0 0 M0 60 C0 39.92, 0 19.85, 0 0" stroke="transparent" stroke-width="2" fill="none"></path></g><g stroke-linecap="round" transform="translate(375 585) rotate(0 30 30)"><path d="M0 0 L60 0 L60 60 L0 60" stroke="none" stroke-width="0" fill="#d0bfff"></path><path d="M0 0 C13.62 0, 27.24 0, 60 0 M0 0 C19.37 0, 38.74 0, 60 0 M60 0 C60 22.58, 60 45.16, 60 60 M60 0 C60 21.96, 60 43.91, 60 60 M60 60 C42.9 60, 25.8 60, 0 60 M60 60 C44.4 60, 28.8 60, 0 60 M0 60 C0 46.23, 0 32.45, 0 0 M0 60 C0 42.83, 0 25.67, 0 0" stroke="transparent" stroke-width="2" fill="none"></path></g><g stroke-linecap="round" transform="translate(445 585) rotate(0 30 30)"><path d="M0 0 L60 0 L60 60 L0 60" stroke="none" stroke-width="0" fill="#ffb3c1"></path><path d="M0 0 C13.62 0, 27.24 0, 60 0 M0 0 C23.69 0, 47.38 0, 60 0 M60 0 C60 12.69, 60 25.38, 60 60 M60 0 C60 20.47, 60 40.95, 60 60 M60 60 C45.21 60, 30.42 60, 0 60 M60 60 C41.95 60, 23.89 60, 0 60 M0 60 C0 37.79, 0 15.57, 0 0 M0 60 C0 45.74, 0 31.48, 0 0" stroke="transparent" stroke-width="2" fill="none"></path></g><g stroke-linecap="round" transform="translate(515 585) rotate(0 30 30)"><path d="M0 0 L60 0 L60 60 L0 60" stroke="none" stroke-width="0" fill="#d4edda"></path><path d="M0 0 C13.62 0, 27.24 0, 60 0 M0 0 C16.01 0, 32.02 0, 60 0 M60 0 C60 14.8, 60 29.59, 60 60 M60 0 C60 18.99, 60 37.98, 60 60 M60 60 C47.52 60, 35.04 60, 0 60 M60 60 C39.49 60, 18.99 60, 0 60 M0 60 C0 41.34, 0 22.69, 0 0 M0 60 C0 36.65, 0 13.3, 0 0" stroke="transparent" stroke-width="2" fill="none"></path></g></svg>