<svg version="1.1" xmlns="http://www.w3.org/2000/svg" viewBox="0 0 1094.5454545454545 598.0065717415115" width="1094.5454545454545" height="598.0065717415115"><!-- svg-source:excalidraw --><metadata></metadata><defs><style class="style-fonts">
      </style></defs><rect x="0" y="0" width="1094.5454545454545" height="598.0065717415115" fill="#ffffff"></rect><g transform="translate(331.6703176341731 5) rotate(0 248.2694414019715 23.52026286966046)"><text x="248.2694414019715" y="33.39948786623768" font-family="Helvetica, Segoe UI Emoji" font-size="36.58707557502738px" fill="#0f172a" text-anchor="middle" style="white-space: pre;" direction="ltr" dominant-baseline="alphabetic">🎯 Template de OKR (Google)</text></g><g stroke-linecap="round" transform="translate(5 225) rotate(0 209.06900328587074 91.46768893756845)"><path d="M12 0 C105.97 0, 199.94 0, 406.14 0 C414.14 0, 418.14 4, 418.14 12 C418.14 73.4, 418.14 134.79, 418.14 170.94 C418.14 178.94, 414.14 182.94, 406.14 182.94 C322.17 182.94, 238.2 182.94, 12 182.94 C4 182.94, 0 178.94, 0 170.94 C0 137.47, 0 104.01, 0 12 C0 4, 4 0, 12 0" stroke="none" stroke-width="0" fill="#dbeafe"></path><path d="M12 0 C91.01 0, 170.02 0, 406.14 0 M12 0 C147.33 0, 282.67 0, 406.14 0 M406.14 0 C414.14 0, 418.14 4, 418.14 12 M406.14 0 C414.14 0, 418.14 4, 418.14 12 M418.14 12 C418.14 73.23, 418.14 134.46, 418.14 170.94 M418.14 12 C418.14 64.65, 418.14 117.29, 418.14 170.94 M418.14 170.94 C418.14 178.94, 414.14 182.94, 406.14 182.94 M418.14 170.94 C418.14 178.94, 414.14 182.94, 406.14 182.94 M406.14 182.94 C249.04 182.94, 91.94 182.94, 12 182.94 M406.14 182.94 C321.92 182.94, 237.7 182.94, 12 182.94 M12 182.94 C4 182.94, 0 178.94, 0 170.94 M12 182.94 C4 182.94, 0 178.94, 0 170.94 M0 170.94 C0 130.48, 0 90.02, 0 12 M0 170.94 C0 108.24, 0 45.54, 0 12 M0 12 C0 4, 4 0, 12 0 M0 12 C0 4, 4 0, 12 0" stroke="#2563eb" stroke-width="2" fill="none"></path></g><g transform="translate(25 245) rotate(0 91.46768893756845 15.680175246440314)"><text x="0" y="22.736764529709745" font-family="Helvetica, Segoe UI Emoji" font-size="26.133625410733842px" fill="#1e40af" text-anchor="start" style="white-space: pre;" direction="ltr" dominant-baseline="alphabetic">OBJETIVO (O)</text></g><g transform="translate(25 305) rotate(0 173.3333333333333 40)"><text x="0" y="19.093749999999993" font-family="Helvetica, Segoe UI Emoji" font-size="21.333333333333325px" fill="#334155" text-anchor="start" style="white-space: pre;" direction="ltr" dominant-baseline="alphabetic">O que queremos alcançar?</text><text x="0" y="45.76041666666665" font-family="Helvetica, Segoe UI Emoji" font-size="21.333333333333325px" fill="#334155" text-anchor="start" style="white-space: pre;" direction="ltr" dominant-baseline="alphabetic">(Deve ser qualitativo,</text><text x="0" y="72.42708333333331" font-family="Helvetica, Segoe UI Emoji" font-size="21.333333333333325px" fill="#334155" text-anchor="start" style="white-space: pre;" direction="ltr" dominant-baseline="alphabetic">inspirador e ter um prazo claro)</text></g><g stroke-linecap="round" transform="translate(566.8729463307776 96.46768893756848) rotate(0 261.33625410733845 52.267250821467684)"><path d="M8 0 C117.89 0, 227.78 0, 514.67 0 C520.01 0, 522.67 2.67, 522.67 8 C522.67 43.11, 522.67 78.21, 522.67 96.53 C522.67 101.87, 520.01 104.53, 514.67 104.53 C403.3 104.53, 291.92 104.53, 8 104.53 C2.67 104.53, 0 101.87, 0 96.53 C0 70.74, 0 44.95, 0 8 C0 2.67, 2.67 0, 8 0" stroke="none" stroke-width="0" fill="#f8fafc"></path><path d="M8 0 C109.79 0, 211.58 0, 514.67 0 M8 0 C145.19 0, 282.37 0, 514.67 0 M514.67 0 C520.01 0, 522.67 2.67, 522.67 8 M514.67 0 C520.01 0, 522.67 2.67, 522.67 8 M522.67 8 C522.67 36.15, 522.67 64.3, 522.67 96.53 M522.67 8 C522.67 34.02, 522.67 60.05, 522.67 96.53 M522.67 96.53 C522.67 101.87, 520.01 104.53, 514.67 104.53 M522.67 96.53 C522.67 101.87, 520.01 104.53, 514.67 104.53 M514.67 104.53 C337.25 104.53, 159.83 104.53, 8 104.53 M514.67 104.53 C322.19 104.53, 129.72 104.53, 8 104.53 M8 104.53 C2.67 104.53, 0 101.87, 0 96.53 M8 104.53 C2.67 104.53, 0 101.87, 0 96.53 M0 96.53 C0 74.52, 0 52.5, 0 8 M0 96.53 C0 64.68, 0 32.83, 0 8 M0 8 C0 2.67, 2.67 0, 8 0 M0 8 C0 2.67, 2.67 0, 8 0" stroke="#94a3b8" stroke-width="2" fill="none"></path></g><g transform="translate(585 105) rotate(0 235.20262869660462 13.066812705366921)"><text x="0" y="18.006425203655528" font-family="Helvetica, Segoe UI Emoji" font-size="18.29353778751369px" fill="#0f172a" text-anchor="start" style="white-space: pre;" direction="ltr" dominant-baseline="alphabetic">KR 1: Aumentar a retenção de usuários de 60% para 80%</text></g><g stroke-linecap="round" transform="translate(585 145) rotate(0 196.0021905805038 9.146768893756843)"><path d="M4.57 0 C102.91 0, 201.25 0, 387.43 0 C390.48 0, 392 1.52, 392 4.57 C392 6.83, 392 9.1, 392 13.72 C392 16.77, 390.48 18.29, 387.43 18.29 C276.15 18.29, 164.87 18.29, 4.57 18.29 C1.52 18.29, 0 16.77, 0 13.72 C0 10.26, 0 6.81, 0 4.57 C0 1.52, 1.52 0, 4.57 0" stroke="none" stroke-width="0" fill="#e2e8f0"></path><path d="M4.57 0 C81.49 0, 158.42 0, 387.43 0 M4.57 0 C86.79 0, 169.01 0, 387.43 0 M387.43 0 C390.48 0, 392 1.52, 392 4.57 M387.43 0 C390.48 0, 392 1.52, 392 4.57 M392 4.57 C392 7.8, 392 11.03, 392 13.72 M392 4.57 C392 7.07, 392 9.57, 392 13.72 M392 13.72 C392 16.77, 390.48 18.29, 387.43 18.29 M392 13.72 C392 16.77, 390.48 18.29, 387.43 18.29 M387.43 18.29 C241.37 18.29, 95.3 18.29, 4.57 18.29 M387.43 18.29 C306.45 18.29, 225.46 18.29, 4.57 18.29 M4.57 18.29 C1.52 18.29, 0 16.77, 0 13.72 M4.57 18.29 C1.52 18.29, 0 16.77, 0 13.72 M0 13.72 C0 11.69, 0 9.65, 0 4.57 M0 13.72 C0 10.86, 0 8, 0 4.57 M0 4.57 C0 1.52, 1.52 0, 4.57 0 M0 4.57 C0 1.52, 1.52 0, 4.57 0" stroke="transparent" stroke-width="2" fill="none"></path></g><g stroke-linecap="round" transform="translate(585 145) rotate(0 147.00164293537784 9.146768893756843)"><path d="M4.57 0 C83.43 0, 162.29 0, 289.43 0 C292.48 0, 294 1.52, 294 4.57 C294 7.98, 294 11.39, 294 13.72 C294 16.77, 292.48 18.29, 289.43 18.29 C225.03 18.29, 160.63 18.29, 4.57 18.29 C1.52 18.29, 0 16.77, 0 13.72 C0 11.7, 0 9.68, 0 4.57 C0 1.52, 1.52 0, 4.57 0" stroke="none" stroke-width="0" fill="#22c55e"></path><path d="M4.57 0 C61.81 0, 119.04 0, 289.43 0 M4.57 0 C86.25 0, 167.93 0, 289.43 0 M289.43 0 C292.48 0, 294 1.52, 294 4.57 M289.43 0 C292.48 0, 294 1.52, 294 4.57 M294 4.57 C294 7.96, 294 11.35, 294 13.72 M294 4.57 C294 6.97, 294 9.38, 294 13.72 M294 13.72 C294 16.77, 292.48 18.29, 289.43 18.29 M294 13.72 C294 16.77, 292.48 18.29, 289.43 18.29 M289.43 18.29 C176.29 18.29, 63.15 18.29, 4.57 18.29 M289.43 18.29 C224.67 18.29, 159.91 18.29, 4.57 18.29 M4.57 18.29 C1.52 18.29, 0 16.77, 0 13.72 M4.57 18.29 C1.52 18.29, 0 16.77, 0 13.72 M0 13.72 C0 10.89, 0 8.07, 0 4.57 M0 13.72 C0 10.16, 0 6.6, 0 4.57 M0 4.57 C0 1.52, 1.52 0, 4.57 0 M0 4.57 C0 1.52, 1.52 0, 4.57 0" stroke="transparent" stroke-width="2" fill="none"></path></g><g transform="translate(985 145) rotate(0 19.600219058050357 11.760131434830228)"><text x="0" y="16.69974393311884" font-family="Helvetica, Segoe UI Emoji" font-size="18.29353778751369px" fill="#15803d" text-anchor="start" style="white-space: pre;" direction="ltr" dominant-baseline="alphabetic">75%</text></g><g stroke-linecap="round" transform="translate(565 225) rotate(0 261.33625410733845 52.267250821467684)"><path d="M8 0 C117.1 0, 226.2 0, 514.67 0 C520.01 0, 522.67 2.67, 522.67 8 C522.67 37.4, 522.67 66.81, 522.67 96.53 C522.67 101.87, 520.01 104.53, 514.67 104.53 C331.25 104.53, 147.83 104.53, 8 104.53 C2.67 104.53, 0 101.87, 0 96.53 C0 77.46, 0 58.39, 0 8 C0 2.67, 2.67 0, 8 0" stroke="none" stroke-width="0" fill="#f8fafc"></path><path d="M8 0 C110.02 0, 212.04 0, 514.67 0 M8 0 C144.87 0, 281.74 0, 514.67 0 M514.67 0 C520.01 0, 522.67 2.67, 522.67 8 M514.67 0 C520.01 0, 522.67 2.67, 522.67 8 M522.67 8 C522.67 31.74, 522.67 55.49, 522.67 96.53 M522.67 8 C522.67 29.79, 522.67 51.58, 522.67 96.53 M522.67 96.53 C522.67 101.87, 520.01 104.53, 514.67 104.53 M522.67 96.53 C522.67 101.87, 520.01 104.53, 514.67 104.53 M514.67 104.53 C353.85 104.53, 193.02 104.53, 8 104.53 M514.67 104.53 C331.3 104.53, 147.92 104.53, 8 104.53 M8 104.53 C2.67 104.53, 0 101.87, 0 96.53 M8 104.53 C2.67 104.53, 0 101.87, 0 96.53 M0 96.53 C0 67.35, 0 38.17, 0 8 M0 96.53 C0 78.7, 0 60.87, 0 8 M0 8 C0 2.67, 2.67 0, 8 0 M0 8 C0 2.67, 2.67 0, 8 0" stroke="#94a3b8" stroke-width="2" fill="none"></path></g><g transform="translate(585 245) rotate(0 235.20262869660462 13.066812705366914)"><text x="0" y="18.006425203655528" font-family="Helvetica, Segoe UI Emoji" font-size="18.29353778751369px" fill="#0f172a" text-anchor="start" style="white-space: pre;" direction="ltr" dominant-baseline="alphabetic">KR 2: Reduzir o tempo de carregamento de 3s para 1s</text></g><g stroke-linecap="round" transform="translate(585 285) rotate(0 196.0021905805038 9.146768893756843)"><path d="M4.57 0 C102.32 0, 200.06 0, 387.43 0 C390.48 0, 392 1.52, 392 4.57 C392 8.07, 392 11.58, 392 13.72 C392 16.77, 390.48 18.29, 387.43 18.29 C298.28 18.29, 209.13 18.29, 4.57 18.29 C1.52 18.29, 0 16.77, 0 13.72 C0 10.96, 0 8.2, 0 4.57 C0 1.52, 1.52 0, 4.57 0" stroke="none" stroke-width="0" fill="#e2e8f0"></path><path d="M4.57 0 C81.67 0, 158.76 0, 387.43 0 M4.57 0 C86.55 0, 168.53 0, 387.43 0 M387.43 0 C390.48 0, 392 1.52, 392 4.57 M387.43 0 C390.48 0, 392 1.52, 392 4.57 M392 4.57 C392 7.35, 392 10.12, 392 13.72 M392 4.57 C392 6.63, 392 8.69, 392 13.72 M392 13.72 C392 16.77, 390.48 18.29, 387.43 18.29 M392 13.72 C392 16.77, 390.48 18.29, 387.43 18.29 M387.43 18.29 C253.91 18.29, 120.38 18.29, 4.57 18.29 M387.43 18.29 C236.75 18.29, 86.08 18.29, 4.57 18.29 M4.57 18.29 C1.52 18.29, 0 16.77, 0 13.72 M4.57 18.29 C1.52 18.29, 0 16.77, 0 13.72 M0 13.72 C0 10.95, 0 8.17, 0 4.57 M0 13.72 C0 10.48, 0 7.24, 0 4.57 M0 4.57 C0 1.52, 1.52 0, 4.57 0 M0 4.57 C0 1.52, 1.52 0, 4.57 0" stroke="transparent" stroke-width="2" fill="none"></path></g><g stroke-linecap="round" transform="translate(585 285) rotate(0 58.80065717415113 9.146768893756843)"><path d="M4.57 0 C34.43 0, 64.28 0, 113.03 0 C116.08 0, 117.6 1.52, 117.6 4.57 C117.6 7.39, 117.6 10.21, 117.6 13.72 C117.6 16.77, 116.08 18.29, 113.03 18.29 C73.09 18.29, 33.14 18.29, 4.57 18.29 C1.52 18.29, 0 16.77, 0 13.72 C0 10.56, 0 7.41, 0 4.57 C0 1.52, 1.52 0, 4.57 0" stroke="none" stroke-width="0" fill="#ef4444"></path><path d="M4.57 0 C26.41 0, 48.25 0, 113.03 0 M4.57 0 C35.6 0, 66.64 0, 113.03 0 M113.03 0 C116.08 0, 117.6 1.52, 117.6 4.57 M113.03 0 C116.08 0, 117.6 1.52, 117.6 4.57 M117.6 4.57 C117.6 7.51, 117.6 10.44, 117.6 13.72 M117.6 4.57 C117.6 6.54, 117.6 8.5, 117.6 13.72 M117.6 13.72 C117.6 16.77, 116.08 18.29, 113.03 18.29 M117.6 13.72 C117.6 16.77, 116.08 18.29, 113.03 18.29 M113.03 18.29 C73.5 18.29, 33.98 18.29, 4.57 18.29 M113.03 18.29 C90.32 18.29, 67.61 18.29, 4.57 18.29 M4.57 18.29 C1.52 18.29, 0 16.77, 0 13.72 M4.57 18.29 C1.52 18.29, 0 16.77, 0 13.72 M0 13.72 C0 10.15, 0 6.59, 0 4.57 M0 13.72 C0 11.61, 0 9.5, 0 4.57 M0 4.57 C0 1.52, 1.52 0, 4.57 0 M0 4.57 C0 1.52, 1.52 0, 4.57 0" stroke="transparent" stroke-width="2" fill="none"></path></g><g transform="translate(985 285) rotate(0 19.600219058050357 11.760131434830242)"><text x="0" y="16.69974393311884" font-family="Helvetica, Segoe UI Emoji" font-size="18.29353778751369px" fill="#b91c1c" text-anchor="start" style="white-space: pre;" direction="ltr" dominant-baseline="alphabetic">30%</text></g><g stroke-linecap="round" transform="translate(566.8729463307776 357.8039430449069) rotate(0 261.33625410733845 52.267250821467684)"><path d="M8 0 C116.32 0, 224.63 0, 514.67 0 C520.01 0, 522.67 2.67, 522.67 8 C522.67 31.7, 522.67 55.4, 522.67 96.53 C522.67 101.87, 520.01 104.53, 514.67 104.53 C360.54 104.53, 206.4 104.53, 8 104.53 C2.67 104.53, 0 101.87, 0 96.53 C0 66.48, 0 36.43, 0 8 C0 2.67, 2.67 0, 8 0" stroke="none" stroke-width="0" fill="#f8fafc"></path><path d="M8 0 C110.25 0, 212.5 0, 514.67 0 M8 0 C144.56 0, 281.12 0, 514.67 0 M514.67 0 C520.01 0, 522.67 2.67, 522.67 8 M514.67 0 C520.01 0, 522.67 2.67, 522.67 8 M522.67 8 C522.67 27.34, 522.67 46.68, 522.67 96.53 M522.67 8 C522.67 43.27, 522.67 78.53, 522.67 96.53 M522.67 96.53 C522.67 101.87, 520.01 104.53, 514.67 104.53 M522.67 96.53 C522.67 101.87, 520.01 104.53, 514.67 104.53 M514.67 104.53 C370.44 104.53, 226.21 104.53, 8 104.53 M514.67 104.53 C340.4 104.53, 166.13 104.53, 8 104.53 M8 104.53 C2.67 104.53, 0 101.87, 0 96.53 M8 104.53 C2.67 104.53, 0 101.87, 0 96.53 M0 96.53 C0 77.89, 0 59.26, 0 8 M0 96.53 C0 75.01, 0 53.49, 0 8 M0 8 C0 2.67, 2.67 0, 8 0 M0 8 C0 2.67, 2.67 0, 8 0" stroke="#94a3b8" stroke-width="2" fill="none"></path></g><g transform="translate(585 385) rotate(0 235.20262869660462 13.066812705366914)"><text x="0" y="18.006425203655528" font-family="Helvetica, Segoe UI Emoji" font-size="18.29353778751369px" fill="#0f172a" text-anchor="start" style="white-space: pre;" direction="ltr" dominant-baseline="alphabetic">KR 3: Alcançar R$ 1M em Receita Recorrente (MRR)</text></g><g stroke-linecap="round" transform="translate(585 425) rotate(0 196.0021905805038 9.146768893756843)"><path d="M4.57 0 C101.72 0, 198.87 0, 387.43 0 C390.48 0, 392 1.52, 392 4.57 C392 7.49, 392 10.4, 392 13.72 C392 16.77, 390.48 18.29, 387.43 18.29 C243.84 18.29, 100.24 18.29, 4.57 18.29 C1.52 18.29, 0 16.77, 0 13.72 C0 11.65, 0 9.59, 0 4.57 C0 1.52, 1.52 0, 4.57 0" stroke="none" stroke-width="0" fill="#e2e8f0"></path><path d="M4.57 0 C81.84 0, 159.1 0, 387.43 0 M4.57 0 C86.32 0, 168.06 0, 387.43 0 M387.43 0 C390.48 0, 392 1.52, 392 4.57 M387.43 0 C390.48 0, 392 1.52, 392 4.57 M392 4.57 C392 6.89, 392 9.21, 392 13.72 M392 4.57 C392 8.03, 392 11.48, 392 13.72 M392 13.72 C392 16.77, 390.48 18.29, 387.43 18.29 M392 13.72 C392 16.77, 390.48 18.29, 387.43 18.29 M387.43 18.29 C266.44 18.29, 145.46 18.29, 4.57 18.29 M387.43 18.29 C243.63 18.29, 99.83 18.29, 4.57 18.29 M4.57 18.29 C1.52 18.29, 0 16.77, 0 13.72 M4.57 18.29 C1.52 18.29, 0 16.77, 0 13.72 M0 13.72 C0 10.21, 0 6.69, 0 4.57 M0 13.72 C0 10.1, 0 6.48, 0 4.57 M0 4.57 C0 1.52, 1.52 0, 4.57 0 M0 4.57 C0 1.52, 1.52 0, 4.57 0" stroke="transparent" stroke-width="2" fill="none"></path></g><g stroke-linecap="round" transform="translate(585 425) rotate(0 176.40197152245344 9.146768893756843)"><path d="M4.57 0 C98.64 0, 192.71 0, 348.23 0 C351.28 0, 352.8 1.52, 352.8 4.57 C352.8 6.8, 352.8 9.03, 352.8 13.72 C352.8 16.77, 351.28 18.29, 348.23 18.29 C241.53 18.29, 134.83 18.29, 4.57 18.29 C1.52 18.29, 0 16.77, 0 13.72 C0 11.26, 0 8.8, 0 4.57 C0 1.52, 1.52 0, 4.57 0" stroke="none" stroke-width="0" fill="#3b82f6"></path><path d="M4.57 0 C73.93 0, 143.28 0, 348.23 0 M4.57 0 C102.69 0, 200.8 0, 348.23 0 M348.23 0 C351.28 0, 352.8 1.52, 352.8 4.57 M348.23 0 C351.28 0, 352.8 1.52, 352.8 4.57 M352.8 4.57 C352.8 7.05, 352.8 9.53, 352.8 13.72 M352.8 4.57 C352.8 7.93, 352.8 11.29, 352.8 13.72 M352.8 13.72 C352.8 16.77, 351.28 18.29, 348.23 18.29 M352.8 13.72 C352.8 16.77, 351.28 18.29, 348.23 18.29 M348.23 18.29 C234.25 18.29, 120.26 18.29, 4.57 18.29 M348.23 18.29 C213.72 18.29, 79.21 18.29, 4.57 18.29 M4.57 18.29 C1.52 18.29, 0 16.77, 0 13.72 M4.57 18.29 C1.52 18.29, 0 16.77, 0 13.72 M0 13.72 C0 11.24, 0 8.76, 0 4.57 M0 13.72 C0 11.23, 0 8.74, 0 4.57 M0 4.57 C0 1.52, 1.52 0, 4.57 0 M0 4.57 C0 1.52, 1.52 0, 4.57 0" stroke="transparent" stroke-width="2" fill="none"></path></g><g transform="translate(985 425) rotate(0 19.600219058050357 11.760131434830242)"><text x="0" y="16.69974393311884" font-family="Helvetica, Segoe UI Emoji" font-size="18.29353778751369px" fill="#1d4ed8" text-anchor="start" style="white-space: pre;" direction="ltr" dominant-baseline="alphabetic">90%</text></g><g stroke-linecap="round" transform="translate(566.8729463307776 488.4720700985761) rotate(0 261.33625410733845 52.267250821467684)"><path d="M8 0 C115.53 0, 223.06 0, 514.67 0 C520.01 0, 522.67 2.67, 522.67 8 C522.67 26, 522.67 44, 522.67 96.53 C522.67 101.87, 520.01 104.53, 514.67 104.53 C389.82 104.53, 264.97 104.53, 8 104.53 C2.67 104.53, 0 101.87, 0 96.53 C0 73.2, 0 49.87, 0 8 C0 2.67, 2.67 0, 8 0" stroke="none" stroke-width="0" fill="#f8fafc"></path><path d="M8 0 C110.48 0, 212.95 0, 514.67 0 M8 0 C144.25 0, 280.49 0, 514.67 0 M514.67 0 C520.01 0, 522.67 2.67, 522.67 8 M514.67 0 C520.01 0, 522.67 2.67, 522.67 8 M522.67 8 C522.67 40.64, 522.67 73.28, 522.67 96.53 M522.67 8 C522.67 39.03, 522.67 70.07, 522.67 96.53 M522.67 96.53 C522.67 101.87, 520.01 104.53, 514.67 104.53 M522.67 96.53 C522.67 101.87, 520.01 104.53, 514.67 104.53 M514.67 104.53 C387.04 104.53, 259.4 104.53, 8 104.53 M514.67 104.53 C349.5 104.53, 184.34 104.53, 8 104.53 M8 104.53 C2.67 104.53, 0 101.87, 0 96.53 M8 104.53 C2.67 104.53, 0 101.87, 0 96.53 M0 96.53 C0 70.73, 0 44.92, 0 8 M0 96.53 C0 71.32, 0 46.11, 0 8 M0 8 C0 2.67, 2.67 0, 8 0 M0 8 C0 2.67, 2.67 0, 8 0" stroke="#94a3b8" stroke-width="2" fill="none"></path></g><g transform="translate(585 505) rotate(0 235.20262869660462 13.066812705366914)"><text x="0" y="18.006425203655528" font-family="Helvetica, Segoe UI Emoji" font-size="18.29353778751369px" fill="#0f172a" text-anchor="start" style="white-space: pre;" direction="ltr" dominant-baseline="alphabetic">KR 4: Lançar iniciativa XYZ no mercado (0 a 100%)</text></g><g stroke-linecap="round" transform="translate(585 545) rotate(0 196.0021905805038 9.146768893756871)"><path d="M4.57 0 C101.13 0, 197.68 0, 387.43 0 C390.48 0, 392 1.52, 392 4.57 C392 6.9, 392 9.22, 392 13.72 C392 16.77, 390.48 18.29, 387.43 18.29 C265.97 18.29, 144.5 18.29, 4.57 18.29 C1.52 18.29, 0 16.77, 0 13.72 C0 10.52, 0 7.32, 0 4.57 C0 1.52, 1.52 0, 4.57 0" stroke="none" stroke-width="0" fill="#e2e8f0"></path><path d="M4.57 0 C82.01 0, 159.45 0, 387.43 0 M4.57 0 C86.08 0, 167.59 0, 387.43 0 M387.43 0 C390.48 0, 392 1.52, 392 4.57 M387.43 0 C390.48 0, 392 1.52, 392 4.57 M392 4.57 C392 6.44, 392 8.3, 392 13.72 M392 4.57 C392 7.59, 392 10.6, 392 13.72 M392 13.72 C392 16.77, 390.48 18.29, 387.43 18.29 M392 13.72 C392 16.77, 390.48 18.29, 387.43 18.29 M387.43 18.29 C278.98 18.29, 170.54 18.29, 4.57 18.29 M387.43 18.29 C250.51 18.29, 113.59 18.29, 4.57 18.29 M4.57 18.29 C1.52 18.29, 0 16.77, 0 13.72 M4.57 18.29 C1.52 18.29, 0 16.77, 0 13.72 M0 13.72 C0 11.3, 0 8.87, 0 4.57 M0 13.72 C0 11.55, 0 9.37, 0 4.57 M0 4.57 C0 1.52, 1.52 0, 4.57 0 M0 4.57 C0 1.52, 1.52 0, 4.57 0" stroke="transparent" stroke-width="2" fill="none"></path></g><g stroke-linecap="round" transform="translate(585 545) rotate(0 98.0010952902519 9.146768893756871)"><path d="M4.57 0 C55.43 0, 106.29 0, 191.43 0 C194.48 0, 196 1.52, 196 4.57 C196 8.04, 196 11.51, 196 13.72 C196 16.77, 194.48 18.29, 191.43 18.29 C144.21 18.29, 97 18.29, 4.57 18.29 C1.52 18.29, 0 16.77, 0 13.72 C0 10.12, 0 6.53, 0 4.57 C0 1.52, 1.52 0, 4.57 0" stroke="none" stroke-width="0" fill="#eab308"></path><path d="M4.57 0 C42.37 0, 80.16 0, 191.43 0 M4.57 0 C57.81 0, 111.04 0, 191.43 0 M191.43 0 C194.48 0, 196 1.52, 196 4.57 M191.43 0 C194.48 0, 196 1.52, 196 4.57 M196 4.57 C196 6.6, 196 8.62, 196 13.72 M196 4.57 C196 7.49, 196 10.41, 196 13.72 M196 13.72 C196 16.77, 194.48 18.29, 191.43 18.29 M196 13.72 C196 16.77, 194.48 18.29, 191.43 18.29 M191.43 18.29 C135.57 18.29, 79.72 18.29, 4.57 18.29 M191.43 18.29 C121.65 18.29, 51.87 18.29, 4.57 18.29 M4.57 18.29 C1.52 18.29, 0 16.77, 0 13.72 M4.57 18.29 C1.52 18.29, 0 16.77, 0 13.72 M0 13.72 C0 10.5, 0 7.28, 0 4.57 M0 13.72 C0 10.85, 0 7.98, 0 4.57 M0 4.57 C0 1.52, 1.52 0, 4.57 0 M0 4.57 C0 1.52, 1.52 0, 4.57 0" stroke="transparent" stroke-width="2" fill="none"></path></g><g transform="translate(985 545) rotate(0 19.600219058050357 11.760131434830214)"><text x="0" y="16.69974393311884" font-family="Helvetica, Segoe UI Emoji" font-size="18.29353778751369px" fill="#a16207" text-anchor="start" style="white-space: pre;" direction="ltr" dominant-baseline="alphabetic">50%</text></g><g stroke-linecap="round"><g transform="translate(424.8407659606236 323.54386642064856) rotate(0 70.10417879512036 -87.13637867210969)"><path d="M0 0 C28.42 -35.33, 56.84 -70.65, 140.21 -174.27 M0 0 C37.62 -46.75, 75.23 -93.51, 140.21 -174.27" stroke="#94a3b8" stroke-width="2" fill="none"></path></g><g transform="translate(424.8407659606236 323.54386642064856) rotate(0 70.10417879512036 -87.13637867210969)"><path d="M132.14 -150.61 C133.78 -155.41, 135.41 -160.2, 140.21 -174.27 M132.14 -150.61 C134.31 -156.96, 136.47 -163.31, 140.21 -174.27" stroke="#94a3b8" stroke-width="2" fill="none"></path></g><g transform="translate(424.8407659606236 323.54386642064856) rotate(0 70.10417879512036 -87.13637867210969)"><path d="M118.82 -161.33 C123.16 -163.95, 127.49 -166.58, 140.21 -174.27 M118.82 -161.33 C124.56 -164.8, 130.3 -168.27, 140.21 -174.27" stroke="#94a3b8" stroke-width="2" fill="none"></path></g></g><mask></mask><g stroke-linecap="round"><g transform="translate(425 324.20043811610077) rotate(0 71.86746987951807 -19.600219058050385)"><path d="M0 0 C29.14 -7.95, 58.27 -15.89, 143.73 -39.2 M0 0 C48.91 -13.34, 97.82 -26.68, 143.73 -39.2" stroke="#94a3b8" stroke-width="2" fill="none"></path></g><g transform="translate(425 324.20043811610077) rotate(0 71.86746987951807 -19.600219058050385)"><path d="M123.32 -24.77 C127.46 -27.7, 131.6 -30.62, 143.73 -39.2 M123.32 -24.77 C130.27 -29.68, 137.21 -34.59, 143.73 -39.2" stroke="#94a3b8" stroke-width="2" fill="none"></path></g><g transform="translate(425 324.20043811610077) rotate(0 71.86746987951807 -19.600219058050385)"><path d="M118.82 -41.27 C123.87 -40.85, 128.92 -40.43, 143.73 -39.2 M118.82 -41.27 C127.3 -40.56, 135.78 -39.86, 143.73 -39.2" stroke="#94a3b8" stroke-width="2" fill="none"></path></g></g><mask></mask><g stroke-linecap="round"><g transform="translate(425 325) rotate(0 71.86746987951807 45.73384446878424)"><path d="M0 0 C29.14 18.54, 58.27 37.08, 143.73 91.47 M0 0 C30.51 19.42, 61.02 38.83, 143.73 91.47" stroke="#94a3b8" stroke-width="2" fill="none"></path></g><g transform="translate(425 325) rotate(0 71.86746987951807 45.73384446878424)"><path d="M119.32 86.07 C124.27 87.16, 129.22 88.26, 143.73 91.47 M119.32 86.07 C124.51 87.21, 129.69 88.36, 143.73 91.47" stroke="#94a3b8" stroke-width="2" fill="none"></path></g><g transform="translate(425 325) rotate(0 71.86746987951807 45.73384446878424)"><path d="M128.51 71.64 C131.59 75.66, 134.68 79.68, 143.73 91.47 M128.51 71.64 C131.74 75.85, 134.97 80.06, 143.73 91.47" stroke="#94a3b8" stroke-width="2" fill="none"></path></g></g><mask></mask><g stroke-linecap="round"><g transform="translate(425 325) rotate(0 71.86746987951807 111.06790799561884)"><path d="M0 0 C29.14 45.03, 58.27 90.06, 143.73 222.14 M0 0 C40.86 63.15, 81.72 126.29, 143.73 222.14" stroke="#94a3b8" stroke-width="2" fill="none"></path></g><g transform="translate(425 325) rotate(0 71.86746987951807 111.06790799561884)"><path d="M123.79 207.06 C127.84 210.11, 131.88 213.17, 143.73 222.14 M123.79 207.06 C129.46 211.34, 135.13 215.63, 143.73 222.14" stroke="#94a3b8" stroke-width="2" fill="none"></path></g><g transform="translate(425 325) rotate(0 71.86746987951807 111.06790799561884)"><path d="M138.15 197.77 C139.28 202.71, 140.42 207.65, 143.73 222.14 M138.15 197.77 C139.74 204.69, 141.33 211.62, 143.73 222.14" stroke="#94a3b8" stroke-width="2" fill="none"></path></g></g><mask></mask></svg>