<svg version="1.1" xmlns="http://www.w3.org/2000/svg" viewBox="0 0 490 779" width="490" height="779"><!-- svg-source:excalidraw --><metadata></metadata><defs><style class="style-fonts">
      </style></defs><rect x="0" y="0" width="490" height="779" fill="#f8fafc"></rect><g transform="translate(5 5) rotate(0 240 18)"><text x="240" y="25.560546875" font-family="Helvetica, Segoe UI Emoji" font-size="28px" fill="#0f172a" text-anchor="middle" style="white-space: pre;" direction="ltr" dominant-baseline="alphabetic">🎯 Funil AIDA - Estrutura de Copy</text></g><g stroke-linecap="round" transform="translate(5 85) rotate(0 230 70)"><path d="M8 0 C134.46 0, 260.92 0, 452 0 C457.33 0, 460 2.67, 460 8 C460 33.95, 460 59.9, 460 132 C460 137.33, 457.33 140, 452 140 C322.96 140, 193.93 140, 8 140 C2.67 140, 0 137.33, 0 132 C0 95.79, 0 59.57, 0 8 C0 2.67, 2.67 0, 8 0" stroke="none" stroke-width="0" fill="#fee2e2"></path><path d="M8 0 C116.76 0, 225.53 0, 452 0 M8 0 C133.27 0, 258.55 0, 452 0 M452 0 C457.33 0, 460 2.67, 460 8 M452 0 C457.33 0, 460 2.67, 460 8 M460 8 C460 40, 460 72, 460 132 M460 8 C460 57.52, 460 107.04, 460 132 M460 132 C460 137.33, 457.33 140, 452 140 M460 132 C460 137.33, 457.33 140, 452 140 M452 140 C293.89 140, 135.77 140, 8 140 M452 140 C347.68 140, 243.37 140, 8 140 M8 140 C2.67 140, 0 137.33, 0 132 M8 140 C2.67 140, 0 137.33, 0 132 M0 132 C0 98.92, 0 65.83, 0 8 M0 132 C0 92.38, 0 52.76, 0 8 M0 8 C0 2.67, 2.67 0, 8 0 M0 8 C0 2.67, 2.67 0, 8 0" stroke="#dc2626" stroke-width="2" fill="none"></path></g><g transform="translate(25 105) rotate(0 75 12)"><text x="0" y="17.400390625" font-family="Helvetica, Segoe UI Emoji" font-size="20px" fill="#991b1b" text-anchor="start" style="white-space: pre;" direction="ltr" dominant-baseline="alphabetic">👀 1. ATENÇÃO</text></g><g transform="translate(25 145) rotate(0 210 30)"><text x="0" y="14.3203125" font-family="Helvetica, Segoe UI Emoji" font-size="16px" fill="#7f1d1d" text-anchor="start" style="white-space: pre;" direction="ltr" dominant-baseline="alphabetic">Objetivo: Quebrar o padrão e fisgar o leitor.</text><text x="0" y="34.3203125" font-family="Helvetica, Segoe UI Emoji" font-size="16px" fill="#7f1d1d" text-anchor="start" style="white-space: pre;" direction="ltr" dominant-baseline="alphabetic"></text><text x="0" y="54.3203125" font-family="Helvetica, Segoe UI Emoji" font-size="16px" fill="#7f1d1d" text-anchor="start" style="white-space: pre;" direction="ltr" dominant-baseline="alphabetic">📝 Copy: [Insira sua Headline ou Gancho aqui]</text></g><g stroke-linecap="round"><g transform="translate(227 225) rotate(0 0 20)"><path d="M0 0 C0 9.8, 0 19.6, 0 40 M0 0 C0 11.93, 0 23.85, 0 40" stroke="#64748b" stroke-width="2" fill="none"></path></g><g transform="translate(227 225) rotate(0 0 20)"><path d="M-6.84 21.21 C-5.16 25.81, -3.49 30.41, 0 40 M-6.84 21.21 C-4.8 26.81, -2.76 32.41, 0 40" stroke="#64748b" stroke-width="2" fill="none"></path></g><g transform="translate(227 225) rotate(0 0 20)"><path d="M6.84 21.21 C5.16 25.81, 3.49 30.41, 0 40 M6.84 21.21 C4.8 26.81, 2.76 32.41, 0 40" stroke="#64748b" stroke-width="2" fill="none"></path></g></g><mask></mask><g stroke-linecap="round" transform="translate(5 265) rotate(0 230 70)"><path d="M8 0 C169.95 0, 331.91 0, 452 0 C457.33 0, 460 2.67, 460 8 C460 46.53, 460 85.06, 460 132 C460 137.33, 457.33 140, 452 140 C348.85 140, 245.71 140, 8 140 C2.67 140, 0 137.33, 0 132 C0 99.14, 0 66.28, 0 8 C0 2.67, 2.67 0, 8 0" stroke="none" stroke-width="0" fill="#fef08a"></path><path d="M8 0 C116.77 0, 225.54 0, 452 0 M8 0 C172.33 0, 336.67 0, 452 0 M452 0 C457.33 0, 460 2.67, 460 8 M452 0 C457.33 0, 460 2.67, 460 8 M460 8 C460 48.68, 460 89.36, 460 132 M460 8 C460 52.32, 460 96.65, 460 132 M460 132 C460 137.33, 457.33 140, 452 140 M460 132 C460 137.33, 457.33 140, 452 140 M452 140 C354.85 140, 257.71 140, 8 140 M452 140 C319.59 140, 187.17 140, 8 140 M8 140 C2.67 140, 0 137.33, 0 132 M8 140 C2.67 140, 0 137.33, 0 132 M0 132 C0 105.46, 0 78.92, 0 8 M0 132 C0 104.08, 0 76.15, 0 8 M0 8 C0 2.67, 2.67 0, 8 0 M0 8 C0 2.67, 2.67 0, 8 0" stroke="#d97706" stroke-width="2" fill="none"></path></g><g transform="translate(25 285) rotate(0 75 12)"><text x="0" y="17.400390625" font-family="Helvetica, Segoe UI Emoji" font-size="20px" fill="#92400e" text-anchor="start" style="white-space: pre;" direction="ltr" dominant-baseline="alphabetic">🤔 2. INTERESSE</text></g><g transform="translate(25 325) rotate(0 200 30)"><text x="0" y="14.3203125" font-family="Helvetica, Segoe UI Emoji" font-size="16px" fill="#78350f" text-anchor="start" style="white-space: pre;" direction="ltr" dominant-baseline="alphabetic">Objetivo: Apresentar o problema e manter engajado.</text><text x="0" y="34.3203125" font-family="Helvetica, Segoe UI Emoji" font-size="16px" fill="#78350f" text-anchor="start" style="white-space: pre;" direction="ltr" dominant-baseline="alphabetic"></text><text x="0" y="54.3203125" font-family="Helvetica, Segoe UI Emoji" font-size="16px" fill="#78350f" text-anchor="start" style="white-space: pre;" direction="ltr" dominant-baseline="alphabetic">📝 Copy: [Aprofunde a dor e apresente a promessa]</text></g><g stroke-linecap="round"><g transform="translate(227 405) rotate(0 0 20)"><path d="M0 0 C0 9.8, 0 19.6, 0 40 M0 0 C0 15.44, 0 30.89, 0 40" stroke="#64748b" stroke-width="2" fill="none"></path></g><g transform="translate(227 405) rotate(0 0 20)"><path d="M-6.84 21.21 C-5.16 25.81, -3.49 30.41, 0 40 M-6.84 21.21 C-4.2 28.46, -1.56 35.72, 0 40" stroke="#64748b" stroke-width="2" fill="none"></path></g><g transform="translate(227 405) rotate(0 0 20)"><path d="M6.84 21.21 C5.16 25.81, 3.49 30.41, 0 40 M6.84 21.21 C4.2 28.46, 1.56 35.72, 0 40" stroke="#64748b" stroke-width="2" fill="none"></path></g></g><mask></mask><g stroke-linecap="round" transform="translate(5 449) rotate(0 230 70)"><path d="M8 0 C116.65 0, 225.29 0, 452 0 C457.33 0, 460 2.67, 460 8 C460 34.3, 460 60.61, 460 132 C460 137.33, 457.33 140, 452 140 C285.94 140, 119.89 140, 8 140 C2.67 140, 0 137.33, 0 132 C0 102.49, 0 72.98, 0 8 C0 2.67, 2.67 0, 8 0" stroke="none" stroke-width="0" fill="#dbeafe"></path><path d="M8 0 C116.78 0, 225.56 0, 452 0 M8 0 C122.6 0, 237.19 0, 452 0 M452 0 C457.33 0, 460 2.67, 460 8 M452 0 C457.33 0, 460 2.67, 460 8 M460 8 C460 57.36, 460 106.73, 460 132 M460 8 C460 47.13, 460 86.25, 460 132 M460 132 C460 137.33, 457.33 140, 452 140 M460 132 C460 137.33, 457.33 140, 452 140 M452 140 C327.02 140, 202.04 140, 8 140 M452 140 C291.49 140, 130.98 140, 8 140 M8 140 C2.67 140, 0 137.33, 0 132 M8 140 C2.67 140, 0 137.33, 0 132 M0 132 C0 87.2, 0 42.41, 0 8 M0 132 C0 90.97, 0 49.95, 0 8 M0 8 C0 2.67, 2.67 0, 8 0 M0 8 C0 2.67, 2.67 0, 8 0" stroke="#2563eb" stroke-width="2" fill="none"></path></g><g transform="translate(25 465) rotate(0 75 12)"><text x="0" y="17.400390625" font-family="Helvetica, Segoe UI Emoji" font-size="20px" fill="#1e40af" text-anchor="start" style="white-space: pre;" direction="ltr" dominant-baseline="alphabetic">💖 3. DESEJO</text></g><g transform="translate(25 509) rotate(0 210 30)"><text x="0" y="14.3203125" font-family="Helvetica, Segoe UI Emoji" font-size="16px" fill="#1e3a8a" text-anchor="start" style="white-space: pre;" direction="ltr" dominant-baseline="alphabetic">Objetivo: Gerar conexão e desejo intenso pela solução.</text><text x="0" y="34.3203125" font-family="Helvetica, Segoe UI Emoji" font-size="16px" fill="#1e3a8a" text-anchor="start" style="white-space: pre;" direction="ltr" dominant-baseline="alphabetic"></text><text x="0" y="54.3203125" font-family="Helvetica, Segoe UI Emoji" font-size="16px" fill="#1e3a8a" text-anchor="start" style="white-space: pre;" direction="ltr" dominant-baseline="alphabetic">📝 Copy: [Mostre os benefícios, provas sociais e valor]</text></g><g stroke-linecap="round"><g transform="translate(225 591) rotate(0 0 20)"><path d="M0 0 C0 9.8, 0 19.6, 0 40 M0 0 C0 10.96, 0 21.93, 0 40" stroke="#64748b" stroke-width="2" fill="none"></path></g><g transform="translate(225 591) rotate(0 0 20)"><path d="M-6.84 21.21 C-5.16 25.81, -3.49 30.42, 0 40 M-6.84 21.21 C-4.97 26.36, -3.09 31.51, 0 40" stroke="#64748b" stroke-width="2" fill="none"></path></g><g transform="translate(225 591) rotate(0 0 20)"><path d="M6.84 21.21 C5.16 25.81, 3.49 30.42, 0 40 M6.84 21.21 C4.97 26.36, 3.09 31.51, 0 40" stroke="#64748b" stroke-width="2" fill="none"></path></g></g><mask></mask><g stroke-linecap="round" transform="translate(5 634) rotate(0 230 70)"><path d="M8 0 C152.14 0, 296.27 0, 452 0 C457.33 0, 460 2.67, 460 8 C460 46.88, 460 85.76, 460 132 C460 137.33, 457.33 140, 452 140 C311.84 140, 171.67 140, 8 140 C2.67 140, 0 137.33, 0 132 C0 105.84, 0 79.69, 0 8 C0 2.67, 2.67 0, 8 0" stroke="none" stroke-width="0" fill="#d1fae5"></path><path d="M8 0 C116.79 0, 225.58 0, 452 0 M8 0 C161.66 0, 315.31 0, 452 0 M452 0 C457.33 0, 460 2.67, 460 8 M452 0 C457.33 0, 460 2.67, 460 8 M460 8 C460 41.24, 460 74.49, 460 132 M460 8 C460 41.93, 460 75.86, 460 132 M460 132 C460 137.33, 457.33 140, 452 140 M460 132 C460 137.33, 457.33 140, 452 140 M452 140 C299.18 140, 146.37 140, 8 140 M452 140 C352.19 140, 252.39 140, 8 140 M8 140 C2.67 140, 0 137.33, 0 132 M8 140 C2.67 140, 0 137.33, 0 132 M0 132 C0 93.75, 0 55.49, 0 8 M0 132 C0 102.67, 0 73.34, 0 8 M0 8 C0 2.67, 2.67 0, 8 0 M0 8 C0 2.67, 2.67 0, 8 0" stroke="#059669" stroke-width="2" fill="none"></path></g><g transform="translate(25 654) rotate(0 75 12)"><text x="0" y="17.400390625" font-family="Helvetica, Segoe UI Emoji" font-size="20px" fill="#065f46" text-anchor="start" style="white-space: pre;" direction="ltr" dominant-baseline="alphabetic">🚀 4. AÇÃO</text></g><g transform="translate(25 694) rotate(0 210 30)"><text x="0" y="14.3203125" font-family="Helvetica, Segoe UI Emoji" font-size="16px" fill="#064e3b" text-anchor="start" style="white-space: pre;" direction="ltr" dominant-baseline="alphabetic">Objetivo: Facilitar a conversão sem atritos.</text><text x="0" y="34.3203125" font-family="Helvetica, Segoe UI Emoji" font-size="16px" fill="#064e3b" text-anchor="start" style="white-space: pre;" direction="ltr" dominant-baseline="alphabetic"></text><text x="0" y="54.3203125" font-family="Helvetica, Segoe UI Emoji" font-size="16px" fill="#064e3b" text-anchor="start" style="white-space: pre;" direction="ltr" dominant-baseline="alphabetic">📝 Copy: [Insira sua Chamada (CTA) clara e a urgência]</text></g></svg>